%TF.GenerationSoftware,KiCad,Pcbnew,9.0.9-9.0.9~ubuntu22.04.1*%
%TF.CreationDate,2026-09-16T14:09:40+05:30*%
%TF.ProjectId,nRF9161-DEV-BOARD,6e524639-3136-4312-9d44-45562d424f41,rev?*%
%TF.SameCoordinates,Original*%
%TF.FileFunction,Paste,Top*%
%TF.FilePolarity,Positive*%
%FSLAX46Y46*%
G04 Gerber Fmt 4.6, Leading zero omitted, Abs format (unit mm)*
G04 Created by KiCad (PCBNEW 9.0.9-9.0.9~ubuntu22.04.1) date 2026-09-16 14:09:40*
%MOMM*%
%LPD*%
G01*
G04 APERTURE LIST*
G04 Aperture macros list*
%AMRoundRect*
0 Rectangle with rounded corners*
0 $1 Rounding radius*
0 $2 $3 $4 $5 $6 $7 $8 $9 X,Y pos of 4 corners*
0 Add a 4 corners polygon primitive as box body*
4,1,4,$2,$3,$4,$5,$6,$7,$8,$9,$2,$3,0*
0 Add four circle primitives for the rounded corners*
1,1,$1+$1,$2,$3*
1,1,$1+$1,$4,$5*
1,1,$1+$1,$6,$7*
1,1,$1+$1,$8,$9*
0 Add four rect primitives between the rounded corners*
20,1,$1+$1,$2,$3,$4,$5,0*
20,1,$1+$1,$4,$5,$6,$7,0*
20,1,$1+$1,$6,$7,$8,$9,0*
20,1,$1+$1,$8,$9,$2,$3,0*%
G04 Aperture macros list end*
%ADD10RoundRect,0.079500X-0.079500X-0.100500X0.079500X-0.100500X0.079500X0.100500X-0.079500X0.100500X0*%
%ADD11R,0.600000X0.600000*%
%ADD12R,0.500000X0.500000*%
%ADD13RoundRect,0.140000X-0.140000X-0.170000X0.140000X-0.170000X0.140000X0.170000X-0.140000X0.170000X0*%
%ADD14RoundRect,0.218750X-0.218750X-0.256250X0.218750X-0.256250X0.218750X0.256250X-0.218750X0.256250X0*%
%ADD15RoundRect,0.140000X0.140000X0.170000X-0.140000X0.170000X-0.140000X-0.170000X0.140000X-0.170000X0*%
%ADD16R,2.400000X0.740000*%
%ADD17R,0.550000X1.500000*%
%ADD18RoundRect,0.250000X0.625000X-0.375000X0.625000X0.375000X-0.625000X0.375000X-0.625000X-0.375000X0*%
%ADD19R,0.250000X0.400000*%
%ADD20R,0.700000X0.500000*%
%ADD21RoundRect,0.250000X-0.250000X-0.475000X0.250000X-0.475000X0.250000X0.475000X-0.250000X0.475000X0*%
%ADD22RoundRect,0.135000X0.135000X0.185000X-0.135000X0.185000X-0.135000X-0.185000X0.135000X-0.185000X0*%
%ADD23RoundRect,0.147500X-0.147500X-0.172500X0.147500X-0.172500X0.147500X0.172500X-0.147500X0.172500X0*%
%ADD24RoundRect,0.135000X0.185000X-0.135000X0.185000X0.135000X-0.185000X0.135000X-0.185000X-0.135000X0*%
%ADD25RoundRect,0.135000X-0.135000X-0.185000X0.135000X-0.185000X0.135000X0.185000X-0.135000X0.185000X0*%
%ADD26RoundRect,0.250000X-0.625000X0.312500X-0.625000X-0.312500X0.625000X-0.312500X0.625000X0.312500X0*%
%ADD27RoundRect,0.147500X0.147500X0.172500X-0.147500X0.172500X-0.147500X-0.172500X0.147500X-0.172500X0*%
%ADD28RoundRect,0.140000X-0.170000X0.140000X-0.170000X-0.140000X0.170000X-0.140000X0.170000X0.140000X0*%
%ADD29R,0.900000X0.700000*%
%ADD30R,0.700000X0.700000*%
%ADD31R,1.200000X0.650000*%
%ADD32R,0.450000X2.900000*%
%ADD33R,0.450000X1.900000*%
%ADD34R,0.450000X2.400000*%
%ADD35R,1.400000X0.500000*%
%ADD36R,0.300000X0.600000*%
%ADD37R,0.750000X0.700000*%
%ADD38RoundRect,0.218750X0.381250X-0.218750X0.381250X0.218750X-0.381250X0.218750X-0.381250X-0.218750X0*%
%ADD39RoundRect,0.079500X0.079500X0.100500X-0.079500X0.100500X-0.079500X-0.100500X0.079500X-0.100500X0*%
%ADD40RoundRect,0.079500X0.100500X-0.079500X0.100500X0.079500X-0.100500X0.079500X-0.100500X-0.079500X0*%
%ADD41RoundRect,0.150000X-0.512500X-0.150000X0.512500X-0.150000X0.512500X0.150000X-0.512500X0.150000X0*%
%ADD42RoundRect,0.250000X-0.250000X0.275000X-0.250000X-0.275000X0.250000X-0.275000X0.250000X0.275000X0*%
%ADD43RoundRect,0.250000X-0.275000X0.850000X-0.275000X-0.850000X0.275000X-0.850000X0.275000X0.850000X0*%
%ADD44RoundRect,0.036000X0.364000X0.114000X-0.364000X0.114000X-0.364000X-0.114000X0.364000X-0.114000X0*%
%ADD45RoundRect,0.036000X0.114000X0.364000X-0.114000X0.364000X-0.114000X-0.364000X0.114000X-0.364000X0*%
%ADD46RoundRect,0.075000X0.075000X0.075000X-0.075000X0.075000X-0.075000X-0.075000X0.075000X-0.075000X0*%
%ADD47RoundRect,0.200000X0.200000X0.200000X-0.200000X0.200000X-0.200000X-0.200000X0.200000X-0.200000X0*%
%ADD48RoundRect,0.200000X0.600000X0.200000X-0.600000X0.200000X-0.600000X-0.200000X0.600000X-0.200000X0*%
%ADD49RoundRect,0.218750X0.256250X-0.218750X0.256250X0.218750X-0.256250X0.218750X-0.256250X-0.218750X0*%
%ADD50RoundRect,0.250000X-1.000000X-0.650000X1.000000X-0.650000X1.000000X0.650000X-1.000000X0.650000X0*%
%ADD51RoundRect,0.250000X0.475000X-0.250000X0.475000X0.250000X-0.475000X0.250000X-0.475000X-0.250000X0*%
G04 APERTURE END LIST*
D10*
%TO.C,C38*%
X71655000Y-52000000D03*
X72345000Y-52000000D03*
%TD*%
D11*
%TO.C,J6*%
X8000000Y-60000000D03*
D12*
X7250000Y-59250000D03*
X7250000Y-60750000D03*
X8750000Y-59250000D03*
X8750000Y-60750000D03*
%TD*%
D13*
%TO.C,C11*%
X39520000Y-18000000D03*
X40480000Y-18000000D03*
%TD*%
D14*
%TO.C,D3*%
X75212500Y-8000000D03*
X76787500Y-8000000D03*
%TD*%
%TO.C,D4*%
X79212500Y-14000000D03*
X80787500Y-14000000D03*
%TD*%
D13*
%TO.C,C24*%
X19520000Y-56000000D03*
X20480000Y-56000000D03*
%TD*%
D15*
%TO.C,C34*%
X76480000Y-48000000D03*
X75520000Y-48000000D03*
%TD*%
D13*
%TO.C,C13*%
X48720000Y-29600000D03*
X49680000Y-29600000D03*
%TD*%
D16*
%TO.C,J8*%
X48050000Y-3460000D03*
X51950000Y-3460000D03*
X48050000Y-4730000D03*
X51950000Y-4730000D03*
X48050000Y-6000000D03*
X51950000Y-6000000D03*
X48050000Y-7270000D03*
X51950000Y-7270000D03*
X48050000Y-8540000D03*
X51950000Y-8540000D03*
%TD*%
D17*
%TO.C,SW1*%
X90375000Y-24000000D03*
X93625000Y-24000000D03*
%TD*%
D10*
%TO.C,C39*%
X45655000Y-16000000D03*
X46345000Y-16000000D03*
%TD*%
D13*
%TO.C,C23*%
X19520000Y-48000000D03*
X20480000Y-48000000D03*
%TD*%
D18*
%TO.C,F1*%
X48000000Y-15400000D03*
X48000000Y-12600000D03*
%TD*%
D19*
%TO.C,U4*%
X77350000Y-55400000D03*
X77750000Y-55400000D03*
X78250000Y-55400000D03*
X78650000Y-55400000D03*
X78650000Y-56600000D03*
X78250000Y-56600000D03*
X77750000Y-56600000D03*
X77350000Y-56600000D03*
D20*
X78000000Y-56000000D03*
%TD*%
D21*
%TO.C,C3*%
X53050000Y-26000000D03*
X54950000Y-26000000D03*
%TD*%
D13*
%TO.C,C29*%
X13520000Y-54000000D03*
X14480000Y-54000000D03*
%TD*%
%TO.C,C4*%
X50520000Y-35000000D03*
X51480000Y-35000000D03*
%TD*%
D10*
%TO.C,C37*%
X75655000Y-52000000D03*
X76345000Y-52000000D03*
%TD*%
%TO.C,R5*%
X101655000Y-26000000D03*
X102345000Y-26000000D03*
%TD*%
%TO.C,C9*%
X53655000Y-38000000D03*
X54345000Y-38000000D03*
%TD*%
D22*
%TO.C,R4*%
X28510000Y-22000000D03*
X27490000Y-22000000D03*
%TD*%
D10*
%TO.C,C10*%
X50655000Y-39000000D03*
X51345000Y-39000000D03*
%TD*%
D13*
%TO.C,C8*%
X53520000Y-32000000D03*
X54480000Y-32000000D03*
%TD*%
D10*
%TO.C,C35*%
X71655000Y-44000000D03*
X72345000Y-44000000D03*
%TD*%
D14*
%TO.C,D5*%
X85212500Y-14000000D03*
X86787500Y-14000000D03*
%TD*%
D13*
%TO.C,C28*%
X13520000Y-50000000D03*
X14480000Y-50000000D03*
%TD*%
D23*
%TO.C,L4*%
X17515000Y-38000000D03*
X18485000Y-38000000D03*
%TD*%
D14*
%TO.C,FB1*%
X47212500Y-18000000D03*
X48787500Y-18000000D03*
%TD*%
D24*
%TO.C,R3*%
X76000000Y-22510000D03*
X76000000Y-21490000D03*
%TD*%
D14*
%TO.C,D7*%
X97212500Y-14000000D03*
X98787500Y-14000000D03*
%TD*%
D10*
%TO.C,C14*%
X47655000Y-22000000D03*
X48345000Y-22000000D03*
%TD*%
D25*
%TO.C,R11*%
X85490000Y-18000000D03*
X86510000Y-18000000D03*
%TD*%
D17*
%TO.C,SW3*%
X78375000Y-24000000D03*
X81625000Y-24000000D03*
%TD*%
D11*
%TO.C,J3*%
X8000000Y-40000000D03*
D12*
X7250000Y-39250000D03*
X7250000Y-40750000D03*
X8750000Y-39250000D03*
X8750000Y-40750000D03*
%TD*%
D13*
%TO.C,C33*%
X75520000Y-44000000D03*
X76480000Y-44000000D03*
%TD*%
D26*
%TO.C,R2*%
X58000000Y-24537500D03*
X58000000Y-27462500D03*
%TD*%
D25*
%TO.C,R10*%
X79490000Y-18000000D03*
X80510000Y-18000000D03*
%TD*%
D10*
%TO.C,C5*%
X50655000Y-31000000D03*
X51345000Y-31000000D03*
%TD*%
D27*
%TO.C,L1*%
X22485000Y-32000000D03*
X21515000Y-32000000D03*
%TD*%
D28*
%TO.C,C30*%
X18000000Y-49520000D03*
X18000000Y-50480000D03*
%TD*%
D10*
%TO.C,C6*%
X50655000Y-27000000D03*
X51345000Y-27000000D03*
%TD*%
D29*
%TO.C,J7*%
X93460000Y-45540000D03*
X96000000Y-45540000D03*
X98540000Y-45540000D03*
X93460000Y-48710000D03*
X96000000Y-48710000D03*
X98540000Y-48710000D03*
D30*
X100270000Y-52040000D03*
D31*
X96550000Y-55715000D03*
D32*
X89445000Y-44840000D03*
D33*
X89445000Y-49690000D03*
D34*
X89445000Y-54840000D03*
D35*
X93800000Y-56790000D03*
D36*
X94780000Y-43690000D03*
X97220000Y-43690000D03*
D35*
X98220000Y-56790000D03*
D37*
X100095000Y-53840000D03*
D32*
X100595000Y-44840000D03*
D33*
X100595000Y-49690000D03*
%TD*%
D38*
%TO.C,FB4*%
X74000000Y-19062500D03*
X74000000Y-16937500D03*
%TD*%
D14*
%TO.C,FB3*%
X67212500Y-18000000D03*
X68787500Y-18000000D03*
%TD*%
D39*
%TO.C,C27*%
X22345000Y-35000000D03*
X21655000Y-35000000D03*
%TD*%
D25*
%TO.C,R14*%
X85490000Y-26000000D03*
X86510000Y-26000000D03*
%TD*%
D14*
%TO.C,D6*%
X91212500Y-14000000D03*
X92787500Y-14000000D03*
%TD*%
D21*
%TO.C,C7*%
X59050000Y-36000000D03*
X60950000Y-36000000D03*
%TD*%
D25*
%TO.C,R12*%
X91490000Y-18000000D03*
X92510000Y-18000000D03*
%TD*%
D10*
%TO.C,C36*%
X71655000Y-48000000D03*
X72345000Y-48000000D03*
%TD*%
D40*
%TO.C,R1*%
X50000000Y-22345000D03*
X50000000Y-21655000D03*
%TD*%
D13*
%TO.C,C32*%
X11520000Y-40000000D03*
X12480000Y-40000000D03*
%TD*%
D41*
%TO.C,U2*%
X72862500Y-39050000D03*
X72862500Y-40000000D03*
X72862500Y-40950000D03*
X75137500Y-40950000D03*
X75137500Y-39050000D03*
%TD*%
D42*
%TO.C,J5*%
X8000000Y-50950000D03*
D43*
X9475000Y-52475000D03*
X6525000Y-52475000D03*
%TD*%
D42*
%TO.C,J2*%
X8000000Y-30950000D03*
D43*
X9475000Y-32475000D03*
X6525000Y-32475000D03*
%TD*%
D14*
%TO.C,FB2*%
X57212500Y-18000000D03*
X58787500Y-18000000D03*
%TD*%
D44*
%TO.C,U1*%
X44000000Y-37000000D03*
X44000000Y-36500000D03*
X44000000Y-36000000D03*
X44000000Y-35500000D03*
X44000000Y-35000000D03*
X44000000Y-34500000D03*
X44000000Y-34000000D03*
X44000000Y-33500000D03*
X44000000Y-33000000D03*
X44000000Y-32500000D03*
X44000000Y-32000000D03*
X44000000Y-31500000D03*
X44000000Y-31000000D03*
X44000000Y-30500000D03*
X44000000Y-30000000D03*
X44000000Y-29500000D03*
X44000000Y-29000000D03*
X44000000Y-28500000D03*
X44000000Y-28000000D03*
X44000000Y-27500000D03*
X44000000Y-27000000D03*
D45*
X43250000Y-26750000D03*
X42750000Y-26750000D03*
X42250000Y-26750000D03*
X41750000Y-26750000D03*
X41250000Y-26750000D03*
X40750000Y-26750000D03*
X40250000Y-26750000D03*
X39750000Y-26750000D03*
X39250000Y-26750000D03*
X38750000Y-26750000D03*
X38250000Y-26750000D03*
X37750000Y-26750000D03*
X37250000Y-26750000D03*
X36750000Y-26750000D03*
X36250000Y-26750000D03*
X35750000Y-26750000D03*
X35250000Y-26750000D03*
X34750000Y-26750000D03*
X34250000Y-26750000D03*
X33750000Y-26750000D03*
X33250000Y-26750000D03*
X32750000Y-26750000D03*
X32250000Y-26750000D03*
X31750000Y-26750000D03*
X31250000Y-26750000D03*
X30750000Y-26750000D03*
X30250000Y-26750000D03*
X29750000Y-26750000D03*
X29250000Y-26750000D03*
X28750000Y-26750000D03*
D44*
X28000000Y-27000000D03*
X28000000Y-27500000D03*
X28000000Y-28000000D03*
X28000000Y-28500000D03*
X28000000Y-29000000D03*
X28000000Y-29500000D03*
X28000000Y-30000000D03*
X28000000Y-30500000D03*
X28000000Y-31000000D03*
D46*
X28250000Y-31500000D03*
D44*
X28000000Y-32000000D03*
X28000000Y-32500000D03*
D46*
X28250000Y-33000000D03*
D44*
X28000000Y-33500000D03*
X28000000Y-34000000D03*
D46*
X28250000Y-34500000D03*
D44*
X28000000Y-35000000D03*
X28000000Y-35500000D03*
X28000000Y-36000000D03*
X28000000Y-36500000D03*
X28000000Y-37000000D03*
D45*
X28750000Y-37250000D03*
X29250000Y-37250000D03*
X29750000Y-37250000D03*
X30250000Y-37250000D03*
X30750000Y-37250000D03*
X31250000Y-37250000D03*
X31750000Y-37250000D03*
X32250000Y-37250000D03*
X32750000Y-37250000D03*
X33250000Y-37250000D03*
X33750000Y-37250000D03*
X34250000Y-37250000D03*
X34750000Y-37250000D03*
X35250000Y-37250000D03*
X35750000Y-37250000D03*
X36250000Y-37250000D03*
X36750000Y-37250000D03*
X37250000Y-37250000D03*
X37750000Y-37250000D03*
X38250000Y-37250000D03*
X38750000Y-37250000D03*
X39250000Y-37250000D03*
X39750000Y-37250000D03*
X40250000Y-37250000D03*
X40750000Y-37250000D03*
X41250000Y-37250000D03*
X41750000Y-37250000D03*
X42250000Y-37250000D03*
X42750000Y-37250000D03*
X43250000Y-37250000D03*
D47*
X42000000Y-35200000D03*
X42000000Y-33600000D03*
X42000000Y-32000000D03*
X42000000Y-30400000D03*
X42000000Y-28800000D03*
X40000000Y-35200000D03*
X40000000Y-33600000D03*
X40000000Y-32000000D03*
X40000000Y-30400000D03*
X40000000Y-28800000D03*
X38000000Y-35200000D03*
X38000000Y-33600000D03*
X38000000Y-32000000D03*
X38000000Y-30400000D03*
X38000000Y-28800000D03*
X36000000Y-35200000D03*
X36000000Y-33600000D03*
X36000000Y-32000000D03*
X36000000Y-30400000D03*
X36000000Y-28800000D03*
X34000000Y-35200000D03*
X34000000Y-33600000D03*
X34000000Y-32000000D03*
X34000000Y-30400000D03*
X34000000Y-28800000D03*
X32000000Y-35200000D03*
X32000000Y-32000000D03*
X32000000Y-28800000D03*
D48*
X31000000Y-33600000D03*
X31000000Y-30400000D03*
D47*
X30000000Y-35200000D03*
X30000000Y-32000000D03*
X30000000Y-28800000D03*
D46*
X41750000Y-27650000D03*
X41250000Y-27650000D03*
X40750000Y-27650000D03*
X40250000Y-27650000D03*
X37750000Y-27650000D03*
X37250000Y-27650000D03*
X36750000Y-27650000D03*
X36250000Y-27650000D03*
X32750000Y-27650000D03*
X32250000Y-27650000D03*
X31750000Y-27650000D03*
X31250000Y-27650000D03*
X31250000Y-36350000D03*
X31750000Y-36350000D03*
X32250000Y-36350000D03*
X32750000Y-36350000D03*
X36250000Y-36350000D03*
X36750000Y-36350000D03*
X37250000Y-36350000D03*
X37750000Y-36350000D03*
X40250000Y-36350000D03*
X40750000Y-36350000D03*
X41250000Y-36350000D03*
X41750000Y-36350000D03*
%TD*%
D27*
%TO.C,L2*%
X20485000Y-33000000D03*
X19515000Y-33000000D03*
%TD*%
D49*
%TO.C,FB5*%
X14000000Y-46787500D03*
X14000000Y-45212500D03*
%TD*%
D50*
%TO.C,D2*%
X62000000Y-22000000D03*
X66000000Y-22000000D03*
%TD*%
D13*
%TO.C,C21*%
X19520000Y-28000000D03*
X20480000Y-28000000D03*
%TD*%
%TO.C,C31*%
X17520000Y-56000000D03*
X18480000Y-56000000D03*
%TD*%
D10*
%TO.C,C12*%
X44655000Y-18000000D03*
X45345000Y-18000000D03*
%TD*%
D51*
%TO.C,C1*%
X74000000Y-28950000D03*
X74000000Y-27050000D03*
%TD*%
D25*
%TO.C,R13*%
X97490000Y-18000000D03*
X98510000Y-18000000D03*
%TD*%
D15*
%TO.C,C2*%
X74480000Y-32000000D03*
X73520000Y-32000000D03*
%TD*%
D17*
%TO.C,SW2*%
X98375000Y-24000000D03*
X101625000Y-24000000D03*
%TD*%
D13*
%TO.C,C22*%
X19520000Y-36000000D03*
X20480000Y-36000000D03*
%TD*%
D50*
%TO.C,D1*%
X62000000Y-10000000D03*
X66000000Y-10000000D03*
%TD*%
M02*
