M48
; DRILL file {KiCad 9.0.9-9.0.9~ubuntu22.04.1} date 2026-09-16T14:09:40+0530
; FORMAT={-:-/ absolute / metric / decimal}
; #@! TF.CreationDate,2026-09-16T14:09:40+05:30
; #@! TF.GenerationSoftware,Kicad,Pcbnew,9.0.9-9.0.9~ubuntu22.04.1
; #@! TF.FileFunction,Plated,1,4,PTH
FMAT,2
METRIC
; #@! TA.AperFunction,Plated,PTH,ViaDrill
T1C0.300
; #@! TA.AperFunction,Plated,PTH,ViaDrill
T2C0.400
; #@! TA.AperFunction,Plated,PTH,ComponentDrill
T3C0.650
; #@! TA.AperFunction,Plated,PTH,ComponentDrill
T4C1.000
%
G90
G05
T1
X2.0Y-23.0
X2.0Y-26.0
X2.0Y-29.0
X2.0Y-32.0
X2.0Y-35.0
X2.0Y-38.0
X2.0Y-41.0
X2.0Y-43.0
X2.0Y-46.0
X5.0Y-23.0
X5.0Y-26.0
X5.0Y-29.0
X5.0Y-32.0
X5.0Y-35.0
X5.0Y-38.0
X5.0Y-41.0
X8.0Y-23.0
X8.0Y-26.0
X8.0Y-35.0
X8.0Y-38.0
X10.0Y-10.0
X10.0Y-70.0
X11.0Y-23.0
X11.0Y-26.0
X14.0Y-23.0
X14.0Y-26.0
X14.0Y-41.0
X17.0Y-23.0
X17.0Y-26.0
X17.0Y-29.0
X17.0Y-38.0
X17.0Y-41.0
X20.0Y-10.0
X25.6Y-23.1
X26.75Y-23.1
X29.81Y-22.0
X30.0Y-10.0
X30.0Y-20.0
X30.0Y-29.0
X30.0Y-32.0
X30.0Y-35.0
X30.0Y-40.0
X30.0Y-50.0
X30.0Y-60.0
X30.25Y-23.1
X31.25Y-23.1
X33.0Y-29.0
X33.0Y-32.0
X33.0Y-35.0
X33.25Y-23.1
X33.75Y-41.1
X34.75Y-23.1
X35.25Y-41.1
X35.75Y-23.1
X36.0Y-29.0
X36.0Y-32.0
X36.0Y-35.0
X36.25Y-41.1
X37.25Y-23.1
X37.75Y-41.1
X38.25Y-23.1
X38.75Y-41.1
X39.0Y-29.0
X39.0Y-32.0
X39.0Y-35.0
X39.25Y-23.1
X39.75Y-41.1
X40.0Y-50.0
X40.25Y-23.1
X40.75Y-41.1
X41.75Y-23.1
X41.75Y-41.1
X42.0Y-29.0
X42.0Y-32.0
X42.0Y-35.0
X42.75Y-23.1
X42.75Y-41.1
X46.2Y-30.0
X47.4Y-27.5
X47.4Y-28.5
X47.4Y-35.5
X47.4Y-36.5
X48.65Y-21.126
X50.0Y-10.0
X53.65Y-4.73
X53.65Y-6.0
X53.65Y-7.27
X60.0Y-10.0
X60.0Y-40.0
X60.0Y-50.0
X63.3Y-6.0
X70.0Y-40.0
X70.0Y-50.0
X73.3Y-36.0
X76.17Y-45.126
X76.624Y-56.05
X76.7Y-57.726
X78.4Y-57.726
X79.3Y-36.0
X79.376Y-56.05
X80.0Y-10.0
X80.0Y-30.0
X80.0Y-40.0
X80.0Y-47.126
X80.0Y-50.0
X80.14Y-19.126
X85.3Y-36.0
X86.14Y-19.126
X90.0Y-10.0
X90.0Y-30.0
X91.675Y-24.0
X92.14Y-19.126
X94.76Y-45.54
X97.3Y-45.54
X98.14Y-19.126
X98.54Y-50.01
X99.19Y-46.666
X99.675Y-24.0
X100.0Y-10.0
X100.0Y-20.0
X100.0Y-30.0
X100.0Y-40.0
X100.0Y-50.0
X103.3Y-36.0
X110.0Y-10.0
X110.0Y-20.0
X110.0Y-30.0
X110.0Y-40.0
X110.0Y-50.0
X110.0Y-60.0
X110.0Y-70.0
T2
X40.17Y-19.126
X44.788Y-16.6
X49.3Y-12.6
X49.438Y-16.874
X49.75Y-3.46
X52.22Y-32.0
X53.7Y-27.126
X55.35Y-13.3
X56.087Y-17.35
X57.95Y-12.0
X58.137Y-16.874
X59.3Y-22.0
X59.3Y-27.462
X59.7Y-37.126
X61.3Y-42.0
X63.3Y-10.0
X67.212Y-16.3
X68.137Y-16.874
X69.3Y-30.0
X71.3Y-8.0
X71.562Y-39.05
X71.575Y-17.662
X76.438Y-39.05
X79.3Y-32.0
X87.81Y-26.0
T3
X104.0Y-48.0
X104.0Y-49.27
X104.0Y-50.54
X104.0Y-51.81
X104.0Y-53.08
X104.0Y-54.35
X104.0Y-62.0
X104.0Y-63.27
X104.0Y-64.54
X104.0Y-65.81
X104.0Y-67.08
X104.0Y-68.35
T4
X6.0Y-76.0
X8.54Y-76.0
X11.08Y-76.0
X13.62Y-76.0
X16.16Y-76.0
X18.7Y-76.0
X21.24Y-76.0
X23.78Y-76.0
X26.32Y-76.0
X28.86Y-76.0
X31.4Y-76.0
X33.94Y-76.0
X36.48Y-76.0
X38.0Y-62.0
X39.02Y-76.0
X40.54Y-62.0
X41.56Y-76.0
X43.08Y-62.0
X44.1Y-76.0
X45.62Y-62.0
X46.64Y-76.0
X48.16Y-62.0
X49.18Y-76.0
X50.7Y-62.0
X51.72Y-76.0
X53.24Y-62.0
X54.26Y-76.0
X55.78Y-62.0
X58.32Y-62.0
X60.86Y-62.0
X64.0Y-76.0
X66.54Y-76.0
X69.08Y-76.0
X71.62Y-76.0
X74.16Y-76.0
X76.7Y-76.0
X79.24Y-76.0
X81.78Y-76.0
X82.0Y-6.0
X82.0Y-8.54
X84.32Y-76.0
X86.86Y-76.0
X89.4Y-76.0
X91.94Y-76.0
X94.48Y-76.0
X97.02Y-76.0
X99.56Y-76.0
X102.1Y-76.0
X104.64Y-76.0
X107.18Y-76.0
X108.0Y-8.0
X108.0Y-10.54
X108.0Y-13.08
X108.0Y-15.62
X108.0Y-18.16
X108.0Y-20.7
X108.0Y-26.0
X108.0Y-28.54
X108.0Y-31.08
X108.0Y-33.62
X109.72Y-76.0
X112.26Y-76.0
X116.0Y-8.0
X116.0Y-10.54
X116.0Y-13.08
X116.0Y-15.62
X116.0Y-18.16
X116.0Y-20.7
X116.0Y-28.0
X116.0Y-30.54
X116.0Y-33.08
X116.0Y-35.62
X116.0Y-38.16
X116.0Y-40.7
X116.0Y-46.0
X116.0Y-48.54
X116.0Y-51.08
X116.0Y-53.62
M30
