%TF.GenerationSoftware,KiCad,Pcbnew,9.0.9-9.0.9~ubuntu22.04.1*%
%TF.CreationDate,2026-09-16T14:09:40+05:30*%
%TF.ProjectId,nRF9161-DEV-BOARD,6e524639-3136-4312-9d44-45562d424f41,rev?*%
%TF.SameCoordinates,Original*%
%TF.FileFunction,Soldermask,Bot*%
%TF.FilePolarity,Negative*%
%FSLAX46Y46*%
G04 Gerber Fmt 4.6, Leading zero omitted, Abs format (unit mm)*
G04 Created by KiCad (PCBNEW 9.0.9-9.0.9~ubuntu22.04.1) date 2026-09-16 14:09:40*
%MOMM*%
%LPD*%
G01*
G04 APERTURE LIST*
%ADD10R,1.700000X1.700000*%
%ADD11C,1.700000*%
%ADD12R,1.000000X1.000000*%
%ADD13C,1.000000*%
G04 APERTURE END LIST*
D10*
%TO.C,J18*%
X38000000Y-62000000D03*
D11*
X40540000Y-62000000D03*
X43080000Y-62000000D03*
X45620000Y-62000000D03*
X48160000Y-62000000D03*
X50700000Y-62000000D03*
X53240000Y-62000000D03*
X55780000Y-62000000D03*
X58320000Y-62000000D03*
X60860000Y-62000000D03*
%TD*%
D10*
%TO.C,J9*%
X116000000Y-8000000D03*
D11*
X116000000Y-10540000D03*
X116000000Y-13080000D03*
X116000000Y-15620000D03*
X116000000Y-18160000D03*
X116000000Y-20700000D03*
%TD*%
D10*
%TO.C,J12*%
X6000000Y-76000000D03*
D11*
X8540000Y-76000000D03*
X11080000Y-76000000D03*
X13620000Y-76000000D03*
X16160000Y-76000000D03*
X18700000Y-76000000D03*
X21240000Y-76000000D03*
X23780000Y-76000000D03*
X26320000Y-76000000D03*
X28860000Y-76000000D03*
X31400000Y-76000000D03*
X33940000Y-76000000D03*
X36480000Y-76000000D03*
X39020000Y-76000000D03*
X41560000Y-76000000D03*
X44100000Y-76000000D03*
X46640000Y-76000000D03*
X49180000Y-76000000D03*
X51720000Y-76000000D03*
X54260000Y-76000000D03*
%TD*%
D12*
%TO.C,J14*%
X104000000Y-48000000D03*
D13*
X104000000Y-49270000D03*
X104000000Y-50540000D03*
X104000000Y-51810000D03*
X104000000Y-53080000D03*
X104000000Y-54350000D03*
%TD*%
D10*
%TO.C,J10*%
X116000000Y-28000000D03*
D11*
X116000000Y-30540000D03*
X116000000Y-33080000D03*
X116000000Y-35620000D03*
X116000000Y-38160000D03*
X116000000Y-40700000D03*
%TD*%
D10*
%TO.C,J13*%
X64000000Y-76000000D03*
D11*
X66540000Y-76000000D03*
X69080000Y-76000000D03*
X71620000Y-76000000D03*
X74160000Y-76000000D03*
X76700000Y-76000000D03*
X79240000Y-76000000D03*
X81780000Y-76000000D03*
X84320000Y-76000000D03*
X86860000Y-76000000D03*
X89400000Y-76000000D03*
X91940000Y-76000000D03*
X94480000Y-76000000D03*
X97020000Y-76000000D03*
X99560000Y-76000000D03*
X102100000Y-76000000D03*
X104640000Y-76000000D03*
X107180000Y-76000000D03*
X109720000Y-76000000D03*
X112260000Y-76000000D03*
%TD*%
D10*
%TO.C,J11*%
X116000000Y-46000000D03*
D11*
X116000000Y-48540000D03*
X116000000Y-51080000D03*
X116000000Y-53620000D03*
%TD*%
D10*
%TO.C,J17*%
X108000000Y-26000000D03*
D11*
X108000000Y-28540000D03*
X108000000Y-31080000D03*
X108000000Y-33620000D03*
%TD*%
D12*
%TO.C,J15*%
X104000000Y-62000000D03*
D13*
X104000000Y-63270000D03*
X104000000Y-64540000D03*
X104000000Y-65810000D03*
X104000000Y-67080000D03*
X104000000Y-68350000D03*
%TD*%
D10*
%TO.C,J1*%
X82000000Y-6000000D03*
D11*
X82000000Y-8540000D03*
%TD*%
D10*
%TO.C,J16*%
X108000000Y-8000000D03*
D11*
X108000000Y-10540000D03*
X108000000Y-13080000D03*
X108000000Y-15620000D03*
X108000000Y-18160000D03*
X108000000Y-20700000D03*
%TD*%
M02*
