%TF.GenerationSoftware,KiCad,Pcbnew,9.0.9-9.0.9~ubuntu22.04.1*%
%TF.CreationDate,2026-09-16T12:56:54+05:30*%
%TF.ProjectId,nRF9161-DEV-BOARD,6e524639-3136-4312-9d44-45562d424f41,rev?*%
%TF.SameCoordinates,Original*%
%TF.FileFunction,AssemblyDrawing,Top*%
%FSLAX46Y46*%
G04 Gerber Fmt 4.6, Leading zero omitted, Abs format (unit mm)*
G04 Created by KiCad (PCBNEW 9.0.9-9.0.9~ubuntu22.04.1) date 2026-09-16 12:56:54*
%MOMM*%
%LPD*%
G01*
G04 APERTURE LIST*
%ADD10C,0.040000*%
%ADD11C,0.150000*%
%ADD12C,0.060000*%
%ADD13C,0.075000*%
%ADD14C,0.120000*%
%ADD15C,0.080000*%
%ADD16C,0.110000*%
%ADD17C,0.090000*%
%ADD18C,0.100000*%
G04 APERTURE END LIST*
D10*
X71839285Y-51409765D02*
X71827381Y-51421670D01*
X71827381Y-51421670D02*
X71791666Y-51433574D01*
X71791666Y-51433574D02*
X71767857Y-51433574D01*
X71767857Y-51433574D02*
X71732143Y-51421670D01*
X71732143Y-51421670D02*
X71708333Y-51397860D01*
X71708333Y-51397860D02*
X71696428Y-51374050D01*
X71696428Y-51374050D02*
X71684524Y-51326431D01*
X71684524Y-51326431D02*
X71684524Y-51290717D01*
X71684524Y-51290717D02*
X71696428Y-51243098D01*
X71696428Y-51243098D02*
X71708333Y-51219289D01*
X71708333Y-51219289D02*
X71732143Y-51195479D01*
X71732143Y-51195479D02*
X71767857Y-51183574D01*
X71767857Y-51183574D02*
X71791666Y-51183574D01*
X71791666Y-51183574D02*
X71827381Y-51195479D01*
X71827381Y-51195479D02*
X71839285Y-51207384D01*
X71922619Y-51183574D02*
X72077381Y-51183574D01*
X72077381Y-51183574D02*
X71994047Y-51278812D01*
X71994047Y-51278812D02*
X72029762Y-51278812D01*
X72029762Y-51278812D02*
X72053571Y-51290717D01*
X72053571Y-51290717D02*
X72065476Y-51302622D01*
X72065476Y-51302622D02*
X72077381Y-51326431D01*
X72077381Y-51326431D02*
X72077381Y-51385955D01*
X72077381Y-51385955D02*
X72065476Y-51409765D01*
X72065476Y-51409765D02*
X72053571Y-51421670D01*
X72053571Y-51421670D02*
X72029762Y-51433574D01*
X72029762Y-51433574D02*
X71958333Y-51433574D01*
X71958333Y-51433574D02*
X71934524Y-51421670D01*
X71934524Y-51421670D02*
X71922619Y-51409765D01*
X72220238Y-51290717D02*
X72196428Y-51278812D01*
X72196428Y-51278812D02*
X72184523Y-51266908D01*
X72184523Y-51266908D02*
X72172619Y-51243098D01*
X72172619Y-51243098D02*
X72172619Y-51231193D01*
X72172619Y-51231193D02*
X72184523Y-51207384D01*
X72184523Y-51207384D02*
X72196428Y-51195479D01*
X72196428Y-51195479D02*
X72220238Y-51183574D01*
X72220238Y-51183574D02*
X72267857Y-51183574D01*
X72267857Y-51183574D02*
X72291666Y-51195479D01*
X72291666Y-51195479D02*
X72303571Y-51207384D01*
X72303571Y-51207384D02*
X72315476Y-51231193D01*
X72315476Y-51231193D02*
X72315476Y-51243098D01*
X72315476Y-51243098D02*
X72303571Y-51266908D01*
X72303571Y-51266908D02*
X72291666Y-51278812D01*
X72291666Y-51278812D02*
X72267857Y-51290717D01*
X72267857Y-51290717D02*
X72220238Y-51290717D01*
X72220238Y-51290717D02*
X72196428Y-51302622D01*
X72196428Y-51302622D02*
X72184523Y-51314527D01*
X72184523Y-51314527D02*
X72172619Y-51338336D01*
X72172619Y-51338336D02*
X72172619Y-51385955D01*
X72172619Y-51385955D02*
X72184523Y-51409765D01*
X72184523Y-51409765D02*
X72196428Y-51421670D01*
X72196428Y-51421670D02*
X72220238Y-51433574D01*
X72220238Y-51433574D02*
X72267857Y-51433574D01*
X72267857Y-51433574D02*
X72291666Y-51421670D01*
X72291666Y-51421670D02*
X72303571Y-51409765D01*
X72303571Y-51409765D02*
X72315476Y-51385955D01*
X72315476Y-51385955D02*
X72315476Y-51338336D01*
X72315476Y-51338336D02*
X72303571Y-51314527D01*
X72303571Y-51314527D02*
X72291666Y-51302622D01*
X72291666Y-51302622D02*
X72267857Y-51290717D01*
D11*
X48620476Y-61454819D02*
X48620476Y-62169104D01*
X48620476Y-62169104D02*
X48572857Y-62311961D01*
X48572857Y-62311961D02*
X48477619Y-62407200D01*
X48477619Y-62407200D02*
X48334762Y-62454819D01*
X48334762Y-62454819D02*
X48239524Y-62454819D01*
X49620476Y-62454819D02*
X49049048Y-62454819D01*
X49334762Y-62454819D02*
X49334762Y-61454819D01*
X49334762Y-61454819D02*
X49239524Y-61597676D01*
X49239524Y-61597676D02*
X49144286Y-61692914D01*
X49144286Y-61692914D02*
X49049048Y-61740533D01*
X50191905Y-61883390D02*
X50096667Y-61835771D01*
X50096667Y-61835771D02*
X50049048Y-61788152D01*
X50049048Y-61788152D02*
X50001429Y-61692914D01*
X50001429Y-61692914D02*
X50001429Y-61645295D01*
X50001429Y-61645295D02*
X50049048Y-61550057D01*
X50049048Y-61550057D02*
X50096667Y-61502438D01*
X50096667Y-61502438D02*
X50191905Y-61454819D01*
X50191905Y-61454819D02*
X50382381Y-61454819D01*
X50382381Y-61454819D02*
X50477619Y-61502438D01*
X50477619Y-61502438D02*
X50525238Y-61550057D01*
X50525238Y-61550057D02*
X50572857Y-61645295D01*
X50572857Y-61645295D02*
X50572857Y-61692914D01*
X50572857Y-61692914D02*
X50525238Y-61788152D01*
X50525238Y-61788152D02*
X50477619Y-61835771D01*
X50477619Y-61835771D02*
X50382381Y-61883390D01*
X50382381Y-61883390D02*
X50191905Y-61883390D01*
X50191905Y-61883390D02*
X50096667Y-61931009D01*
X50096667Y-61931009D02*
X50049048Y-61978628D01*
X50049048Y-61978628D02*
X50001429Y-62073866D01*
X50001429Y-62073866D02*
X50001429Y-62264342D01*
X50001429Y-62264342D02*
X50049048Y-62359580D01*
X50049048Y-62359580D02*
X50096667Y-62407200D01*
X50096667Y-62407200D02*
X50191905Y-62454819D01*
X50191905Y-62454819D02*
X50382381Y-62454819D01*
X50382381Y-62454819D02*
X50477619Y-62407200D01*
X50477619Y-62407200D02*
X50525238Y-62359580D01*
X50525238Y-62359580D02*
X50572857Y-62264342D01*
X50572857Y-62264342D02*
X50572857Y-62073866D01*
X50572857Y-62073866D02*
X50525238Y-61978628D01*
X50525238Y-61978628D02*
X50477619Y-61931009D01*
X50477619Y-61931009D02*
X50382381Y-61883390D01*
D10*
X39839285Y-18089765D02*
X39827381Y-18101670D01*
X39827381Y-18101670D02*
X39791666Y-18113574D01*
X39791666Y-18113574D02*
X39767857Y-18113574D01*
X39767857Y-18113574D02*
X39732143Y-18101670D01*
X39732143Y-18101670D02*
X39708333Y-18077860D01*
X39708333Y-18077860D02*
X39696428Y-18054050D01*
X39696428Y-18054050D02*
X39684524Y-18006431D01*
X39684524Y-18006431D02*
X39684524Y-17970717D01*
X39684524Y-17970717D02*
X39696428Y-17923098D01*
X39696428Y-17923098D02*
X39708333Y-17899289D01*
X39708333Y-17899289D02*
X39732143Y-17875479D01*
X39732143Y-17875479D02*
X39767857Y-17863574D01*
X39767857Y-17863574D02*
X39791666Y-17863574D01*
X39791666Y-17863574D02*
X39827381Y-17875479D01*
X39827381Y-17875479D02*
X39839285Y-17887384D01*
X40077381Y-18113574D02*
X39934524Y-18113574D01*
X40005952Y-18113574D02*
X40005952Y-17863574D01*
X40005952Y-17863574D02*
X39982143Y-17899289D01*
X39982143Y-17899289D02*
X39958333Y-17923098D01*
X39958333Y-17923098D02*
X39934524Y-17935003D01*
X40315476Y-18113574D02*
X40172619Y-18113574D01*
X40244047Y-18113574D02*
X40244047Y-17863574D01*
X40244047Y-17863574D02*
X40220238Y-17899289D01*
X40220238Y-17899289D02*
X40196428Y-17923098D01*
X40196428Y-17923098D02*
X40172619Y-17935003D01*
D12*
X75704762Y-8181927D02*
X75704762Y-7781927D01*
X75704762Y-7781927D02*
X75800000Y-7781927D01*
X75800000Y-7781927D02*
X75857143Y-7800975D01*
X75857143Y-7800975D02*
X75895238Y-7839070D01*
X75895238Y-7839070D02*
X75914285Y-7877165D01*
X75914285Y-7877165D02*
X75933333Y-7953356D01*
X75933333Y-7953356D02*
X75933333Y-8010499D01*
X75933333Y-8010499D02*
X75914285Y-8086689D01*
X75914285Y-8086689D02*
X75895238Y-8124784D01*
X75895238Y-8124784D02*
X75857143Y-8162880D01*
X75857143Y-8162880D02*
X75800000Y-8181927D01*
X75800000Y-8181927D02*
X75704762Y-8181927D01*
X76066666Y-7781927D02*
X76314285Y-7781927D01*
X76314285Y-7781927D02*
X76180952Y-7934308D01*
X76180952Y-7934308D02*
X76238095Y-7934308D01*
X76238095Y-7934308D02*
X76276190Y-7953356D01*
X76276190Y-7953356D02*
X76295238Y-7972403D01*
X76295238Y-7972403D02*
X76314285Y-8010499D01*
X76314285Y-8010499D02*
X76314285Y-8105737D01*
X76314285Y-8105737D02*
X76295238Y-8143832D01*
X76295238Y-8143832D02*
X76276190Y-8162880D01*
X76276190Y-8162880D02*
X76238095Y-8181927D01*
X76238095Y-8181927D02*
X76123809Y-8181927D01*
X76123809Y-8181927D02*
X76085714Y-8162880D01*
X76085714Y-8162880D02*
X76066666Y-8143832D01*
X79704762Y-14181927D02*
X79704762Y-13781927D01*
X79704762Y-13781927D02*
X79800000Y-13781927D01*
X79800000Y-13781927D02*
X79857143Y-13800975D01*
X79857143Y-13800975D02*
X79895238Y-13839070D01*
X79895238Y-13839070D02*
X79914285Y-13877165D01*
X79914285Y-13877165D02*
X79933333Y-13953356D01*
X79933333Y-13953356D02*
X79933333Y-14010499D01*
X79933333Y-14010499D02*
X79914285Y-14086689D01*
X79914285Y-14086689D02*
X79895238Y-14124784D01*
X79895238Y-14124784D02*
X79857143Y-14162880D01*
X79857143Y-14162880D02*
X79800000Y-14181927D01*
X79800000Y-14181927D02*
X79704762Y-14181927D01*
X80276190Y-13915260D02*
X80276190Y-14181927D01*
X80180952Y-13762880D02*
X80085714Y-14048594D01*
X80085714Y-14048594D02*
X80333333Y-14048594D01*
D10*
X19839285Y-56089765D02*
X19827381Y-56101670D01*
X19827381Y-56101670D02*
X19791666Y-56113574D01*
X19791666Y-56113574D02*
X19767857Y-56113574D01*
X19767857Y-56113574D02*
X19732143Y-56101670D01*
X19732143Y-56101670D02*
X19708333Y-56077860D01*
X19708333Y-56077860D02*
X19696428Y-56054050D01*
X19696428Y-56054050D02*
X19684524Y-56006431D01*
X19684524Y-56006431D02*
X19684524Y-55970717D01*
X19684524Y-55970717D02*
X19696428Y-55923098D01*
X19696428Y-55923098D02*
X19708333Y-55899289D01*
X19708333Y-55899289D02*
X19732143Y-55875479D01*
X19732143Y-55875479D02*
X19767857Y-55863574D01*
X19767857Y-55863574D02*
X19791666Y-55863574D01*
X19791666Y-55863574D02*
X19827381Y-55875479D01*
X19827381Y-55875479D02*
X19839285Y-55887384D01*
X19934524Y-55887384D02*
X19946428Y-55875479D01*
X19946428Y-55875479D02*
X19970238Y-55863574D01*
X19970238Y-55863574D02*
X20029762Y-55863574D01*
X20029762Y-55863574D02*
X20053571Y-55875479D01*
X20053571Y-55875479D02*
X20065476Y-55887384D01*
X20065476Y-55887384D02*
X20077381Y-55911193D01*
X20077381Y-55911193D02*
X20077381Y-55935003D01*
X20077381Y-55935003D02*
X20065476Y-55970717D01*
X20065476Y-55970717D02*
X19922619Y-56113574D01*
X19922619Y-56113574D02*
X20077381Y-56113574D01*
X20291666Y-55946908D02*
X20291666Y-56113574D01*
X20232142Y-55851670D02*
X20172619Y-56030241D01*
X20172619Y-56030241D02*
X20327380Y-56030241D01*
X75839285Y-48089765D02*
X75827381Y-48101670D01*
X75827381Y-48101670D02*
X75791666Y-48113574D01*
X75791666Y-48113574D02*
X75767857Y-48113574D01*
X75767857Y-48113574D02*
X75732143Y-48101670D01*
X75732143Y-48101670D02*
X75708333Y-48077860D01*
X75708333Y-48077860D02*
X75696428Y-48054050D01*
X75696428Y-48054050D02*
X75684524Y-48006431D01*
X75684524Y-48006431D02*
X75684524Y-47970717D01*
X75684524Y-47970717D02*
X75696428Y-47923098D01*
X75696428Y-47923098D02*
X75708333Y-47899289D01*
X75708333Y-47899289D02*
X75732143Y-47875479D01*
X75732143Y-47875479D02*
X75767857Y-47863574D01*
X75767857Y-47863574D02*
X75791666Y-47863574D01*
X75791666Y-47863574D02*
X75827381Y-47875479D01*
X75827381Y-47875479D02*
X75839285Y-47887384D01*
X75922619Y-47863574D02*
X76077381Y-47863574D01*
X76077381Y-47863574D02*
X75994047Y-47958812D01*
X75994047Y-47958812D02*
X76029762Y-47958812D01*
X76029762Y-47958812D02*
X76053571Y-47970717D01*
X76053571Y-47970717D02*
X76065476Y-47982622D01*
X76065476Y-47982622D02*
X76077381Y-48006431D01*
X76077381Y-48006431D02*
X76077381Y-48065955D01*
X76077381Y-48065955D02*
X76065476Y-48089765D01*
X76065476Y-48089765D02*
X76053571Y-48101670D01*
X76053571Y-48101670D02*
X76029762Y-48113574D01*
X76029762Y-48113574D02*
X75958333Y-48113574D01*
X75958333Y-48113574D02*
X75934524Y-48101670D01*
X75934524Y-48101670D02*
X75922619Y-48089765D01*
X76291666Y-47946908D02*
X76291666Y-48113574D01*
X76232142Y-47851670D02*
X76172619Y-48030241D01*
X76172619Y-48030241D02*
X76327380Y-48030241D01*
D11*
X58261905Y-27804819D02*
X58833333Y-27804819D01*
X58547619Y-28804819D02*
X58547619Y-27804819D01*
X59166667Y-28804819D02*
X59166667Y-27804819D01*
X59166667Y-27804819D02*
X59547619Y-27804819D01*
X59547619Y-27804819D02*
X59642857Y-27852438D01*
X59642857Y-27852438D02*
X59690476Y-27900057D01*
X59690476Y-27900057D02*
X59738095Y-27995295D01*
X59738095Y-27995295D02*
X59738095Y-28138152D01*
X59738095Y-28138152D02*
X59690476Y-28233390D01*
X59690476Y-28233390D02*
X59642857Y-28281009D01*
X59642857Y-28281009D02*
X59547619Y-28328628D01*
X59547619Y-28328628D02*
X59166667Y-28328628D01*
X60690476Y-28804819D02*
X60119048Y-28804819D01*
X60404762Y-28804819D02*
X60404762Y-27804819D01*
X60404762Y-27804819D02*
X60309524Y-27947676D01*
X60309524Y-27947676D02*
X60214286Y-28042914D01*
X60214286Y-28042914D02*
X60119048Y-28090533D01*
X61642857Y-28804819D02*
X61071429Y-28804819D01*
X61357143Y-28804819D02*
X61357143Y-27804819D01*
X61357143Y-27804819D02*
X61261905Y-27947676D01*
X61261905Y-27947676D02*
X61166667Y-28042914D01*
X61166667Y-28042914D02*
X61071429Y-28090533D01*
X76738095Y-34004819D02*
X77309523Y-34004819D01*
X77023809Y-35004819D02*
X77023809Y-34004819D01*
X77642857Y-35004819D02*
X77642857Y-34004819D01*
X77642857Y-34004819D02*
X78023809Y-34004819D01*
X78023809Y-34004819D02*
X78119047Y-34052438D01*
X78119047Y-34052438D02*
X78166666Y-34100057D01*
X78166666Y-34100057D02*
X78214285Y-34195295D01*
X78214285Y-34195295D02*
X78214285Y-34338152D01*
X78214285Y-34338152D02*
X78166666Y-34433390D01*
X78166666Y-34433390D02*
X78119047Y-34481009D01*
X78119047Y-34481009D02*
X78023809Y-34528628D01*
X78023809Y-34528628D02*
X77642857Y-34528628D01*
X79071428Y-34338152D02*
X79071428Y-35004819D01*
X78833333Y-33957200D02*
X78595238Y-34671485D01*
X78595238Y-34671485D02*
X79214285Y-34671485D01*
D10*
X39839285Y-23089765D02*
X39827381Y-23101670D01*
X39827381Y-23101670D02*
X39791666Y-23113574D01*
X39791666Y-23113574D02*
X39767857Y-23113574D01*
X39767857Y-23113574D02*
X39732143Y-23101670D01*
X39732143Y-23101670D02*
X39708333Y-23077860D01*
X39708333Y-23077860D02*
X39696428Y-23054050D01*
X39696428Y-23054050D02*
X39684524Y-23006431D01*
X39684524Y-23006431D02*
X39684524Y-22970717D01*
X39684524Y-22970717D02*
X39696428Y-22923098D01*
X39696428Y-22923098D02*
X39708333Y-22899289D01*
X39708333Y-22899289D02*
X39732143Y-22875479D01*
X39732143Y-22875479D02*
X39767857Y-22863574D01*
X39767857Y-22863574D02*
X39791666Y-22863574D01*
X39791666Y-22863574D02*
X39827381Y-22875479D01*
X39827381Y-22875479D02*
X39839285Y-22887384D01*
X40077381Y-23113574D02*
X39934524Y-23113574D01*
X40005952Y-23113574D02*
X40005952Y-22863574D01*
X40005952Y-22863574D02*
X39982143Y-22899289D01*
X39982143Y-22899289D02*
X39958333Y-22923098D01*
X39958333Y-22923098D02*
X39934524Y-22935003D01*
X40160714Y-22863574D02*
X40315476Y-22863574D01*
X40315476Y-22863574D02*
X40232142Y-22958812D01*
X40232142Y-22958812D02*
X40267857Y-22958812D01*
X40267857Y-22958812D02*
X40291666Y-22970717D01*
X40291666Y-22970717D02*
X40303571Y-22982622D01*
X40303571Y-22982622D02*
X40315476Y-23006431D01*
X40315476Y-23006431D02*
X40315476Y-23065955D01*
X40315476Y-23065955D02*
X40303571Y-23089765D01*
X40303571Y-23089765D02*
X40291666Y-23101670D01*
X40291666Y-23101670D02*
X40267857Y-23113574D01*
X40267857Y-23113574D02*
X40196428Y-23113574D01*
X40196428Y-23113574D02*
X40172619Y-23101670D01*
X40172619Y-23101670D02*
X40160714Y-23089765D01*
D11*
X49454819Y-6333333D02*
X50169104Y-6333333D01*
X50169104Y-6333333D02*
X50311961Y-6380952D01*
X50311961Y-6380952D02*
X50407200Y-6476190D01*
X50407200Y-6476190D02*
X50454819Y-6619047D01*
X50454819Y-6619047D02*
X50454819Y-6714285D01*
X49883390Y-5714285D02*
X49835771Y-5809523D01*
X49835771Y-5809523D02*
X49788152Y-5857142D01*
X49788152Y-5857142D02*
X49692914Y-5904761D01*
X49692914Y-5904761D02*
X49645295Y-5904761D01*
X49645295Y-5904761D02*
X49550057Y-5857142D01*
X49550057Y-5857142D02*
X49502438Y-5809523D01*
X49502438Y-5809523D02*
X49454819Y-5714285D01*
X49454819Y-5714285D02*
X49454819Y-5523809D01*
X49454819Y-5523809D02*
X49502438Y-5428571D01*
X49502438Y-5428571D02*
X49550057Y-5380952D01*
X49550057Y-5380952D02*
X49645295Y-5333333D01*
X49645295Y-5333333D02*
X49692914Y-5333333D01*
X49692914Y-5333333D02*
X49788152Y-5380952D01*
X49788152Y-5380952D02*
X49835771Y-5428571D01*
X49835771Y-5428571D02*
X49883390Y-5523809D01*
X49883390Y-5523809D02*
X49883390Y-5714285D01*
X49883390Y-5714285D02*
X49931009Y-5809523D01*
X49931009Y-5809523D02*
X49978628Y-5857142D01*
X49978628Y-5857142D02*
X50073866Y-5904761D01*
X50073866Y-5904761D02*
X50264342Y-5904761D01*
X50264342Y-5904761D02*
X50359580Y-5857142D01*
X50359580Y-5857142D02*
X50407200Y-5809523D01*
X50407200Y-5809523D02*
X50454819Y-5714285D01*
X50454819Y-5714285D02*
X50454819Y-5523809D01*
X50454819Y-5523809D02*
X50407200Y-5428571D01*
X50407200Y-5428571D02*
X50359580Y-5380952D01*
X50359580Y-5380952D02*
X50264342Y-5333333D01*
X50264342Y-5333333D02*
X50073866Y-5333333D01*
X50073866Y-5333333D02*
X49978628Y-5380952D01*
X49978628Y-5380952D02*
X49931009Y-5428571D01*
X49931009Y-5428571D02*
X49883390Y-5523809D01*
D13*
X91333334Y-24203600D02*
X91404762Y-24227409D01*
X91404762Y-24227409D02*
X91523810Y-24227409D01*
X91523810Y-24227409D02*
X91571429Y-24203600D01*
X91571429Y-24203600D02*
X91595238Y-24179790D01*
X91595238Y-24179790D02*
X91619048Y-24132171D01*
X91619048Y-24132171D02*
X91619048Y-24084552D01*
X91619048Y-24084552D02*
X91595238Y-24036933D01*
X91595238Y-24036933D02*
X91571429Y-24013123D01*
X91571429Y-24013123D02*
X91523810Y-23989314D01*
X91523810Y-23989314D02*
X91428572Y-23965504D01*
X91428572Y-23965504D02*
X91380953Y-23941695D01*
X91380953Y-23941695D02*
X91357143Y-23917885D01*
X91357143Y-23917885D02*
X91333334Y-23870266D01*
X91333334Y-23870266D02*
X91333334Y-23822647D01*
X91333334Y-23822647D02*
X91357143Y-23775028D01*
X91357143Y-23775028D02*
X91380953Y-23751219D01*
X91380953Y-23751219D02*
X91428572Y-23727409D01*
X91428572Y-23727409D02*
X91547619Y-23727409D01*
X91547619Y-23727409D02*
X91619048Y-23751219D01*
X91785714Y-23727409D02*
X91904762Y-24227409D01*
X91904762Y-24227409D02*
X92000000Y-23870266D01*
X92000000Y-23870266D02*
X92095238Y-24227409D01*
X92095238Y-24227409D02*
X92214286Y-23727409D01*
X92666667Y-24227409D02*
X92380953Y-24227409D01*
X92523810Y-24227409D02*
X92523810Y-23727409D01*
X92523810Y-23727409D02*
X92476191Y-23798838D01*
X92476191Y-23798838D02*
X92428572Y-23846457D01*
X92428572Y-23846457D02*
X92380953Y-23870266D01*
D10*
X45839285Y-19409765D02*
X45827381Y-19421670D01*
X45827381Y-19421670D02*
X45791666Y-19433574D01*
X45791666Y-19433574D02*
X45767857Y-19433574D01*
X45767857Y-19433574D02*
X45732143Y-19421670D01*
X45732143Y-19421670D02*
X45708333Y-19397860D01*
X45708333Y-19397860D02*
X45696428Y-19374050D01*
X45696428Y-19374050D02*
X45684524Y-19326431D01*
X45684524Y-19326431D02*
X45684524Y-19290717D01*
X45684524Y-19290717D02*
X45696428Y-19243098D01*
X45696428Y-19243098D02*
X45708333Y-19219289D01*
X45708333Y-19219289D02*
X45732143Y-19195479D01*
X45732143Y-19195479D02*
X45767857Y-19183574D01*
X45767857Y-19183574D02*
X45791666Y-19183574D01*
X45791666Y-19183574D02*
X45827381Y-19195479D01*
X45827381Y-19195479D02*
X45839285Y-19207384D01*
X45922619Y-19183574D02*
X46077381Y-19183574D01*
X46077381Y-19183574D02*
X45994047Y-19278812D01*
X45994047Y-19278812D02*
X46029762Y-19278812D01*
X46029762Y-19278812D02*
X46053571Y-19290717D01*
X46053571Y-19290717D02*
X46065476Y-19302622D01*
X46065476Y-19302622D02*
X46077381Y-19326431D01*
X46077381Y-19326431D02*
X46077381Y-19385955D01*
X46077381Y-19385955D02*
X46065476Y-19409765D01*
X46065476Y-19409765D02*
X46053571Y-19421670D01*
X46053571Y-19421670D02*
X46029762Y-19433574D01*
X46029762Y-19433574D02*
X45958333Y-19433574D01*
X45958333Y-19433574D02*
X45934524Y-19421670D01*
X45934524Y-19421670D02*
X45922619Y-19409765D01*
X46196428Y-19433574D02*
X46244047Y-19433574D01*
X46244047Y-19433574D02*
X46267857Y-19421670D01*
X46267857Y-19421670D02*
X46279761Y-19409765D01*
X46279761Y-19409765D02*
X46303571Y-19374050D01*
X46303571Y-19374050D02*
X46315476Y-19326431D01*
X46315476Y-19326431D02*
X46315476Y-19231193D01*
X46315476Y-19231193D02*
X46303571Y-19207384D01*
X46303571Y-19207384D02*
X46291666Y-19195479D01*
X46291666Y-19195479D02*
X46267857Y-19183574D01*
X46267857Y-19183574D02*
X46220238Y-19183574D01*
X46220238Y-19183574D02*
X46196428Y-19195479D01*
X46196428Y-19195479D02*
X46184523Y-19207384D01*
X46184523Y-19207384D02*
X46172619Y-19231193D01*
X46172619Y-19231193D02*
X46172619Y-19290717D01*
X46172619Y-19290717D02*
X46184523Y-19314527D01*
X46184523Y-19314527D02*
X46196428Y-19326431D01*
X46196428Y-19326431D02*
X46220238Y-19338336D01*
X46220238Y-19338336D02*
X46267857Y-19338336D01*
X46267857Y-19338336D02*
X46291666Y-19326431D01*
X46291666Y-19326431D02*
X46303571Y-19314527D01*
X46303571Y-19314527D02*
X46315476Y-19290717D01*
D11*
X115454819Y-14683333D02*
X116169104Y-14683333D01*
X116169104Y-14683333D02*
X116311961Y-14730952D01*
X116311961Y-14730952D02*
X116407200Y-14826190D01*
X116407200Y-14826190D02*
X116454819Y-14969047D01*
X116454819Y-14969047D02*
X116454819Y-15064285D01*
X116454819Y-14159523D02*
X116454819Y-13969047D01*
X116454819Y-13969047D02*
X116407200Y-13873809D01*
X116407200Y-13873809D02*
X116359580Y-13826190D01*
X116359580Y-13826190D02*
X116216723Y-13730952D01*
X116216723Y-13730952D02*
X116026247Y-13683333D01*
X116026247Y-13683333D02*
X115645295Y-13683333D01*
X115645295Y-13683333D02*
X115550057Y-13730952D01*
X115550057Y-13730952D02*
X115502438Y-13778571D01*
X115502438Y-13778571D02*
X115454819Y-13873809D01*
X115454819Y-13873809D02*
X115454819Y-14064285D01*
X115454819Y-14064285D02*
X115502438Y-14159523D01*
X115502438Y-14159523D02*
X115550057Y-14207142D01*
X115550057Y-14207142D02*
X115645295Y-14254761D01*
X115645295Y-14254761D02*
X115883390Y-14254761D01*
X115883390Y-14254761D02*
X115978628Y-14207142D01*
X115978628Y-14207142D02*
X116026247Y-14159523D01*
X116026247Y-14159523D02*
X116073866Y-14064285D01*
X116073866Y-14064285D02*
X116073866Y-13873809D01*
X116073866Y-13873809D02*
X116026247Y-13778571D01*
X116026247Y-13778571D02*
X115978628Y-13730952D01*
X115978628Y-13730952D02*
X115883390Y-13683333D01*
D10*
X19839285Y-48089765D02*
X19827381Y-48101670D01*
X19827381Y-48101670D02*
X19791666Y-48113574D01*
X19791666Y-48113574D02*
X19767857Y-48113574D01*
X19767857Y-48113574D02*
X19732143Y-48101670D01*
X19732143Y-48101670D02*
X19708333Y-48077860D01*
X19708333Y-48077860D02*
X19696428Y-48054050D01*
X19696428Y-48054050D02*
X19684524Y-48006431D01*
X19684524Y-48006431D02*
X19684524Y-47970717D01*
X19684524Y-47970717D02*
X19696428Y-47923098D01*
X19696428Y-47923098D02*
X19708333Y-47899289D01*
X19708333Y-47899289D02*
X19732143Y-47875479D01*
X19732143Y-47875479D02*
X19767857Y-47863574D01*
X19767857Y-47863574D02*
X19791666Y-47863574D01*
X19791666Y-47863574D02*
X19827381Y-47875479D01*
X19827381Y-47875479D02*
X19839285Y-47887384D01*
X19934524Y-47887384D02*
X19946428Y-47875479D01*
X19946428Y-47875479D02*
X19970238Y-47863574D01*
X19970238Y-47863574D02*
X20029762Y-47863574D01*
X20029762Y-47863574D02*
X20053571Y-47875479D01*
X20053571Y-47875479D02*
X20065476Y-47887384D01*
X20065476Y-47887384D02*
X20077381Y-47911193D01*
X20077381Y-47911193D02*
X20077381Y-47935003D01*
X20077381Y-47935003D02*
X20065476Y-47970717D01*
X20065476Y-47970717D02*
X19922619Y-48113574D01*
X19922619Y-48113574D02*
X20077381Y-48113574D01*
X20160714Y-47863574D02*
X20315476Y-47863574D01*
X20315476Y-47863574D02*
X20232142Y-47958812D01*
X20232142Y-47958812D02*
X20267857Y-47958812D01*
X20267857Y-47958812D02*
X20291666Y-47970717D01*
X20291666Y-47970717D02*
X20303571Y-47982622D01*
X20303571Y-47982622D02*
X20315476Y-48006431D01*
X20315476Y-48006431D02*
X20315476Y-48065955D01*
X20315476Y-48065955D02*
X20303571Y-48089765D01*
X20303571Y-48089765D02*
X20291666Y-48101670D01*
X20291666Y-48101670D02*
X20267857Y-48113574D01*
X20267857Y-48113574D02*
X20196428Y-48113574D01*
X20196428Y-48113574D02*
X20172619Y-48101670D01*
X20172619Y-48101670D02*
X20160714Y-48089765D01*
D14*
X47944807Y-14266666D02*
X47944807Y-14533332D01*
X48363855Y-14533332D02*
X47563855Y-14533332D01*
X47563855Y-14533332D02*
X47563855Y-14152380D01*
X48363855Y-13428571D02*
X48363855Y-13885714D01*
X48363855Y-13657142D02*
X47563855Y-13657142D01*
X47563855Y-13657142D02*
X47678140Y-13733333D01*
X47678140Y-13733333D02*
X47754331Y-13809523D01*
X47754331Y-13809523D02*
X47792426Y-13885714D01*
D15*
X53916666Y-26179530D02*
X53892857Y-26203340D01*
X53892857Y-26203340D02*
X53821428Y-26227149D01*
X53821428Y-26227149D02*
X53773809Y-26227149D01*
X53773809Y-26227149D02*
X53702381Y-26203340D01*
X53702381Y-26203340D02*
X53654762Y-26155720D01*
X53654762Y-26155720D02*
X53630952Y-26108101D01*
X53630952Y-26108101D02*
X53607143Y-26012863D01*
X53607143Y-26012863D02*
X53607143Y-25941435D01*
X53607143Y-25941435D02*
X53630952Y-25846197D01*
X53630952Y-25846197D02*
X53654762Y-25798578D01*
X53654762Y-25798578D02*
X53702381Y-25750959D01*
X53702381Y-25750959D02*
X53773809Y-25727149D01*
X53773809Y-25727149D02*
X53821428Y-25727149D01*
X53821428Y-25727149D02*
X53892857Y-25750959D01*
X53892857Y-25750959D02*
X53916666Y-25774768D01*
X54083333Y-25727149D02*
X54392857Y-25727149D01*
X54392857Y-25727149D02*
X54226190Y-25917625D01*
X54226190Y-25917625D02*
X54297619Y-25917625D01*
X54297619Y-25917625D02*
X54345238Y-25941435D01*
X54345238Y-25941435D02*
X54369047Y-25965244D01*
X54369047Y-25965244D02*
X54392857Y-26012863D01*
X54392857Y-26012863D02*
X54392857Y-26131911D01*
X54392857Y-26131911D02*
X54369047Y-26179530D01*
X54369047Y-26179530D02*
X54345238Y-26203340D01*
X54345238Y-26203340D02*
X54297619Y-26227149D01*
X54297619Y-26227149D02*
X54154762Y-26227149D01*
X54154762Y-26227149D02*
X54107143Y-26203340D01*
X54107143Y-26203340D02*
X54083333Y-26179530D01*
D11*
X82738095Y-34004819D02*
X83309523Y-34004819D01*
X83023809Y-35004819D02*
X83023809Y-34004819D01*
X83642857Y-35004819D02*
X83642857Y-34004819D01*
X83642857Y-34004819D02*
X84023809Y-34004819D01*
X84023809Y-34004819D02*
X84119047Y-34052438D01*
X84119047Y-34052438D02*
X84166666Y-34100057D01*
X84166666Y-34100057D02*
X84214285Y-34195295D01*
X84214285Y-34195295D02*
X84214285Y-34338152D01*
X84214285Y-34338152D02*
X84166666Y-34433390D01*
X84166666Y-34433390D02*
X84119047Y-34481009D01*
X84119047Y-34481009D02*
X84023809Y-34528628D01*
X84023809Y-34528628D02*
X83642857Y-34528628D01*
X85119047Y-34004819D02*
X84642857Y-34004819D01*
X84642857Y-34004819D02*
X84595238Y-34481009D01*
X84595238Y-34481009D02*
X84642857Y-34433390D01*
X84642857Y-34433390D02*
X84738095Y-34385771D01*
X84738095Y-34385771D02*
X84976190Y-34385771D01*
X84976190Y-34385771D02*
X85071428Y-34433390D01*
X85071428Y-34433390D02*
X85119047Y-34481009D01*
X85119047Y-34481009D02*
X85166666Y-34576247D01*
X85166666Y-34576247D02*
X85166666Y-34814342D01*
X85166666Y-34814342D02*
X85119047Y-34909580D01*
X85119047Y-34909580D02*
X85071428Y-34957200D01*
X85071428Y-34957200D02*
X84976190Y-35004819D01*
X84976190Y-35004819D02*
X84738095Y-35004819D01*
X84738095Y-35004819D02*
X84642857Y-34957200D01*
X84642857Y-34957200D02*
X84595238Y-34909580D01*
D10*
X13839285Y-54089765D02*
X13827381Y-54101670D01*
X13827381Y-54101670D02*
X13791666Y-54113574D01*
X13791666Y-54113574D02*
X13767857Y-54113574D01*
X13767857Y-54113574D02*
X13732143Y-54101670D01*
X13732143Y-54101670D02*
X13708333Y-54077860D01*
X13708333Y-54077860D02*
X13696428Y-54054050D01*
X13696428Y-54054050D02*
X13684524Y-54006431D01*
X13684524Y-54006431D02*
X13684524Y-53970717D01*
X13684524Y-53970717D02*
X13696428Y-53923098D01*
X13696428Y-53923098D02*
X13708333Y-53899289D01*
X13708333Y-53899289D02*
X13732143Y-53875479D01*
X13732143Y-53875479D02*
X13767857Y-53863574D01*
X13767857Y-53863574D02*
X13791666Y-53863574D01*
X13791666Y-53863574D02*
X13827381Y-53875479D01*
X13827381Y-53875479D02*
X13839285Y-53887384D01*
X13934524Y-53887384D02*
X13946428Y-53875479D01*
X13946428Y-53875479D02*
X13970238Y-53863574D01*
X13970238Y-53863574D02*
X14029762Y-53863574D01*
X14029762Y-53863574D02*
X14053571Y-53875479D01*
X14053571Y-53875479D02*
X14065476Y-53887384D01*
X14065476Y-53887384D02*
X14077381Y-53911193D01*
X14077381Y-53911193D02*
X14077381Y-53935003D01*
X14077381Y-53935003D02*
X14065476Y-53970717D01*
X14065476Y-53970717D02*
X13922619Y-54113574D01*
X13922619Y-54113574D02*
X14077381Y-54113574D01*
X14196428Y-54113574D02*
X14244047Y-54113574D01*
X14244047Y-54113574D02*
X14267857Y-54101670D01*
X14267857Y-54101670D02*
X14279761Y-54089765D01*
X14279761Y-54089765D02*
X14303571Y-54054050D01*
X14303571Y-54054050D02*
X14315476Y-54006431D01*
X14315476Y-54006431D02*
X14315476Y-53911193D01*
X14315476Y-53911193D02*
X14303571Y-53887384D01*
X14303571Y-53887384D02*
X14291666Y-53875479D01*
X14291666Y-53875479D02*
X14267857Y-53863574D01*
X14267857Y-53863574D02*
X14220238Y-53863574D01*
X14220238Y-53863574D02*
X14196428Y-53875479D01*
X14196428Y-53875479D02*
X14184523Y-53887384D01*
X14184523Y-53887384D02*
X14172619Y-53911193D01*
X14172619Y-53911193D02*
X14172619Y-53970717D01*
X14172619Y-53970717D02*
X14184523Y-53994527D01*
X14184523Y-53994527D02*
X14196428Y-54006431D01*
X14196428Y-54006431D02*
X14220238Y-54018336D01*
X14220238Y-54018336D02*
X14267857Y-54018336D01*
X14267857Y-54018336D02*
X14291666Y-54006431D01*
X14291666Y-54006431D02*
X14303571Y-53994527D01*
X14303571Y-53994527D02*
X14315476Y-53970717D01*
D11*
X50261905Y-19804819D02*
X50833333Y-19804819D01*
X50547619Y-20804819D02*
X50547619Y-19804819D01*
X51166667Y-20804819D02*
X51166667Y-19804819D01*
X51166667Y-19804819D02*
X51547619Y-19804819D01*
X51547619Y-19804819D02*
X51642857Y-19852438D01*
X51642857Y-19852438D02*
X51690476Y-19900057D01*
X51690476Y-19900057D02*
X51738095Y-19995295D01*
X51738095Y-19995295D02*
X51738095Y-20138152D01*
X51738095Y-20138152D02*
X51690476Y-20233390D01*
X51690476Y-20233390D02*
X51642857Y-20281009D01*
X51642857Y-20281009D02*
X51547619Y-20328628D01*
X51547619Y-20328628D02*
X51166667Y-20328628D01*
X52690476Y-20804819D02*
X52119048Y-20804819D01*
X52404762Y-20804819D02*
X52404762Y-19804819D01*
X52404762Y-19804819D02*
X52309524Y-19947676D01*
X52309524Y-19947676D02*
X52214286Y-20042914D01*
X52214286Y-20042914D02*
X52119048Y-20090533D01*
X53166667Y-20804819D02*
X53357143Y-20804819D01*
X53357143Y-20804819D02*
X53452381Y-20757200D01*
X53452381Y-20757200D02*
X53500000Y-20709580D01*
X53500000Y-20709580D02*
X53595238Y-20566723D01*
X53595238Y-20566723D02*
X53642857Y-20376247D01*
X53642857Y-20376247D02*
X53642857Y-19995295D01*
X53642857Y-19995295D02*
X53595238Y-19900057D01*
X53595238Y-19900057D02*
X53547619Y-19852438D01*
X53547619Y-19852438D02*
X53452381Y-19804819D01*
X53452381Y-19804819D02*
X53261905Y-19804819D01*
X53261905Y-19804819D02*
X53166667Y-19852438D01*
X53166667Y-19852438D02*
X53119048Y-19900057D01*
X53119048Y-19900057D02*
X53071429Y-19995295D01*
X53071429Y-19995295D02*
X53071429Y-20233390D01*
X53071429Y-20233390D02*
X53119048Y-20328628D01*
X53119048Y-20328628D02*
X53166667Y-20376247D01*
X53166667Y-20376247D02*
X53261905Y-20423866D01*
X53261905Y-20423866D02*
X53452381Y-20423866D01*
X53452381Y-20423866D02*
X53547619Y-20376247D01*
X53547619Y-20376247D02*
X53595238Y-20328628D01*
X53595238Y-20328628D02*
X53642857Y-20233390D01*
D10*
X46958333Y-35089765D02*
X46946429Y-35101670D01*
X46946429Y-35101670D02*
X46910714Y-35113574D01*
X46910714Y-35113574D02*
X46886905Y-35113574D01*
X46886905Y-35113574D02*
X46851191Y-35101670D01*
X46851191Y-35101670D02*
X46827381Y-35077860D01*
X46827381Y-35077860D02*
X46815476Y-35054050D01*
X46815476Y-35054050D02*
X46803572Y-35006431D01*
X46803572Y-35006431D02*
X46803572Y-34970717D01*
X46803572Y-34970717D02*
X46815476Y-34923098D01*
X46815476Y-34923098D02*
X46827381Y-34899289D01*
X46827381Y-34899289D02*
X46851191Y-34875479D01*
X46851191Y-34875479D02*
X46886905Y-34863574D01*
X46886905Y-34863574D02*
X46910714Y-34863574D01*
X46910714Y-34863574D02*
X46946429Y-34875479D01*
X46946429Y-34875479D02*
X46958333Y-34887384D01*
X47172619Y-34946908D02*
X47172619Y-35113574D01*
X47113095Y-34851670D02*
X47053572Y-35030241D01*
X47053572Y-35030241D02*
X47208333Y-35030241D01*
D11*
X29320476Y-75454819D02*
X29320476Y-76169104D01*
X29320476Y-76169104D02*
X29272857Y-76311961D01*
X29272857Y-76311961D02*
X29177619Y-76407200D01*
X29177619Y-76407200D02*
X29034762Y-76454819D01*
X29034762Y-76454819D02*
X28939524Y-76454819D01*
X30320476Y-76454819D02*
X29749048Y-76454819D01*
X30034762Y-76454819D02*
X30034762Y-75454819D01*
X30034762Y-75454819D02*
X29939524Y-75597676D01*
X29939524Y-75597676D02*
X29844286Y-75692914D01*
X29844286Y-75692914D02*
X29749048Y-75740533D01*
X30701429Y-75550057D02*
X30749048Y-75502438D01*
X30749048Y-75502438D02*
X30844286Y-75454819D01*
X30844286Y-75454819D02*
X31082381Y-75454819D01*
X31082381Y-75454819D02*
X31177619Y-75502438D01*
X31177619Y-75502438D02*
X31225238Y-75550057D01*
X31225238Y-75550057D02*
X31272857Y-75645295D01*
X31272857Y-75645295D02*
X31272857Y-75740533D01*
X31272857Y-75740533D02*
X31225238Y-75883390D01*
X31225238Y-75883390D02*
X30653810Y-76454819D01*
X30653810Y-76454819D02*
X31272857Y-76454819D01*
D10*
X75839285Y-51409765D02*
X75827381Y-51421670D01*
X75827381Y-51421670D02*
X75791666Y-51433574D01*
X75791666Y-51433574D02*
X75767857Y-51433574D01*
X75767857Y-51433574D02*
X75732143Y-51421670D01*
X75732143Y-51421670D02*
X75708333Y-51397860D01*
X75708333Y-51397860D02*
X75696428Y-51374050D01*
X75696428Y-51374050D02*
X75684524Y-51326431D01*
X75684524Y-51326431D02*
X75684524Y-51290717D01*
X75684524Y-51290717D02*
X75696428Y-51243098D01*
X75696428Y-51243098D02*
X75708333Y-51219289D01*
X75708333Y-51219289D02*
X75732143Y-51195479D01*
X75732143Y-51195479D02*
X75767857Y-51183574D01*
X75767857Y-51183574D02*
X75791666Y-51183574D01*
X75791666Y-51183574D02*
X75827381Y-51195479D01*
X75827381Y-51195479D02*
X75839285Y-51207384D01*
X75922619Y-51183574D02*
X76077381Y-51183574D01*
X76077381Y-51183574D02*
X75994047Y-51278812D01*
X75994047Y-51278812D02*
X76029762Y-51278812D01*
X76029762Y-51278812D02*
X76053571Y-51290717D01*
X76053571Y-51290717D02*
X76065476Y-51302622D01*
X76065476Y-51302622D02*
X76077381Y-51326431D01*
X76077381Y-51326431D02*
X76077381Y-51385955D01*
X76077381Y-51385955D02*
X76065476Y-51409765D01*
X76065476Y-51409765D02*
X76053571Y-51421670D01*
X76053571Y-51421670D02*
X76029762Y-51433574D01*
X76029762Y-51433574D02*
X75958333Y-51433574D01*
X75958333Y-51433574D02*
X75934524Y-51421670D01*
X75934524Y-51421670D02*
X75922619Y-51409765D01*
X76160714Y-51183574D02*
X76327380Y-51183574D01*
X76327380Y-51183574D02*
X76220238Y-51433574D01*
X101958333Y-25433574D02*
X101875000Y-25314527D01*
X101815476Y-25433574D02*
X101815476Y-25183574D01*
X101815476Y-25183574D02*
X101910714Y-25183574D01*
X101910714Y-25183574D02*
X101934524Y-25195479D01*
X101934524Y-25195479D02*
X101946429Y-25207384D01*
X101946429Y-25207384D02*
X101958333Y-25231193D01*
X101958333Y-25231193D02*
X101958333Y-25266908D01*
X101958333Y-25266908D02*
X101946429Y-25290717D01*
X101946429Y-25290717D02*
X101934524Y-25302622D01*
X101934524Y-25302622D02*
X101910714Y-25314527D01*
X101910714Y-25314527D02*
X101815476Y-25314527D01*
X102184524Y-25183574D02*
X102065476Y-25183574D01*
X102065476Y-25183574D02*
X102053572Y-25302622D01*
X102053572Y-25302622D02*
X102065476Y-25290717D01*
X102065476Y-25290717D02*
X102089286Y-25278812D01*
X102089286Y-25278812D02*
X102148810Y-25278812D01*
X102148810Y-25278812D02*
X102172619Y-25290717D01*
X102172619Y-25290717D02*
X102184524Y-25302622D01*
X102184524Y-25302622D02*
X102196429Y-25326431D01*
X102196429Y-25326431D02*
X102196429Y-25385955D01*
X102196429Y-25385955D02*
X102184524Y-25409765D01*
X102184524Y-25409765D02*
X102172619Y-25421670D01*
X102172619Y-25421670D02*
X102148810Y-25433574D01*
X102148810Y-25433574D02*
X102089286Y-25433574D01*
X102089286Y-25433574D02*
X102065476Y-25421670D01*
X102065476Y-25421670D02*
X102053572Y-25409765D01*
X53958333Y-37409765D02*
X53946429Y-37421670D01*
X53946429Y-37421670D02*
X53910714Y-37433574D01*
X53910714Y-37433574D02*
X53886905Y-37433574D01*
X53886905Y-37433574D02*
X53851191Y-37421670D01*
X53851191Y-37421670D02*
X53827381Y-37397860D01*
X53827381Y-37397860D02*
X53815476Y-37374050D01*
X53815476Y-37374050D02*
X53803572Y-37326431D01*
X53803572Y-37326431D02*
X53803572Y-37290717D01*
X53803572Y-37290717D02*
X53815476Y-37243098D01*
X53815476Y-37243098D02*
X53827381Y-37219289D01*
X53827381Y-37219289D02*
X53851191Y-37195479D01*
X53851191Y-37195479D02*
X53886905Y-37183574D01*
X53886905Y-37183574D02*
X53910714Y-37183574D01*
X53910714Y-37183574D02*
X53946429Y-37195479D01*
X53946429Y-37195479D02*
X53958333Y-37207384D01*
X54077381Y-37433574D02*
X54125000Y-37433574D01*
X54125000Y-37433574D02*
X54148810Y-37421670D01*
X54148810Y-37421670D02*
X54160714Y-37409765D01*
X54160714Y-37409765D02*
X54184524Y-37374050D01*
X54184524Y-37374050D02*
X54196429Y-37326431D01*
X54196429Y-37326431D02*
X54196429Y-37231193D01*
X54196429Y-37231193D02*
X54184524Y-37207384D01*
X54184524Y-37207384D02*
X54172619Y-37195479D01*
X54172619Y-37195479D02*
X54148810Y-37183574D01*
X54148810Y-37183574D02*
X54101191Y-37183574D01*
X54101191Y-37183574D02*
X54077381Y-37195479D01*
X54077381Y-37195479D02*
X54065476Y-37207384D01*
X54065476Y-37207384D02*
X54053572Y-37231193D01*
X54053572Y-37231193D02*
X54053572Y-37290717D01*
X54053572Y-37290717D02*
X54065476Y-37314527D01*
X54065476Y-37314527D02*
X54077381Y-37326431D01*
X54077381Y-37326431D02*
X54101191Y-37338336D01*
X54101191Y-37338336D02*
X54148810Y-37338336D01*
X54148810Y-37338336D02*
X54172619Y-37326431D01*
X54172619Y-37326431D02*
X54184524Y-37314527D01*
X54184524Y-37314527D02*
X54196429Y-37290717D01*
D11*
X66261905Y-39804819D02*
X66833333Y-39804819D01*
X66547619Y-40804819D02*
X66547619Y-39804819D01*
X67166667Y-40804819D02*
X67166667Y-39804819D01*
X67166667Y-39804819D02*
X67547619Y-39804819D01*
X67547619Y-39804819D02*
X67642857Y-39852438D01*
X67642857Y-39852438D02*
X67690476Y-39900057D01*
X67690476Y-39900057D02*
X67738095Y-39995295D01*
X67738095Y-39995295D02*
X67738095Y-40138152D01*
X67738095Y-40138152D02*
X67690476Y-40233390D01*
X67690476Y-40233390D02*
X67642857Y-40281009D01*
X67642857Y-40281009D02*
X67547619Y-40328628D01*
X67547619Y-40328628D02*
X67166667Y-40328628D01*
X68690476Y-40804819D02*
X68119048Y-40804819D01*
X68404762Y-40804819D02*
X68404762Y-39804819D01*
X68404762Y-39804819D02*
X68309524Y-39947676D01*
X68309524Y-39947676D02*
X68214286Y-40042914D01*
X68214286Y-40042914D02*
X68119048Y-40090533D01*
X69547619Y-39804819D02*
X69357143Y-39804819D01*
X69357143Y-39804819D02*
X69261905Y-39852438D01*
X69261905Y-39852438D02*
X69214286Y-39900057D01*
X69214286Y-39900057D02*
X69119048Y-40042914D01*
X69119048Y-40042914D02*
X69071429Y-40233390D01*
X69071429Y-40233390D02*
X69071429Y-40614342D01*
X69071429Y-40614342D02*
X69119048Y-40709580D01*
X69119048Y-40709580D02*
X69166667Y-40757200D01*
X69166667Y-40757200D02*
X69261905Y-40804819D01*
X69261905Y-40804819D02*
X69452381Y-40804819D01*
X69452381Y-40804819D02*
X69547619Y-40757200D01*
X69547619Y-40757200D02*
X69595238Y-40709580D01*
X69595238Y-40709580D02*
X69642857Y-40614342D01*
X69642857Y-40614342D02*
X69642857Y-40376247D01*
X69642857Y-40376247D02*
X69595238Y-40281009D01*
X69595238Y-40281009D02*
X69547619Y-40233390D01*
X69547619Y-40233390D02*
X69452381Y-40185771D01*
X69452381Y-40185771D02*
X69261905Y-40185771D01*
X69261905Y-40185771D02*
X69166667Y-40233390D01*
X69166667Y-40233390D02*
X69119048Y-40281009D01*
X69119048Y-40281009D02*
X69071429Y-40376247D01*
D10*
X27956667Y-22118200D02*
X27870000Y-21994391D01*
X27808095Y-22118200D02*
X27808095Y-21858200D01*
X27808095Y-21858200D02*
X27907143Y-21858200D01*
X27907143Y-21858200D02*
X27931905Y-21870581D01*
X27931905Y-21870581D02*
X27944286Y-21882962D01*
X27944286Y-21882962D02*
X27956667Y-21907724D01*
X27956667Y-21907724D02*
X27956667Y-21944867D01*
X27956667Y-21944867D02*
X27944286Y-21969629D01*
X27944286Y-21969629D02*
X27931905Y-21982010D01*
X27931905Y-21982010D02*
X27907143Y-21994391D01*
X27907143Y-21994391D02*
X27808095Y-21994391D01*
X28179524Y-21944867D02*
X28179524Y-22118200D01*
X28117619Y-21845820D02*
X28055714Y-22031534D01*
X28055714Y-22031534D02*
X28216667Y-22031534D01*
X46839285Y-38409765D02*
X46827381Y-38421670D01*
X46827381Y-38421670D02*
X46791666Y-38433574D01*
X46791666Y-38433574D02*
X46767857Y-38433574D01*
X46767857Y-38433574D02*
X46732143Y-38421670D01*
X46732143Y-38421670D02*
X46708333Y-38397860D01*
X46708333Y-38397860D02*
X46696428Y-38374050D01*
X46696428Y-38374050D02*
X46684524Y-38326431D01*
X46684524Y-38326431D02*
X46684524Y-38290717D01*
X46684524Y-38290717D02*
X46696428Y-38243098D01*
X46696428Y-38243098D02*
X46708333Y-38219289D01*
X46708333Y-38219289D02*
X46732143Y-38195479D01*
X46732143Y-38195479D02*
X46767857Y-38183574D01*
X46767857Y-38183574D02*
X46791666Y-38183574D01*
X46791666Y-38183574D02*
X46827381Y-38195479D01*
X46827381Y-38195479D02*
X46839285Y-38207384D01*
X47077381Y-38433574D02*
X46934524Y-38433574D01*
X47005952Y-38433574D02*
X47005952Y-38183574D01*
X47005952Y-38183574D02*
X46982143Y-38219289D01*
X46982143Y-38219289D02*
X46958333Y-38243098D01*
X46958333Y-38243098D02*
X46934524Y-38255003D01*
X47232142Y-38183574D02*
X47255952Y-38183574D01*
X47255952Y-38183574D02*
X47279761Y-38195479D01*
X47279761Y-38195479D02*
X47291666Y-38207384D01*
X47291666Y-38207384D02*
X47303571Y-38231193D01*
X47303571Y-38231193D02*
X47315476Y-38278812D01*
X47315476Y-38278812D02*
X47315476Y-38338336D01*
X47315476Y-38338336D02*
X47303571Y-38385955D01*
X47303571Y-38385955D02*
X47291666Y-38409765D01*
X47291666Y-38409765D02*
X47279761Y-38421670D01*
X47279761Y-38421670D02*
X47255952Y-38433574D01*
X47255952Y-38433574D02*
X47232142Y-38433574D01*
X47232142Y-38433574D02*
X47208333Y-38421670D01*
X47208333Y-38421670D02*
X47196428Y-38409765D01*
X47196428Y-38409765D02*
X47184523Y-38385955D01*
X47184523Y-38385955D02*
X47172619Y-38338336D01*
X47172619Y-38338336D02*
X47172619Y-38278812D01*
X47172619Y-38278812D02*
X47184523Y-38231193D01*
X47184523Y-38231193D02*
X47196428Y-38207384D01*
X47196428Y-38207384D02*
X47208333Y-38195479D01*
X47208333Y-38195479D02*
X47232142Y-38183574D01*
D11*
X40261905Y-39804819D02*
X40833333Y-39804819D01*
X40547619Y-40804819D02*
X40547619Y-39804819D01*
X41166667Y-40804819D02*
X41166667Y-39804819D01*
X41166667Y-39804819D02*
X41547619Y-39804819D01*
X41547619Y-39804819D02*
X41642857Y-39852438D01*
X41642857Y-39852438D02*
X41690476Y-39900057D01*
X41690476Y-39900057D02*
X41738095Y-39995295D01*
X41738095Y-39995295D02*
X41738095Y-40138152D01*
X41738095Y-40138152D02*
X41690476Y-40233390D01*
X41690476Y-40233390D02*
X41642857Y-40281009D01*
X41642857Y-40281009D02*
X41547619Y-40328628D01*
X41547619Y-40328628D02*
X41166667Y-40328628D01*
X42690476Y-40804819D02*
X42119048Y-40804819D01*
X42404762Y-40804819D02*
X42404762Y-39804819D01*
X42404762Y-39804819D02*
X42309524Y-39947676D01*
X42309524Y-39947676D02*
X42214286Y-40042914D01*
X42214286Y-40042914D02*
X42119048Y-40090533D01*
X43023810Y-39804819D02*
X43690476Y-39804819D01*
X43690476Y-39804819D02*
X43261905Y-40804819D01*
X58261905Y-39804819D02*
X58833333Y-39804819D01*
X58547619Y-40804819D02*
X58547619Y-39804819D01*
X59166667Y-40804819D02*
X59166667Y-39804819D01*
X59166667Y-39804819D02*
X59547619Y-39804819D01*
X59547619Y-39804819D02*
X59642857Y-39852438D01*
X59642857Y-39852438D02*
X59690476Y-39900057D01*
X59690476Y-39900057D02*
X59738095Y-39995295D01*
X59738095Y-39995295D02*
X59738095Y-40138152D01*
X59738095Y-40138152D02*
X59690476Y-40233390D01*
X59690476Y-40233390D02*
X59642857Y-40281009D01*
X59642857Y-40281009D02*
X59547619Y-40328628D01*
X59547619Y-40328628D02*
X59166667Y-40328628D01*
X60690476Y-40804819D02*
X60119048Y-40804819D01*
X60404762Y-40804819D02*
X60404762Y-39804819D01*
X60404762Y-39804819D02*
X60309524Y-39947676D01*
X60309524Y-39947676D02*
X60214286Y-40042914D01*
X60214286Y-40042914D02*
X60119048Y-40090533D01*
X61071429Y-39900057D02*
X61119048Y-39852438D01*
X61119048Y-39852438D02*
X61214286Y-39804819D01*
X61214286Y-39804819D02*
X61452381Y-39804819D01*
X61452381Y-39804819D02*
X61547619Y-39852438D01*
X61547619Y-39852438D02*
X61595238Y-39900057D01*
X61595238Y-39900057D02*
X61642857Y-39995295D01*
X61642857Y-39995295D02*
X61642857Y-40090533D01*
X61642857Y-40090533D02*
X61595238Y-40233390D01*
X61595238Y-40233390D02*
X61023810Y-40804819D01*
X61023810Y-40804819D02*
X61642857Y-40804819D01*
D10*
X53958333Y-32089765D02*
X53946429Y-32101670D01*
X53946429Y-32101670D02*
X53910714Y-32113574D01*
X53910714Y-32113574D02*
X53886905Y-32113574D01*
X53886905Y-32113574D02*
X53851191Y-32101670D01*
X53851191Y-32101670D02*
X53827381Y-32077860D01*
X53827381Y-32077860D02*
X53815476Y-32054050D01*
X53815476Y-32054050D02*
X53803572Y-32006431D01*
X53803572Y-32006431D02*
X53803572Y-31970717D01*
X53803572Y-31970717D02*
X53815476Y-31923098D01*
X53815476Y-31923098D02*
X53827381Y-31899289D01*
X53827381Y-31899289D02*
X53851191Y-31875479D01*
X53851191Y-31875479D02*
X53886905Y-31863574D01*
X53886905Y-31863574D02*
X53910714Y-31863574D01*
X53910714Y-31863574D02*
X53946429Y-31875479D01*
X53946429Y-31875479D02*
X53958333Y-31887384D01*
X54101191Y-31970717D02*
X54077381Y-31958812D01*
X54077381Y-31958812D02*
X54065476Y-31946908D01*
X54065476Y-31946908D02*
X54053572Y-31923098D01*
X54053572Y-31923098D02*
X54053572Y-31911193D01*
X54053572Y-31911193D02*
X54065476Y-31887384D01*
X54065476Y-31887384D02*
X54077381Y-31875479D01*
X54077381Y-31875479D02*
X54101191Y-31863574D01*
X54101191Y-31863574D02*
X54148810Y-31863574D01*
X54148810Y-31863574D02*
X54172619Y-31875479D01*
X54172619Y-31875479D02*
X54184524Y-31887384D01*
X54184524Y-31887384D02*
X54196429Y-31911193D01*
X54196429Y-31911193D02*
X54196429Y-31923098D01*
X54196429Y-31923098D02*
X54184524Y-31946908D01*
X54184524Y-31946908D02*
X54172619Y-31958812D01*
X54172619Y-31958812D02*
X54148810Y-31970717D01*
X54148810Y-31970717D02*
X54101191Y-31970717D01*
X54101191Y-31970717D02*
X54077381Y-31982622D01*
X54077381Y-31982622D02*
X54065476Y-31994527D01*
X54065476Y-31994527D02*
X54053572Y-32018336D01*
X54053572Y-32018336D02*
X54053572Y-32065955D01*
X54053572Y-32065955D02*
X54065476Y-32089765D01*
X54065476Y-32089765D02*
X54077381Y-32101670D01*
X54077381Y-32101670D02*
X54101191Y-32113574D01*
X54101191Y-32113574D02*
X54148810Y-32113574D01*
X54148810Y-32113574D02*
X54172619Y-32101670D01*
X54172619Y-32101670D02*
X54184524Y-32089765D01*
X54184524Y-32089765D02*
X54196429Y-32065955D01*
X54196429Y-32065955D02*
X54196429Y-32018336D01*
X54196429Y-32018336D02*
X54184524Y-31994527D01*
X54184524Y-31994527D02*
X54172619Y-31982622D01*
X54172619Y-31982622D02*
X54148810Y-31970717D01*
X71839285Y-43409765D02*
X71827381Y-43421670D01*
X71827381Y-43421670D02*
X71791666Y-43433574D01*
X71791666Y-43433574D02*
X71767857Y-43433574D01*
X71767857Y-43433574D02*
X71732143Y-43421670D01*
X71732143Y-43421670D02*
X71708333Y-43397860D01*
X71708333Y-43397860D02*
X71696428Y-43374050D01*
X71696428Y-43374050D02*
X71684524Y-43326431D01*
X71684524Y-43326431D02*
X71684524Y-43290717D01*
X71684524Y-43290717D02*
X71696428Y-43243098D01*
X71696428Y-43243098D02*
X71708333Y-43219289D01*
X71708333Y-43219289D02*
X71732143Y-43195479D01*
X71732143Y-43195479D02*
X71767857Y-43183574D01*
X71767857Y-43183574D02*
X71791666Y-43183574D01*
X71791666Y-43183574D02*
X71827381Y-43195479D01*
X71827381Y-43195479D02*
X71839285Y-43207384D01*
X71922619Y-43183574D02*
X72077381Y-43183574D01*
X72077381Y-43183574D02*
X71994047Y-43278812D01*
X71994047Y-43278812D02*
X72029762Y-43278812D01*
X72029762Y-43278812D02*
X72053571Y-43290717D01*
X72053571Y-43290717D02*
X72065476Y-43302622D01*
X72065476Y-43302622D02*
X72077381Y-43326431D01*
X72077381Y-43326431D02*
X72077381Y-43385955D01*
X72077381Y-43385955D02*
X72065476Y-43409765D01*
X72065476Y-43409765D02*
X72053571Y-43421670D01*
X72053571Y-43421670D02*
X72029762Y-43433574D01*
X72029762Y-43433574D02*
X71958333Y-43433574D01*
X71958333Y-43433574D02*
X71934524Y-43421670D01*
X71934524Y-43421670D02*
X71922619Y-43409765D01*
X72303571Y-43183574D02*
X72184523Y-43183574D01*
X72184523Y-43183574D02*
X72172619Y-43302622D01*
X72172619Y-43302622D02*
X72184523Y-43290717D01*
X72184523Y-43290717D02*
X72208333Y-43278812D01*
X72208333Y-43278812D02*
X72267857Y-43278812D01*
X72267857Y-43278812D02*
X72291666Y-43290717D01*
X72291666Y-43290717D02*
X72303571Y-43302622D01*
X72303571Y-43302622D02*
X72315476Y-43326431D01*
X72315476Y-43326431D02*
X72315476Y-43385955D01*
X72315476Y-43385955D02*
X72303571Y-43409765D01*
X72303571Y-43409765D02*
X72291666Y-43421670D01*
X72291666Y-43421670D02*
X72267857Y-43433574D01*
X72267857Y-43433574D02*
X72208333Y-43433574D01*
X72208333Y-43433574D02*
X72184523Y-43421670D01*
X72184523Y-43421670D02*
X72172619Y-43409765D01*
D11*
X60738095Y-3804819D02*
X61309523Y-3804819D01*
X61023809Y-4804819D02*
X61023809Y-3804819D01*
X61642857Y-4804819D02*
X61642857Y-3804819D01*
X61642857Y-3804819D02*
X62023809Y-3804819D01*
X62023809Y-3804819D02*
X62119047Y-3852438D01*
X62119047Y-3852438D02*
X62166666Y-3900057D01*
X62166666Y-3900057D02*
X62214285Y-3995295D01*
X62214285Y-3995295D02*
X62214285Y-4138152D01*
X62214285Y-4138152D02*
X62166666Y-4233390D01*
X62166666Y-4233390D02*
X62119047Y-4281009D01*
X62119047Y-4281009D02*
X62023809Y-4328628D01*
X62023809Y-4328628D02*
X61642857Y-4328628D01*
X62785714Y-4233390D02*
X62690476Y-4185771D01*
X62690476Y-4185771D02*
X62642857Y-4138152D01*
X62642857Y-4138152D02*
X62595238Y-4042914D01*
X62595238Y-4042914D02*
X62595238Y-3995295D01*
X62595238Y-3995295D02*
X62642857Y-3900057D01*
X62642857Y-3900057D02*
X62690476Y-3852438D01*
X62690476Y-3852438D02*
X62785714Y-3804819D01*
X62785714Y-3804819D02*
X62976190Y-3804819D01*
X62976190Y-3804819D02*
X63071428Y-3852438D01*
X63071428Y-3852438D02*
X63119047Y-3900057D01*
X63119047Y-3900057D02*
X63166666Y-3995295D01*
X63166666Y-3995295D02*
X63166666Y-4042914D01*
X63166666Y-4042914D02*
X63119047Y-4138152D01*
X63119047Y-4138152D02*
X63071428Y-4185771D01*
X63071428Y-4185771D02*
X62976190Y-4233390D01*
X62976190Y-4233390D02*
X62785714Y-4233390D01*
X62785714Y-4233390D02*
X62690476Y-4281009D01*
X62690476Y-4281009D02*
X62642857Y-4328628D01*
X62642857Y-4328628D02*
X62595238Y-4423866D01*
X62595238Y-4423866D02*
X62595238Y-4614342D01*
X62595238Y-4614342D02*
X62642857Y-4709580D01*
X62642857Y-4709580D02*
X62690476Y-4757200D01*
X62690476Y-4757200D02*
X62785714Y-4804819D01*
X62785714Y-4804819D02*
X62976190Y-4804819D01*
X62976190Y-4804819D02*
X63071428Y-4757200D01*
X63071428Y-4757200D02*
X63119047Y-4709580D01*
X63119047Y-4709580D02*
X63166666Y-4614342D01*
X63166666Y-4614342D02*
X63166666Y-4423866D01*
X63166666Y-4423866D02*
X63119047Y-4328628D01*
X63119047Y-4328628D02*
X63071428Y-4281009D01*
X63071428Y-4281009D02*
X62976190Y-4233390D01*
D12*
X85704762Y-14181927D02*
X85704762Y-13781927D01*
X85704762Y-13781927D02*
X85800000Y-13781927D01*
X85800000Y-13781927D02*
X85857143Y-13800975D01*
X85857143Y-13800975D02*
X85895238Y-13839070D01*
X85895238Y-13839070D02*
X85914285Y-13877165D01*
X85914285Y-13877165D02*
X85933333Y-13953356D01*
X85933333Y-13953356D02*
X85933333Y-14010499D01*
X85933333Y-14010499D02*
X85914285Y-14086689D01*
X85914285Y-14086689D02*
X85895238Y-14124784D01*
X85895238Y-14124784D02*
X85857143Y-14162880D01*
X85857143Y-14162880D02*
X85800000Y-14181927D01*
X85800000Y-14181927D02*
X85704762Y-14181927D01*
X86295238Y-13781927D02*
X86104762Y-13781927D01*
X86104762Y-13781927D02*
X86085714Y-13972403D01*
X86085714Y-13972403D02*
X86104762Y-13953356D01*
X86104762Y-13953356D02*
X86142857Y-13934308D01*
X86142857Y-13934308D02*
X86238095Y-13934308D01*
X86238095Y-13934308D02*
X86276190Y-13953356D01*
X86276190Y-13953356D02*
X86295238Y-13972403D01*
X86295238Y-13972403D02*
X86314285Y-14010499D01*
X86314285Y-14010499D02*
X86314285Y-14105737D01*
X86314285Y-14105737D02*
X86295238Y-14143832D01*
X86295238Y-14143832D02*
X86276190Y-14162880D01*
X86276190Y-14162880D02*
X86238095Y-14181927D01*
X86238095Y-14181927D02*
X86142857Y-14181927D01*
X86142857Y-14181927D02*
X86104762Y-14162880D01*
X86104762Y-14162880D02*
X86085714Y-14143832D01*
D10*
X13839285Y-50089765D02*
X13827381Y-50101670D01*
X13827381Y-50101670D02*
X13791666Y-50113574D01*
X13791666Y-50113574D02*
X13767857Y-50113574D01*
X13767857Y-50113574D02*
X13732143Y-50101670D01*
X13732143Y-50101670D02*
X13708333Y-50077860D01*
X13708333Y-50077860D02*
X13696428Y-50054050D01*
X13696428Y-50054050D02*
X13684524Y-50006431D01*
X13684524Y-50006431D02*
X13684524Y-49970717D01*
X13684524Y-49970717D02*
X13696428Y-49923098D01*
X13696428Y-49923098D02*
X13708333Y-49899289D01*
X13708333Y-49899289D02*
X13732143Y-49875479D01*
X13732143Y-49875479D02*
X13767857Y-49863574D01*
X13767857Y-49863574D02*
X13791666Y-49863574D01*
X13791666Y-49863574D02*
X13827381Y-49875479D01*
X13827381Y-49875479D02*
X13839285Y-49887384D01*
X13934524Y-49887384D02*
X13946428Y-49875479D01*
X13946428Y-49875479D02*
X13970238Y-49863574D01*
X13970238Y-49863574D02*
X14029762Y-49863574D01*
X14029762Y-49863574D02*
X14053571Y-49875479D01*
X14053571Y-49875479D02*
X14065476Y-49887384D01*
X14065476Y-49887384D02*
X14077381Y-49911193D01*
X14077381Y-49911193D02*
X14077381Y-49935003D01*
X14077381Y-49935003D02*
X14065476Y-49970717D01*
X14065476Y-49970717D02*
X13922619Y-50113574D01*
X13922619Y-50113574D02*
X14077381Y-50113574D01*
X14220238Y-49970717D02*
X14196428Y-49958812D01*
X14196428Y-49958812D02*
X14184523Y-49946908D01*
X14184523Y-49946908D02*
X14172619Y-49923098D01*
X14172619Y-49923098D02*
X14172619Y-49911193D01*
X14172619Y-49911193D02*
X14184523Y-49887384D01*
X14184523Y-49887384D02*
X14196428Y-49875479D01*
X14196428Y-49875479D02*
X14220238Y-49863574D01*
X14220238Y-49863574D02*
X14267857Y-49863574D01*
X14267857Y-49863574D02*
X14291666Y-49875479D01*
X14291666Y-49875479D02*
X14303571Y-49887384D01*
X14303571Y-49887384D02*
X14315476Y-49911193D01*
X14315476Y-49911193D02*
X14315476Y-49923098D01*
X14315476Y-49923098D02*
X14303571Y-49946908D01*
X14303571Y-49946908D02*
X14291666Y-49958812D01*
X14291666Y-49958812D02*
X14267857Y-49970717D01*
X14267857Y-49970717D02*
X14220238Y-49970717D01*
X14220238Y-49970717D02*
X14196428Y-49982622D01*
X14196428Y-49982622D02*
X14184523Y-49994527D01*
X14184523Y-49994527D02*
X14172619Y-50018336D01*
X14172619Y-50018336D02*
X14172619Y-50065955D01*
X14172619Y-50065955D02*
X14184523Y-50089765D01*
X14184523Y-50089765D02*
X14196428Y-50101670D01*
X14196428Y-50101670D02*
X14220238Y-50113574D01*
X14220238Y-50113574D02*
X14267857Y-50113574D01*
X14267857Y-50113574D02*
X14291666Y-50101670D01*
X14291666Y-50101670D02*
X14303571Y-50089765D01*
X14303571Y-50089765D02*
X14315476Y-50065955D01*
X14315476Y-50065955D02*
X14315476Y-50018336D01*
X14315476Y-50018336D02*
X14303571Y-49994527D01*
X14303571Y-49994527D02*
X14291666Y-49982622D01*
X14291666Y-49982622D02*
X14267857Y-49970717D01*
X17958333Y-38113574D02*
X17839285Y-38113574D01*
X17839285Y-38113574D02*
X17839285Y-37863574D01*
X18148809Y-37946908D02*
X18148809Y-38113574D01*
X18089285Y-37851670D02*
X18029762Y-38030241D01*
X18029762Y-38030241D02*
X18184523Y-38030241D01*
D12*
X47666667Y-17972403D02*
X47533334Y-17972403D01*
X47533334Y-18181927D02*
X47533334Y-17781927D01*
X47533334Y-17781927D02*
X47723810Y-17781927D01*
X48009524Y-17972403D02*
X48066667Y-17991451D01*
X48066667Y-17991451D02*
X48085714Y-18010499D01*
X48085714Y-18010499D02*
X48104762Y-18048594D01*
X48104762Y-18048594D02*
X48104762Y-18105737D01*
X48104762Y-18105737D02*
X48085714Y-18143832D01*
X48085714Y-18143832D02*
X48066667Y-18162880D01*
X48066667Y-18162880D02*
X48028572Y-18181927D01*
X48028572Y-18181927D02*
X47876191Y-18181927D01*
X47876191Y-18181927D02*
X47876191Y-17781927D01*
X47876191Y-17781927D02*
X48009524Y-17781927D01*
X48009524Y-17781927D02*
X48047619Y-17800975D01*
X48047619Y-17800975D02*
X48066667Y-17820022D01*
X48066667Y-17820022D02*
X48085714Y-17858118D01*
X48085714Y-17858118D02*
X48085714Y-17896213D01*
X48085714Y-17896213D02*
X48066667Y-17934308D01*
X48066667Y-17934308D02*
X48047619Y-17953356D01*
X48047619Y-17953356D02*
X48009524Y-17972403D01*
X48009524Y-17972403D02*
X47876191Y-17972403D01*
X48485714Y-18181927D02*
X48257143Y-18181927D01*
X48371429Y-18181927D02*
X48371429Y-17781927D01*
X48371429Y-17781927D02*
X48333333Y-17839070D01*
X48333333Y-17839070D02*
X48295238Y-17877165D01*
X48295238Y-17877165D02*
X48257143Y-17896213D01*
D10*
X76118200Y-22043332D02*
X75994391Y-22129999D01*
X76118200Y-22191904D02*
X75858200Y-22191904D01*
X75858200Y-22191904D02*
X75858200Y-22092856D01*
X75858200Y-22092856D02*
X75870581Y-22068094D01*
X75870581Y-22068094D02*
X75882962Y-22055713D01*
X75882962Y-22055713D02*
X75907724Y-22043332D01*
X75907724Y-22043332D02*
X75944867Y-22043332D01*
X75944867Y-22043332D02*
X75969629Y-22055713D01*
X75969629Y-22055713D02*
X75982010Y-22068094D01*
X75982010Y-22068094D02*
X75994391Y-22092856D01*
X75994391Y-22092856D02*
X75994391Y-22191904D01*
X75858200Y-21956666D02*
X75858200Y-21795713D01*
X75858200Y-21795713D02*
X75957248Y-21882380D01*
X75957248Y-21882380D02*
X75957248Y-21845237D01*
X75957248Y-21845237D02*
X75969629Y-21820475D01*
X75969629Y-21820475D02*
X75982010Y-21808094D01*
X75982010Y-21808094D02*
X76006772Y-21795713D01*
X76006772Y-21795713D02*
X76068677Y-21795713D01*
X76068677Y-21795713D02*
X76093439Y-21808094D01*
X76093439Y-21808094D02*
X76105820Y-21820475D01*
X76105820Y-21820475D02*
X76118200Y-21845237D01*
X76118200Y-21845237D02*
X76118200Y-21919523D01*
X76118200Y-21919523D02*
X76105820Y-21944285D01*
X76105820Y-21944285D02*
X76093439Y-21956666D01*
D11*
X70738095Y-34004819D02*
X71309523Y-34004819D01*
X71023809Y-35004819D02*
X71023809Y-34004819D01*
X71642857Y-35004819D02*
X71642857Y-34004819D01*
X71642857Y-34004819D02*
X72023809Y-34004819D01*
X72023809Y-34004819D02*
X72119047Y-34052438D01*
X72119047Y-34052438D02*
X72166666Y-34100057D01*
X72166666Y-34100057D02*
X72214285Y-34195295D01*
X72214285Y-34195295D02*
X72214285Y-34338152D01*
X72214285Y-34338152D02*
X72166666Y-34433390D01*
X72166666Y-34433390D02*
X72119047Y-34481009D01*
X72119047Y-34481009D02*
X72023809Y-34528628D01*
X72023809Y-34528628D02*
X71642857Y-34528628D01*
X72547619Y-34004819D02*
X73166666Y-34004819D01*
X73166666Y-34004819D02*
X72833333Y-34385771D01*
X72833333Y-34385771D02*
X72976190Y-34385771D01*
X72976190Y-34385771D02*
X73071428Y-34433390D01*
X73071428Y-34433390D02*
X73119047Y-34481009D01*
X73119047Y-34481009D02*
X73166666Y-34576247D01*
X73166666Y-34576247D02*
X73166666Y-34814342D01*
X73166666Y-34814342D02*
X73119047Y-34909580D01*
X73119047Y-34909580D02*
X73071428Y-34957200D01*
X73071428Y-34957200D02*
X72976190Y-35004819D01*
X72976190Y-35004819D02*
X72690476Y-35004819D01*
X72690476Y-35004819D02*
X72595238Y-34957200D01*
X72595238Y-34957200D02*
X72547619Y-34909580D01*
D12*
X97704762Y-14181927D02*
X97704762Y-13781927D01*
X97704762Y-13781927D02*
X97800000Y-13781927D01*
X97800000Y-13781927D02*
X97857143Y-13800975D01*
X97857143Y-13800975D02*
X97895238Y-13839070D01*
X97895238Y-13839070D02*
X97914285Y-13877165D01*
X97914285Y-13877165D02*
X97933333Y-13953356D01*
X97933333Y-13953356D02*
X97933333Y-14010499D01*
X97933333Y-14010499D02*
X97914285Y-14086689D01*
X97914285Y-14086689D02*
X97895238Y-14124784D01*
X97895238Y-14124784D02*
X97857143Y-14162880D01*
X97857143Y-14162880D02*
X97800000Y-14181927D01*
X97800000Y-14181927D02*
X97704762Y-14181927D01*
X98066666Y-13781927D02*
X98333333Y-13781927D01*
X98333333Y-13781927D02*
X98161904Y-14181927D01*
D10*
X47839285Y-21409765D02*
X47827381Y-21421670D01*
X47827381Y-21421670D02*
X47791666Y-21433574D01*
X47791666Y-21433574D02*
X47767857Y-21433574D01*
X47767857Y-21433574D02*
X47732143Y-21421670D01*
X47732143Y-21421670D02*
X47708333Y-21397860D01*
X47708333Y-21397860D02*
X47696428Y-21374050D01*
X47696428Y-21374050D02*
X47684524Y-21326431D01*
X47684524Y-21326431D02*
X47684524Y-21290717D01*
X47684524Y-21290717D02*
X47696428Y-21243098D01*
X47696428Y-21243098D02*
X47708333Y-21219289D01*
X47708333Y-21219289D02*
X47732143Y-21195479D01*
X47732143Y-21195479D02*
X47767857Y-21183574D01*
X47767857Y-21183574D02*
X47791666Y-21183574D01*
X47791666Y-21183574D02*
X47827381Y-21195479D01*
X47827381Y-21195479D02*
X47839285Y-21207384D01*
X48077381Y-21433574D02*
X47934524Y-21433574D01*
X48005952Y-21433574D02*
X48005952Y-21183574D01*
X48005952Y-21183574D02*
X47982143Y-21219289D01*
X47982143Y-21219289D02*
X47958333Y-21243098D01*
X47958333Y-21243098D02*
X47934524Y-21255003D01*
X48291666Y-21266908D02*
X48291666Y-21433574D01*
X48232142Y-21171670D02*
X48172619Y-21350241D01*
X48172619Y-21350241D02*
X48327380Y-21350241D01*
D11*
X14738095Y-19804819D02*
X15309523Y-19804819D01*
X15023809Y-20804819D02*
X15023809Y-19804819D01*
X15642857Y-20804819D02*
X15642857Y-19804819D01*
X15642857Y-19804819D02*
X16023809Y-19804819D01*
X16023809Y-19804819D02*
X16119047Y-19852438D01*
X16119047Y-19852438D02*
X16166666Y-19900057D01*
X16166666Y-19900057D02*
X16214285Y-19995295D01*
X16214285Y-19995295D02*
X16214285Y-20138152D01*
X16214285Y-20138152D02*
X16166666Y-20233390D01*
X16166666Y-20233390D02*
X16119047Y-20281009D01*
X16119047Y-20281009D02*
X16023809Y-20328628D01*
X16023809Y-20328628D02*
X15642857Y-20328628D01*
X16595238Y-19900057D02*
X16642857Y-19852438D01*
X16642857Y-19852438D02*
X16738095Y-19804819D01*
X16738095Y-19804819D02*
X16976190Y-19804819D01*
X16976190Y-19804819D02*
X17071428Y-19852438D01*
X17071428Y-19852438D02*
X17119047Y-19900057D01*
X17119047Y-19900057D02*
X17166666Y-19995295D01*
X17166666Y-19995295D02*
X17166666Y-20090533D01*
X17166666Y-20090533D02*
X17119047Y-20233390D01*
X17119047Y-20233390D02*
X16547619Y-20804819D01*
X16547619Y-20804819D02*
X17166666Y-20804819D01*
D10*
X85832857Y-18118200D02*
X85746190Y-17994391D01*
X85684285Y-18118200D02*
X85684285Y-17858200D01*
X85684285Y-17858200D02*
X85783333Y-17858200D01*
X85783333Y-17858200D02*
X85808095Y-17870581D01*
X85808095Y-17870581D02*
X85820476Y-17882962D01*
X85820476Y-17882962D02*
X85832857Y-17907724D01*
X85832857Y-17907724D02*
X85832857Y-17944867D01*
X85832857Y-17944867D02*
X85820476Y-17969629D01*
X85820476Y-17969629D02*
X85808095Y-17982010D01*
X85808095Y-17982010D02*
X85783333Y-17994391D01*
X85783333Y-17994391D02*
X85684285Y-17994391D01*
X86080476Y-18118200D02*
X85931904Y-18118200D01*
X86006190Y-18118200D02*
X86006190Y-17858200D01*
X86006190Y-17858200D02*
X85981428Y-17895343D01*
X85981428Y-17895343D02*
X85956666Y-17920105D01*
X85956666Y-17920105D02*
X85931904Y-17932486D01*
X86328095Y-18118200D02*
X86179523Y-18118200D01*
X86253809Y-18118200D02*
X86253809Y-17858200D01*
X86253809Y-17858200D02*
X86229047Y-17895343D01*
X86229047Y-17895343D02*
X86204285Y-17920105D01*
X86204285Y-17920105D02*
X86179523Y-17932486D01*
D13*
X79333334Y-24203600D02*
X79404762Y-24227409D01*
X79404762Y-24227409D02*
X79523810Y-24227409D01*
X79523810Y-24227409D02*
X79571429Y-24203600D01*
X79571429Y-24203600D02*
X79595238Y-24179790D01*
X79595238Y-24179790D02*
X79619048Y-24132171D01*
X79619048Y-24132171D02*
X79619048Y-24084552D01*
X79619048Y-24084552D02*
X79595238Y-24036933D01*
X79595238Y-24036933D02*
X79571429Y-24013123D01*
X79571429Y-24013123D02*
X79523810Y-23989314D01*
X79523810Y-23989314D02*
X79428572Y-23965504D01*
X79428572Y-23965504D02*
X79380953Y-23941695D01*
X79380953Y-23941695D02*
X79357143Y-23917885D01*
X79357143Y-23917885D02*
X79333334Y-23870266D01*
X79333334Y-23870266D02*
X79333334Y-23822647D01*
X79333334Y-23822647D02*
X79357143Y-23775028D01*
X79357143Y-23775028D02*
X79380953Y-23751219D01*
X79380953Y-23751219D02*
X79428572Y-23727409D01*
X79428572Y-23727409D02*
X79547619Y-23727409D01*
X79547619Y-23727409D02*
X79619048Y-23751219D01*
X79785714Y-23727409D02*
X79904762Y-24227409D01*
X79904762Y-24227409D02*
X80000000Y-23870266D01*
X80000000Y-23870266D02*
X80095238Y-24227409D01*
X80095238Y-24227409D02*
X80214286Y-23727409D01*
X80357143Y-23727409D02*
X80666667Y-23727409D01*
X80666667Y-23727409D02*
X80500000Y-23917885D01*
X80500000Y-23917885D02*
X80571429Y-23917885D01*
X80571429Y-23917885D02*
X80619048Y-23941695D01*
X80619048Y-23941695D02*
X80642857Y-23965504D01*
X80642857Y-23965504D02*
X80666667Y-24013123D01*
X80666667Y-24013123D02*
X80666667Y-24132171D01*
X80666667Y-24132171D02*
X80642857Y-24179790D01*
X80642857Y-24179790D02*
X80619048Y-24203600D01*
X80619048Y-24203600D02*
X80571429Y-24227409D01*
X80571429Y-24227409D02*
X80428572Y-24227409D01*
X80428572Y-24227409D02*
X80380953Y-24203600D01*
X80380953Y-24203600D02*
X80357143Y-24179790D01*
D11*
X66261905Y-27804819D02*
X66833333Y-27804819D01*
X66547619Y-28804819D02*
X66547619Y-27804819D01*
X67166667Y-28804819D02*
X67166667Y-27804819D01*
X67166667Y-27804819D02*
X67547619Y-27804819D01*
X67547619Y-27804819D02*
X67642857Y-27852438D01*
X67642857Y-27852438D02*
X67690476Y-27900057D01*
X67690476Y-27900057D02*
X67738095Y-27995295D01*
X67738095Y-27995295D02*
X67738095Y-28138152D01*
X67738095Y-28138152D02*
X67690476Y-28233390D01*
X67690476Y-28233390D02*
X67642857Y-28281009D01*
X67642857Y-28281009D02*
X67547619Y-28328628D01*
X67547619Y-28328628D02*
X67166667Y-28328628D01*
X68690476Y-28804819D02*
X68119048Y-28804819D01*
X68404762Y-28804819D02*
X68404762Y-27804819D01*
X68404762Y-27804819D02*
X68309524Y-27947676D01*
X68309524Y-27947676D02*
X68214286Y-28042914D01*
X68214286Y-28042914D02*
X68119048Y-28090533D01*
X69547619Y-28138152D02*
X69547619Y-28804819D01*
X69309524Y-27757200D02*
X69071429Y-28471485D01*
X69071429Y-28471485D02*
X69690476Y-28471485D01*
X56261905Y-19804819D02*
X56833333Y-19804819D01*
X56547619Y-20804819D02*
X56547619Y-19804819D01*
X57166667Y-20804819D02*
X57166667Y-19804819D01*
X57166667Y-19804819D02*
X57547619Y-19804819D01*
X57547619Y-19804819D02*
X57642857Y-19852438D01*
X57642857Y-19852438D02*
X57690476Y-19900057D01*
X57690476Y-19900057D02*
X57738095Y-19995295D01*
X57738095Y-19995295D02*
X57738095Y-20138152D01*
X57738095Y-20138152D02*
X57690476Y-20233390D01*
X57690476Y-20233390D02*
X57642857Y-20281009D01*
X57642857Y-20281009D02*
X57547619Y-20328628D01*
X57547619Y-20328628D02*
X57166667Y-20328628D01*
X58119048Y-19900057D02*
X58166667Y-19852438D01*
X58166667Y-19852438D02*
X58261905Y-19804819D01*
X58261905Y-19804819D02*
X58500000Y-19804819D01*
X58500000Y-19804819D02*
X58595238Y-19852438D01*
X58595238Y-19852438D02*
X58642857Y-19900057D01*
X58642857Y-19900057D02*
X58690476Y-19995295D01*
X58690476Y-19995295D02*
X58690476Y-20090533D01*
X58690476Y-20090533D02*
X58642857Y-20233390D01*
X58642857Y-20233390D02*
X58071429Y-20804819D01*
X58071429Y-20804819D02*
X58690476Y-20804819D01*
X59309524Y-19804819D02*
X59404762Y-19804819D01*
X59404762Y-19804819D02*
X59500000Y-19852438D01*
X59500000Y-19852438D02*
X59547619Y-19900057D01*
X59547619Y-19900057D02*
X59595238Y-19995295D01*
X59595238Y-19995295D02*
X59642857Y-20185771D01*
X59642857Y-20185771D02*
X59642857Y-20423866D01*
X59642857Y-20423866D02*
X59595238Y-20614342D01*
X59595238Y-20614342D02*
X59547619Y-20709580D01*
X59547619Y-20709580D02*
X59500000Y-20757200D01*
X59500000Y-20757200D02*
X59404762Y-20804819D01*
X59404762Y-20804819D02*
X59309524Y-20804819D01*
X59309524Y-20804819D02*
X59214286Y-20757200D01*
X59214286Y-20757200D02*
X59166667Y-20709580D01*
X59166667Y-20709580D02*
X59119048Y-20614342D01*
X59119048Y-20614342D02*
X59071429Y-20423866D01*
X59071429Y-20423866D02*
X59071429Y-20185771D01*
X59071429Y-20185771D02*
X59119048Y-19995295D01*
X59119048Y-19995295D02*
X59166667Y-19900057D01*
X59166667Y-19900057D02*
X59214286Y-19852438D01*
X59214286Y-19852438D02*
X59309524Y-19804819D01*
D10*
X75839285Y-44089765D02*
X75827381Y-44101670D01*
X75827381Y-44101670D02*
X75791666Y-44113574D01*
X75791666Y-44113574D02*
X75767857Y-44113574D01*
X75767857Y-44113574D02*
X75732143Y-44101670D01*
X75732143Y-44101670D02*
X75708333Y-44077860D01*
X75708333Y-44077860D02*
X75696428Y-44054050D01*
X75696428Y-44054050D02*
X75684524Y-44006431D01*
X75684524Y-44006431D02*
X75684524Y-43970717D01*
X75684524Y-43970717D02*
X75696428Y-43923098D01*
X75696428Y-43923098D02*
X75708333Y-43899289D01*
X75708333Y-43899289D02*
X75732143Y-43875479D01*
X75732143Y-43875479D02*
X75767857Y-43863574D01*
X75767857Y-43863574D02*
X75791666Y-43863574D01*
X75791666Y-43863574D02*
X75827381Y-43875479D01*
X75827381Y-43875479D02*
X75839285Y-43887384D01*
X75922619Y-43863574D02*
X76077381Y-43863574D01*
X76077381Y-43863574D02*
X75994047Y-43958812D01*
X75994047Y-43958812D02*
X76029762Y-43958812D01*
X76029762Y-43958812D02*
X76053571Y-43970717D01*
X76053571Y-43970717D02*
X76065476Y-43982622D01*
X76065476Y-43982622D02*
X76077381Y-44006431D01*
X76077381Y-44006431D02*
X76077381Y-44065955D01*
X76077381Y-44065955D02*
X76065476Y-44089765D01*
X76065476Y-44089765D02*
X76053571Y-44101670D01*
X76053571Y-44101670D02*
X76029762Y-44113574D01*
X76029762Y-44113574D02*
X75958333Y-44113574D01*
X75958333Y-44113574D02*
X75934524Y-44101670D01*
X75934524Y-44101670D02*
X75922619Y-44089765D01*
X76160714Y-43863574D02*
X76315476Y-43863574D01*
X76315476Y-43863574D02*
X76232142Y-43958812D01*
X76232142Y-43958812D02*
X76267857Y-43958812D01*
X76267857Y-43958812D02*
X76291666Y-43970717D01*
X76291666Y-43970717D02*
X76303571Y-43982622D01*
X76303571Y-43982622D02*
X76315476Y-44006431D01*
X76315476Y-44006431D02*
X76315476Y-44065955D01*
X76315476Y-44065955D02*
X76303571Y-44089765D01*
X76303571Y-44089765D02*
X76291666Y-44101670D01*
X76291666Y-44101670D02*
X76267857Y-44113574D01*
X76267857Y-44113574D02*
X76196428Y-44113574D01*
X76196428Y-44113574D02*
X76172619Y-44101670D01*
X76172619Y-44101670D02*
X76160714Y-44089765D01*
D14*
X58363855Y-26133332D02*
X57982902Y-26399999D01*
X58363855Y-26590475D02*
X57563855Y-26590475D01*
X57563855Y-26590475D02*
X57563855Y-26285713D01*
X57563855Y-26285713D02*
X57601950Y-26209523D01*
X57601950Y-26209523D02*
X57640045Y-26171428D01*
X57640045Y-26171428D02*
X57716236Y-26133332D01*
X57716236Y-26133332D02*
X57830521Y-26133332D01*
X57830521Y-26133332D02*
X57906712Y-26171428D01*
X57906712Y-26171428D02*
X57944807Y-26209523D01*
X57944807Y-26209523D02*
X57982902Y-26285713D01*
X57982902Y-26285713D02*
X57982902Y-26590475D01*
X57640045Y-25828571D02*
X57601950Y-25790475D01*
X57601950Y-25790475D02*
X57563855Y-25714285D01*
X57563855Y-25714285D02*
X57563855Y-25523809D01*
X57563855Y-25523809D02*
X57601950Y-25447618D01*
X57601950Y-25447618D02*
X57640045Y-25409523D01*
X57640045Y-25409523D02*
X57716236Y-25371428D01*
X57716236Y-25371428D02*
X57792426Y-25371428D01*
X57792426Y-25371428D02*
X57906712Y-25409523D01*
X57906712Y-25409523D02*
X58363855Y-25866666D01*
X58363855Y-25866666D02*
X58363855Y-25371428D01*
D11*
X103454819Y-51984523D02*
X104169104Y-51984523D01*
X104169104Y-51984523D02*
X104311961Y-52032142D01*
X104311961Y-52032142D02*
X104407200Y-52127380D01*
X104407200Y-52127380D02*
X104454819Y-52270237D01*
X104454819Y-52270237D02*
X104454819Y-52365475D01*
X104454819Y-50984523D02*
X104454819Y-51555951D01*
X104454819Y-51270237D02*
X103454819Y-51270237D01*
X103454819Y-51270237D02*
X103597676Y-51365475D01*
X103597676Y-51365475D02*
X103692914Y-51460713D01*
X103692914Y-51460713D02*
X103740533Y-51555951D01*
X103788152Y-50127380D02*
X104454819Y-50127380D01*
X103407200Y-50365475D02*
X104121485Y-50603570D01*
X104121485Y-50603570D02*
X104121485Y-49984523D01*
X68261905Y-5804819D02*
X68833333Y-5804819D01*
X68547619Y-6804819D02*
X68547619Y-5804819D01*
X69166667Y-6804819D02*
X69166667Y-5804819D01*
X69166667Y-5804819D02*
X69547619Y-5804819D01*
X69547619Y-5804819D02*
X69642857Y-5852438D01*
X69642857Y-5852438D02*
X69690476Y-5900057D01*
X69690476Y-5900057D02*
X69738095Y-5995295D01*
X69738095Y-5995295D02*
X69738095Y-6138152D01*
X69738095Y-6138152D02*
X69690476Y-6233390D01*
X69690476Y-6233390D02*
X69642857Y-6281009D01*
X69642857Y-6281009D02*
X69547619Y-6328628D01*
X69547619Y-6328628D02*
X69166667Y-6328628D01*
X70690476Y-6804819D02*
X70119048Y-6804819D01*
X70404762Y-6804819D02*
X70404762Y-5804819D01*
X70404762Y-5804819D02*
X70309524Y-5947676D01*
X70309524Y-5947676D02*
X70214286Y-6042914D01*
X70214286Y-6042914D02*
X70119048Y-6090533D01*
X71309524Y-5804819D02*
X71404762Y-5804819D01*
X71404762Y-5804819D02*
X71500000Y-5852438D01*
X71500000Y-5852438D02*
X71547619Y-5900057D01*
X71547619Y-5900057D02*
X71595238Y-5995295D01*
X71595238Y-5995295D02*
X71642857Y-6185771D01*
X71642857Y-6185771D02*
X71642857Y-6423866D01*
X71642857Y-6423866D02*
X71595238Y-6614342D01*
X71595238Y-6614342D02*
X71547619Y-6709580D01*
X71547619Y-6709580D02*
X71500000Y-6757200D01*
X71500000Y-6757200D02*
X71404762Y-6804819D01*
X71404762Y-6804819D02*
X71309524Y-6804819D01*
X71309524Y-6804819D02*
X71214286Y-6757200D01*
X71214286Y-6757200D02*
X71166667Y-6709580D01*
X71166667Y-6709580D02*
X71119048Y-6614342D01*
X71119048Y-6614342D02*
X71071429Y-6423866D01*
X71071429Y-6423866D02*
X71071429Y-6185771D01*
X71071429Y-6185771D02*
X71119048Y-5995295D01*
X71119048Y-5995295D02*
X71166667Y-5900057D01*
X71166667Y-5900057D02*
X71214286Y-5852438D01*
X71214286Y-5852438D02*
X71309524Y-5804819D01*
X115454819Y-35159523D02*
X116169104Y-35159523D01*
X116169104Y-35159523D02*
X116311961Y-35207142D01*
X116311961Y-35207142D02*
X116407200Y-35302380D01*
X116407200Y-35302380D02*
X116454819Y-35445237D01*
X116454819Y-35445237D02*
X116454819Y-35540475D01*
X116454819Y-34159523D02*
X116454819Y-34730951D01*
X116454819Y-34445237D02*
X115454819Y-34445237D01*
X115454819Y-34445237D02*
X115597676Y-34540475D01*
X115597676Y-34540475D02*
X115692914Y-34635713D01*
X115692914Y-34635713D02*
X115740533Y-34730951D01*
X115454819Y-33540475D02*
X115454819Y-33445237D01*
X115454819Y-33445237D02*
X115502438Y-33349999D01*
X115502438Y-33349999D02*
X115550057Y-33302380D01*
X115550057Y-33302380D02*
X115645295Y-33254761D01*
X115645295Y-33254761D02*
X115835771Y-33207142D01*
X115835771Y-33207142D02*
X116073866Y-33207142D01*
X116073866Y-33207142D02*
X116264342Y-33254761D01*
X116264342Y-33254761D02*
X116359580Y-33302380D01*
X116359580Y-33302380D02*
X116407200Y-33349999D01*
X116407200Y-33349999D02*
X116454819Y-33445237D01*
X116454819Y-33445237D02*
X116454819Y-33540475D01*
X116454819Y-33540475D02*
X116407200Y-33635713D01*
X116407200Y-33635713D02*
X116359580Y-33683332D01*
X116359580Y-33683332D02*
X116264342Y-33730951D01*
X116264342Y-33730951D02*
X116073866Y-33778570D01*
X116073866Y-33778570D02*
X115835771Y-33778570D01*
X115835771Y-33778570D02*
X115645295Y-33730951D01*
X115645295Y-33730951D02*
X115550057Y-33683332D01*
X115550057Y-33683332D02*
X115502438Y-33635713D01*
X115502438Y-33635713D02*
X115454819Y-33540475D01*
D10*
X79832857Y-18118200D02*
X79746190Y-17994391D01*
X79684285Y-18118200D02*
X79684285Y-17858200D01*
X79684285Y-17858200D02*
X79783333Y-17858200D01*
X79783333Y-17858200D02*
X79808095Y-17870581D01*
X79808095Y-17870581D02*
X79820476Y-17882962D01*
X79820476Y-17882962D02*
X79832857Y-17907724D01*
X79832857Y-17907724D02*
X79832857Y-17944867D01*
X79832857Y-17944867D02*
X79820476Y-17969629D01*
X79820476Y-17969629D02*
X79808095Y-17982010D01*
X79808095Y-17982010D02*
X79783333Y-17994391D01*
X79783333Y-17994391D02*
X79684285Y-17994391D01*
X80080476Y-18118200D02*
X79931904Y-18118200D01*
X80006190Y-18118200D02*
X80006190Y-17858200D01*
X80006190Y-17858200D02*
X79981428Y-17895343D01*
X79981428Y-17895343D02*
X79956666Y-17920105D01*
X79956666Y-17920105D02*
X79931904Y-17932486D01*
X80241428Y-17858200D02*
X80266190Y-17858200D01*
X80266190Y-17858200D02*
X80290952Y-17870581D01*
X80290952Y-17870581D02*
X80303333Y-17882962D01*
X80303333Y-17882962D02*
X80315714Y-17907724D01*
X80315714Y-17907724D02*
X80328095Y-17957248D01*
X80328095Y-17957248D02*
X80328095Y-18019153D01*
X80328095Y-18019153D02*
X80315714Y-18068677D01*
X80315714Y-18068677D02*
X80303333Y-18093439D01*
X80303333Y-18093439D02*
X80290952Y-18105820D01*
X80290952Y-18105820D02*
X80266190Y-18118200D01*
X80266190Y-18118200D02*
X80241428Y-18118200D01*
X80241428Y-18118200D02*
X80216666Y-18105820D01*
X80216666Y-18105820D02*
X80204285Y-18093439D01*
X80204285Y-18093439D02*
X80191904Y-18068677D01*
X80191904Y-18068677D02*
X80179523Y-18019153D01*
X80179523Y-18019153D02*
X80179523Y-17957248D01*
X80179523Y-17957248D02*
X80191904Y-17907724D01*
X80191904Y-17907724D02*
X80204285Y-17882962D01*
X80204285Y-17882962D02*
X80216666Y-17870581D01*
X80216666Y-17870581D02*
X80241428Y-17858200D01*
X46958333Y-30409765D02*
X46946429Y-30421670D01*
X46946429Y-30421670D02*
X46910714Y-30433574D01*
X46910714Y-30433574D02*
X46886905Y-30433574D01*
X46886905Y-30433574D02*
X46851191Y-30421670D01*
X46851191Y-30421670D02*
X46827381Y-30397860D01*
X46827381Y-30397860D02*
X46815476Y-30374050D01*
X46815476Y-30374050D02*
X46803572Y-30326431D01*
X46803572Y-30326431D02*
X46803572Y-30290717D01*
X46803572Y-30290717D02*
X46815476Y-30243098D01*
X46815476Y-30243098D02*
X46827381Y-30219289D01*
X46827381Y-30219289D02*
X46851191Y-30195479D01*
X46851191Y-30195479D02*
X46886905Y-30183574D01*
X46886905Y-30183574D02*
X46910714Y-30183574D01*
X46910714Y-30183574D02*
X46946429Y-30195479D01*
X46946429Y-30195479D02*
X46958333Y-30207384D01*
X47184524Y-30183574D02*
X47065476Y-30183574D01*
X47065476Y-30183574D02*
X47053572Y-30302622D01*
X47053572Y-30302622D02*
X47065476Y-30290717D01*
X47065476Y-30290717D02*
X47089286Y-30278812D01*
X47089286Y-30278812D02*
X47148810Y-30278812D01*
X47148810Y-30278812D02*
X47172619Y-30290717D01*
X47172619Y-30290717D02*
X47184524Y-30302622D01*
X47184524Y-30302622D02*
X47196429Y-30326431D01*
X47196429Y-30326431D02*
X47196429Y-30385955D01*
X47196429Y-30385955D02*
X47184524Y-30409765D01*
X47184524Y-30409765D02*
X47172619Y-30421670D01*
X47172619Y-30421670D02*
X47148810Y-30433574D01*
X47148810Y-30433574D02*
X47089286Y-30433574D01*
X47089286Y-30433574D02*
X47065476Y-30421670D01*
X47065476Y-30421670D02*
X47053572Y-30409765D01*
X21958333Y-32113574D02*
X21839285Y-32113574D01*
X21839285Y-32113574D02*
X21839285Y-31863574D01*
X22172619Y-32113574D02*
X22029762Y-32113574D01*
X22101190Y-32113574D02*
X22101190Y-31863574D01*
X22101190Y-31863574D02*
X22077381Y-31899289D01*
X22077381Y-31899289D02*
X22053571Y-31923098D01*
X22053571Y-31923098D02*
X22029762Y-31935003D01*
X18089765Y-50160714D02*
X18101670Y-50172618D01*
X18101670Y-50172618D02*
X18113574Y-50208333D01*
X18113574Y-50208333D02*
X18113574Y-50232142D01*
X18113574Y-50232142D02*
X18101670Y-50267856D01*
X18101670Y-50267856D02*
X18077860Y-50291666D01*
X18077860Y-50291666D02*
X18054050Y-50303571D01*
X18054050Y-50303571D02*
X18006431Y-50315475D01*
X18006431Y-50315475D02*
X17970717Y-50315475D01*
X17970717Y-50315475D02*
X17923098Y-50303571D01*
X17923098Y-50303571D02*
X17899289Y-50291666D01*
X17899289Y-50291666D02*
X17875479Y-50267856D01*
X17875479Y-50267856D02*
X17863574Y-50232142D01*
X17863574Y-50232142D02*
X17863574Y-50208333D01*
X17863574Y-50208333D02*
X17875479Y-50172618D01*
X17875479Y-50172618D02*
X17887384Y-50160714D01*
X17863574Y-50077380D02*
X17863574Y-49922618D01*
X17863574Y-49922618D02*
X17958812Y-50005952D01*
X17958812Y-50005952D02*
X17958812Y-49970237D01*
X17958812Y-49970237D02*
X17970717Y-49946428D01*
X17970717Y-49946428D02*
X17982622Y-49934523D01*
X17982622Y-49934523D02*
X18006431Y-49922618D01*
X18006431Y-49922618D02*
X18065955Y-49922618D01*
X18065955Y-49922618D02*
X18089765Y-49934523D01*
X18089765Y-49934523D02*
X18101670Y-49946428D01*
X18101670Y-49946428D02*
X18113574Y-49970237D01*
X18113574Y-49970237D02*
X18113574Y-50041666D01*
X18113574Y-50041666D02*
X18101670Y-50065475D01*
X18101670Y-50065475D02*
X18089765Y-50077380D01*
X17863574Y-49767857D02*
X17863574Y-49744047D01*
X17863574Y-49744047D02*
X17875479Y-49720238D01*
X17875479Y-49720238D02*
X17887384Y-49708333D01*
X17887384Y-49708333D02*
X17911193Y-49696428D01*
X17911193Y-49696428D02*
X17958812Y-49684523D01*
X17958812Y-49684523D02*
X18018336Y-49684523D01*
X18018336Y-49684523D02*
X18065955Y-49696428D01*
X18065955Y-49696428D02*
X18089765Y-49708333D01*
X18089765Y-49708333D02*
X18101670Y-49720238D01*
X18101670Y-49720238D02*
X18113574Y-49744047D01*
X18113574Y-49744047D02*
X18113574Y-49767857D01*
X18113574Y-49767857D02*
X18101670Y-49791666D01*
X18101670Y-49791666D02*
X18089765Y-49803571D01*
X18089765Y-49803571D02*
X18065955Y-49815476D01*
X18065955Y-49815476D02*
X18018336Y-49827380D01*
X18018336Y-49827380D02*
X17958812Y-49827380D01*
X17958812Y-49827380D02*
X17911193Y-49815476D01*
X17911193Y-49815476D02*
X17887384Y-49803571D01*
X17887384Y-49803571D02*
X17875479Y-49791666D01*
X17875479Y-49791666D02*
X17863574Y-49767857D01*
X46958333Y-26409765D02*
X46946429Y-26421670D01*
X46946429Y-26421670D02*
X46910714Y-26433574D01*
X46910714Y-26433574D02*
X46886905Y-26433574D01*
X46886905Y-26433574D02*
X46851191Y-26421670D01*
X46851191Y-26421670D02*
X46827381Y-26397860D01*
X46827381Y-26397860D02*
X46815476Y-26374050D01*
X46815476Y-26374050D02*
X46803572Y-26326431D01*
X46803572Y-26326431D02*
X46803572Y-26290717D01*
X46803572Y-26290717D02*
X46815476Y-26243098D01*
X46815476Y-26243098D02*
X46827381Y-26219289D01*
X46827381Y-26219289D02*
X46851191Y-26195479D01*
X46851191Y-26195479D02*
X46886905Y-26183574D01*
X46886905Y-26183574D02*
X46910714Y-26183574D01*
X46910714Y-26183574D02*
X46946429Y-26195479D01*
X46946429Y-26195479D02*
X46958333Y-26207384D01*
X47172619Y-26183574D02*
X47125000Y-26183574D01*
X47125000Y-26183574D02*
X47101191Y-26195479D01*
X47101191Y-26195479D02*
X47089286Y-26207384D01*
X47089286Y-26207384D02*
X47065476Y-26243098D01*
X47065476Y-26243098D02*
X47053572Y-26290717D01*
X47053572Y-26290717D02*
X47053572Y-26385955D01*
X47053572Y-26385955D02*
X47065476Y-26409765D01*
X47065476Y-26409765D02*
X47077381Y-26421670D01*
X47077381Y-26421670D02*
X47101191Y-26433574D01*
X47101191Y-26433574D02*
X47148810Y-26433574D01*
X47148810Y-26433574D02*
X47172619Y-26421670D01*
X47172619Y-26421670D02*
X47184524Y-26409765D01*
X47184524Y-26409765D02*
X47196429Y-26385955D01*
X47196429Y-26385955D02*
X47196429Y-26326431D01*
X47196429Y-26326431D02*
X47184524Y-26302622D01*
X47184524Y-26302622D02*
X47172619Y-26290717D01*
X47172619Y-26290717D02*
X47148810Y-26278812D01*
X47148810Y-26278812D02*
X47101191Y-26278812D01*
X47101191Y-26278812D02*
X47077381Y-26290717D01*
X47077381Y-26290717D02*
X47065476Y-26302622D01*
X47065476Y-26302622D02*
X47053572Y-26326431D01*
D11*
X95666666Y-49994819D02*
X95666666Y-50709104D01*
X95666666Y-50709104D02*
X95619047Y-50851961D01*
X95619047Y-50851961D02*
X95523809Y-50947200D01*
X95523809Y-50947200D02*
X95380952Y-50994819D01*
X95380952Y-50994819D02*
X95285714Y-50994819D01*
X96047619Y-49994819D02*
X96714285Y-49994819D01*
X96714285Y-49994819D02*
X96285714Y-50994819D01*
D15*
X73965244Y-18416665D02*
X73965244Y-18583332D01*
X74227149Y-18583332D02*
X73727149Y-18583332D01*
X73727149Y-18583332D02*
X73727149Y-18345237D01*
X73965244Y-17988094D02*
X73989054Y-17916666D01*
X73989054Y-17916666D02*
X74012863Y-17892856D01*
X74012863Y-17892856D02*
X74060482Y-17869047D01*
X74060482Y-17869047D02*
X74131911Y-17869047D01*
X74131911Y-17869047D02*
X74179530Y-17892856D01*
X74179530Y-17892856D02*
X74203340Y-17916666D01*
X74203340Y-17916666D02*
X74227149Y-17964285D01*
X74227149Y-17964285D02*
X74227149Y-18154761D01*
X74227149Y-18154761D02*
X73727149Y-18154761D01*
X73727149Y-18154761D02*
X73727149Y-17988094D01*
X73727149Y-17988094D02*
X73750959Y-17940475D01*
X73750959Y-17940475D02*
X73774768Y-17916666D01*
X73774768Y-17916666D02*
X73822387Y-17892856D01*
X73822387Y-17892856D02*
X73870006Y-17892856D01*
X73870006Y-17892856D02*
X73917625Y-17916666D01*
X73917625Y-17916666D02*
X73941435Y-17940475D01*
X73941435Y-17940475D02*
X73965244Y-17988094D01*
X73965244Y-17988094D02*
X73965244Y-18154761D01*
X73893816Y-17440475D02*
X74227149Y-17440475D01*
X73703340Y-17559523D02*
X74060482Y-17678570D01*
X74060482Y-17678570D02*
X74060482Y-17369047D01*
D12*
X67666667Y-17972403D02*
X67533334Y-17972403D01*
X67533334Y-18181927D02*
X67533334Y-17781927D01*
X67533334Y-17781927D02*
X67723810Y-17781927D01*
X68009524Y-17972403D02*
X68066667Y-17991451D01*
X68066667Y-17991451D02*
X68085714Y-18010499D01*
X68085714Y-18010499D02*
X68104762Y-18048594D01*
X68104762Y-18048594D02*
X68104762Y-18105737D01*
X68104762Y-18105737D02*
X68085714Y-18143832D01*
X68085714Y-18143832D02*
X68066667Y-18162880D01*
X68066667Y-18162880D02*
X68028572Y-18181927D01*
X68028572Y-18181927D02*
X67876191Y-18181927D01*
X67876191Y-18181927D02*
X67876191Y-17781927D01*
X67876191Y-17781927D02*
X68009524Y-17781927D01*
X68009524Y-17781927D02*
X68047619Y-17800975D01*
X68047619Y-17800975D02*
X68066667Y-17820022D01*
X68066667Y-17820022D02*
X68085714Y-17858118D01*
X68085714Y-17858118D02*
X68085714Y-17896213D01*
X68085714Y-17896213D02*
X68066667Y-17934308D01*
X68066667Y-17934308D02*
X68047619Y-17953356D01*
X68047619Y-17953356D02*
X68009524Y-17972403D01*
X68009524Y-17972403D02*
X67876191Y-17972403D01*
X68238095Y-17781927D02*
X68485714Y-17781927D01*
X68485714Y-17781927D02*
X68352381Y-17934308D01*
X68352381Y-17934308D02*
X68409524Y-17934308D01*
X68409524Y-17934308D02*
X68447619Y-17953356D01*
X68447619Y-17953356D02*
X68466667Y-17972403D01*
X68466667Y-17972403D02*
X68485714Y-18010499D01*
X68485714Y-18010499D02*
X68485714Y-18105737D01*
X68485714Y-18105737D02*
X68466667Y-18143832D01*
X68466667Y-18143832D02*
X68447619Y-18162880D01*
X68447619Y-18162880D02*
X68409524Y-18181927D01*
X68409524Y-18181927D02*
X68295238Y-18181927D01*
X68295238Y-18181927D02*
X68257143Y-18162880D01*
X68257143Y-18162880D02*
X68238095Y-18143832D01*
D11*
X87320476Y-75454819D02*
X87320476Y-76169104D01*
X87320476Y-76169104D02*
X87272857Y-76311961D01*
X87272857Y-76311961D02*
X87177619Y-76407200D01*
X87177619Y-76407200D02*
X87034762Y-76454819D01*
X87034762Y-76454819D02*
X86939524Y-76454819D01*
X88320476Y-76454819D02*
X87749048Y-76454819D01*
X88034762Y-76454819D02*
X88034762Y-75454819D01*
X88034762Y-75454819D02*
X87939524Y-75597676D01*
X87939524Y-75597676D02*
X87844286Y-75692914D01*
X87844286Y-75692914D02*
X87749048Y-75740533D01*
X88653810Y-75454819D02*
X89272857Y-75454819D01*
X89272857Y-75454819D02*
X88939524Y-75835771D01*
X88939524Y-75835771D02*
X89082381Y-75835771D01*
X89082381Y-75835771D02*
X89177619Y-75883390D01*
X89177619Y-75883390D02*
X89225238Y-75931009D01*
X89225238Y-75931009D02*
X89272857Y-76026247D01*
X89272857Y-76026247D02*
X89272857Y-76264342D01*
X89272857Y-76264342D02*
X89225238Y-76359580D01*
X89225238Y-76359580D02*
X89177619Y-76407200D01*
X89177619Y-76407200D02*
X89082381Y-76454819D01*
X89082381Y-76454819D02*
X88796667Y-76454819D01*
X88796667Y-76454819D02*
X88701429Y-76407200D01*
X88701429Y-76407200D02*
X88653810Y-76359580D01*
D10*
X21839285Y-35769765D02*
X21827381Y-35781670D01*
X21827381Y-35781670D02*
X21791666Y-35793574D01*
X21791666Y-35793574D02*
X21767857Y-35793574D01*
X21767857Y-35793574D02*
X21732143Y-35781670D01*
X21732143Y-35781670D02*
X21708333Y-35757860D01*
X21708333Y-35757860D02*
X21696428Y-35734050D01*
X21696428Y-35734050D02*
X21684524Y-35686431D01*
X21684524Y-35686431D02*
X21684524Y-35650717D01*
X21684524Y-35650717D02*
X21696428Y-35603098D01*
X21696428Y-35603098D02*
X21708333Y-35579289D01*
X21708333Y-35579289D02*
X21732143Y-35555479D01*
X21732143Y-35555479D02*
X21767857Y-35543574D01*
X21767857Y-35543574D02*
X21791666Y-35543574D01*
X21791666Y-35543574D02*
X21827381Y-35555479D01*
X21827381Y-35555479D02*
X21839285Y-35567384D01*
X21934524Y-35567384D02*
X21946428Y-35555479D01*
X21946428Y-35555479D02*
X21970238Y-35543574D01*
X21970238Y-35543574D02*
X22029762Y-35543574D01*
X22029762Y-35543574D02*
X22053571Y-35555479D01*
X22053571Y-35555479D02*
X22065476Y-35567384D01*
X22065476Y-35567384D02*
X22077381Y-35591193D01*
X22077381Y-35591193D02*
X22077381Y-35615003D01*
X22077381Y-35615003D02*
X22065476Y-35650717D01*
X22065476Y-35650717D02*
X21922619Y-35793574D01*
X21922619Y-35793574D02*
X22077381Y-35793574D01*
X22160714Y-35543574D02*
X22327380Y-35543574D01*
X22327380Y-35543574D02*
X22220238Y-35793574D01*
X85832857Y-26118200D02*
X85746190Y-25994391D01*
X85684285Y-26118200D02*
X85684285Y-25858200D01*
X85684285Y-25858200D02*
X85783333Y-25858200D01*
X85783333Y-25858200D02*
X85808095Y-25870581D01*
X85808095Y-25870581D02*
X85820476Y-25882962D01*
X85820476Y-25882962D02*
X85832857Y-25907724D01*
X85832857Y-25907724D02*
X85832857Y-25944867D01*
X85832857Y-25944867D02*
X85820476Y-25969629D01*
X85820476Y-25969629D02*
X85808095Y-25982010D01*
X85808095Y-25982010D02*
X85783333Y-25994391D01*
X85783333Y-25994391D02*
X85684285Y-25994391D01*
X86080476Y-26118200D02*
X85931904Y-26118200D01*
X86006190Y-26118200D02*
X86006190Y-25858200D01*
X86006190Y-25858200D02*
X85981428Y-25895343D01*
X85981428Y-25895343D02*
X85956666Y-25920105D01*
X85956666Y-25920105D02*
X85931904Y-25932486D01*
X86303333Y-25944867D02*
X86303333Y-26118200D01*
X86241428Y-25845820D02*
X86179523Y-26031534D01*
X86179523Y-26031534D02*
X86340476Y-26031534D01*
D12*
X91704762Y-14181927D02*
X91704762Y-13781927D01*
X91704762Y-13781927D02*
X91800000Y-13781927D01*
X91800000Y-13781927D02*
X91857143Y-13800975D01*
X91857143Y-13800975D02*
X91895238Y-13839070D01*
X91895238Y-13839070D02*
X91914285Y-13877165D01*
X91914285Y-13877165D02*
X91933333Y-13953356D01*
X91933333Y-13953356D02*
X91933333Y-14010499D01*
X91933333Y-14010499D02*
X91914285Y-14086689D01*
X91914285Y-14086689D02*
X91895238Y-14124784D01*
X91895238Y-14124784D02*
X91857143Y-14162880D01*
X91857143Y-14162880D02*
X91800000Y-14181927D01*
X91800000Y-14181927D02*
X91704762Y-14181927D01*
X92276190Y-13781927D02*
X92200000Y-13781927D01*
X92200000Y-13781927D02*
X92161904Y-13800975D01*
X92161904Y-13800975D02*
X92142857Y-13820022D01*
X92142857Y-13820022D02*
X92104762Y-13877165D01*
X92104762Y-13877165D02*
X92085714Y-13953356D01*
X92085714Y-13953356D02*
X92085714Y-14105737D01*
X92085714Y-14105737D02*
X92104762Y-14143832D01*
X92104762Y-14143832D02*
X92123809Y-14162880D01*
X92123809Y-14162880D02*
X92161904Y-14181927D01*
X92161904Y-14181927D02*
X92238095Y-14181927D01*
X92238095Y-14181927D02*
X92276190Y-14162880D01*
X92276190Y-14162880D02*
X92295238Y-14143832D01*
X92295238Y-14143832D02*
X92314285Y-14105737D01*
X92314285Y-14105737D02*
X92314285Y-14010499D01*
X92314285Y-14010499D02*
X92295238Y-13972403D01*
X92295238Y-13972403D02*
X92276190Y-13953356D01*
X92276190Y-13953356D02*
X92238095Y-13934308D01*
X92238095Y-13934308D02*
X92161904Y-13934308D01*
X92161904Y-13934308D02*
X92123809Y-13953356D01*
X92123809Y-13953356D02*
X92104762Y-13972403D01*
X92104762Y-13972403D02*
X92085714Y-14010499D01*
D11*
X115454819Y-50619523D02*
X116169104Y-50619523D01*
X116169104Y-50619523D02*
X116311961Y-50667142D01*
X116311961Y-50667142D02*
X116407200Y-50762380D01*
X116407200Y-50762380D02*
X116454819Y-50905237D01*
X116454819Y-50905237D02*
X116454819Y-51000475D01*
X116454819Y-49619523D02*
X116454819Y-50190951D01*
X116454819Y-49905237D02*
X115454819Y-49905237D01*
X115454819Y-49905237D02*
X115597676Y-50000475D01*
X115597676Y-50000475D02*
X115692914Y-50095713D01*
X115692914Y-50095713D02*
X115740533Y-50190951D01*
X116454819Y-48667142D02*
X116454819Y-49238570D01*
X116454819Y-48952856D02*
X115454819Y-48952856D01*
X115454819Y-48952856D02*
X115597676Y-49048094D01*
X115597676Y-49048094D02*
X115692914Y-49143332D01*
X115692914Y-49143332D02*
X115740533Y-49238570D01*
X72261905Y-19804819D02*
X72833333Y-19804819D01*
X72547619Y-20804819D02*
X72547619Y-19804819D01*
X73166667Y-20804819D02*
X73166667Y-19804819D01*
X73166667Y-19804819D02*
X73547619Y-19804819D01*
X73547619Y-19804819D02*
X73642857Y-19852438D01*
X73642857Y-19852438D02*
X73690476Y-19900057D01*
X73690476Y-19900057D02*
X73738095Y-19995295D01*
X73738095Y-19995295D02*
X73738095Y-20138152D01*
X73738095Y-20138152D02*
X73690476Y-20233390D01*
X73690476Y-20233390D02*
X73642857Y-20281009D01*
X73642857Y-20281009D02*
X73547619Y-20328628D01*
X73547619Y-20328628D02*
X73166667Y-20328628D01*
X74690476Y-20804819D02*
X74119048Y-20804819D01*
X74404762Y-20804819D02*
X74404762Y-19804819D01*
X74404762Y-19804819D02*
X74309524Y-19947676D01*
X74309524Y-19947676D02*
X74214286Y-20042914D01*
X74214286Y-20042914D02*
X74119048Y-20090533D01*
X75595238Y-19804819D02*
X75119048Y-19804819D01*
X75119048Y-19804819D02*
X75071429Y-20281009D01*
X75071429Y-20281009D02*
X75119048Y-20233390D01*
X75119048Y-20233390D02*
X75214286Y-20185771D01*
X75214286Y-20185771D02*
X75452381Y-20185771D01*
X75452381Y-20185771D02*
X75547619Y-20233390D01*
X75547619Y-20233390D02*
X75595238Y-20281009D01*
X75595238Y-20281009D02*
X75642857Y-20376247D01*
X75642857Y-20376247D02*
X75642857Y-20614342D01*
X75642857Y-20614342D02*
X75595238Y-20709580D01*
X75595238Y-20709580D02*
X75547619Y-20757200D01*
X75547619Y-20757200D02*
X75452381Y-20804819D01*
X75452381Y-20804819D02*
X75214286Y-20804819D01*
X75214286Y-20804819D02*
X75119048Y-20757200D01*
X75119048Y-20757200D02*
X75071429Y-20709580D01*
X88738095Y-34004819D02*
X89309523Y-34004819D01*
X89023809Y-35004819D02*
X89023809Y-34004819D01*
X89642857Y-35004819D02*
X89642857Y-34004819D01*
X89642857Y-34004819D02*
X90023809Y-34004819D01*
X90023809Y-34004819D02*
X90119047Y-34052438D01*
X90119047Y-34052438D02*
X90166666Y-34100057D01*
X90166666Y-34100057D02*
X90214285Y-34195295D01*
X90214285Y-34195295D02*
X90214285Y-34338152D01*
X90214285Y-34338152D02*
X90166666Y-34433390D01*
X90166666Y-34433390D02*
X90119047Y-34481009D01*
X90119047Y-34481009D02*
X90023809Y-34528628D01*
X90023809Y-34528628D02*
X89642857Y-34528628D01*
X91071428Y-34004819D02*
X90880952Y-34004819D01*
X90880952Y-34004819D02*
X90785714Y-34052438D01*
X90785714Y-34052438D02*
X90738095Y-34100057D01*
X90738095Y-34100057D02*
X90642857Y-34242914D01*
X90642857Y-34242914D02*
X90595238Y-34433390D01*
X90595238Y-34433390D02*
X90595238Y-34814342D01*
X90595238Y-34814342D02*
X90642857Y-34909580D01*
X90642857Y-34909580D02*
X90690476Y-34957200D01*
X90690476Y-34957200D02*
X90785714Y-35004819D01*
X90785714Y-35004819D02*
X90976190Y-35004819D01*
X90976190Y-35004819D02*
X91071428Y-34957200D01*
X91071428Y-34957200D02*
X91119047Y-34909580D01*
X91119047Y-34909580D02*
X91166666Y-34814342D01*
X91166666Y-34814342D02*
X91166666Y-34576247D01*
X91166666Y-34576247D02*
X91119047Y-34481009D01*
X91119047Y-34481009D02*
X91071428Y-34433390D01*
X91071428Y-34433390D02*
X90976190Y-34385771D01*
X90976190Y-34385771D02*
X90785714Y-34385771D01*
X90785714Y-34385771D02*
X90690476Y-34433390D01*
X90690476Y-34433390D02*
X90642857Y-34481009D01*
X90642857Y-34481009D02*
X90595238Y-34576247D01*
X10738095Y-30804819D02*
X11309523Y-30804819D01*
X11023809Y-31804819D02*
X11023809Y-30804819D01*
X11642857Y-31804819D02*
X11642857Y-30804819D01*
X11642857Y-30804819D02*
X12023809Y-30804819D01*
X12023809Y-30804819D02*
X12119047Y-30852438D01*
X12119047Y-30852438D02*
X12166666Y-30900057D01*
X12166666Y-30900057D02*
X12214285Y-30995295D01*
X12214285Y-30995295D02*
X12214285Y-31138152D01*
X12214285Y-31138152D02*
X12166666Y-31233390D01*
X12166666Y-31233390D02*
X12119047Y-31281009D01*
X12119047Y-31281009D02*
X12023809Y-31328628D01*
X12023809Y-31328628D02*
X11642857Y-31328628D01*
X13166666Y-31804819D02*
X12595238Y-31804819D01*
X12880952Y-31804819D02*
X12880952Y-30804819D01*
X12880952Y-30804819D02*
X12785714Y-30947676D01*
X12785714Y-30947676D02*
X12690476Y-31042914D01*
X12690476Y-31042914D02*
X12595238Y-31090533D01*
X34261905Y-17804819D02*
X34833333Y-17804819D01*
X34547619Y-18804819D02*
X34547619Y-17804819D01*
X35166667Y-18804819D02*
X35166667Y-17804819D01*
X35166667Y-17804819D02*
X35547619Y-17804819D01*
X35547619Y-17804819D02*
X35642857Y-17852438D01*
X35642857Y-17852438D02*
X35690476Y-17900057D01*
X35690476Y-17900057D02*
X35738095Y-17995295D01*
X35738095Y-17995295D02*
X35738095Y-18138152D01*
X35738095Y-18138152D02*
X35690476Y-18233390D01*
X35690476Y-18233390D02*
X35642857Y-18281009D01*
X35642857Y-18281009D02*
X35547619Y-18328628D01*
X35547619Y-18328628D02*
X35166667Y-18328628D01*
X36690476Y-18804819D02*
X36119048Y-18804819D01*
X36404762Y-18804819D02*
X36404762Y-17804819D01*
X36404762Y-17804819D02*
X36309524Y-17947676D01*
X36309524Y-17947676D02*
X36214286Y-18042914D01*
X36214286Y-18042914D02*
X36119048Y-18090533D01*
X37261905Y-18233390D02*
X37166667Y-18185771D01*
X37166667Y-18185771D02*
X37119048Y-18138152D01*
X37119048Y-18138152D02*
X37071429Y-18042914D01*
X37071429Y-18042914D02*
X37071429Y-17995295D01*
X37071429Y-17995295D02*
X37119048Y-17900057D01*
X37119048Y-17900057D02*
X37166667Y-17852438D01*
X37166667Y-17852438D02*
X37261905Y-17804819D01*
X37261905Y-17804819D02*
X37452381Y-17804819D01*
X37452381Y-17804819D02*
X37547619Y-17852438D01*
X37547619Y-17852438D02*
X37595238Y-17900057D01*
X37595238Y-17900057D02*
X37642857Y-17995295D01*
X37642857Y-17995295D02*
X37642857Y-18042914D01*
X37642857Y-18042914D02*
X37595238Y-18138152D01*
X37595238Y-18138152D02*
X37547619Y-18185771D01*
X37547619Y-18185771D02*
X37452381Y-18233390D01*
X37452381Y-18233390D02*
X37261905Y-18233390D01*
X37261905Y-18233390D02*
X37166667Y-18281009D01*
X37166667Y-18281009D02*
X37119048Y-18328628D01*
X37119048Y-18328628D02*
X37071429Y-18423866D01*
X37071429Y-18423866D02*
X37071429Y-18614342D01*
X37071429Y-18614342D02*
X37119048Y-18709580D01*
X37119048Y-18709580D02*
X37166667Y-18757200D01*
X37166667Y-18757200D02*
X37261905Y-18804819D01*
X37261905Y-18804819D02*
X37452381Y-18804819D01*
X37452381Y-18804819D02*
X37547619Y-18757200D01*
X37547619Y-18757200D02*
X37595238Y-18709580D01*
X37595238Y-18709580D02*
X37642857Y-18614342D01*
X37642857Y-18614342D02*
X37642857Y-18423866D01*
X37642857Y-18423866D02*
X37595238Y-18328628D01*
X37595238Y-18328628D02*
X37547619Y-18281009D01*
X37547619Y-18281009D02*
X37452381Y-18233390D01*
X76261905Y-29804819D02*
X76833333Y-29804819D01*
X76547619Y-30804819D02*
X76547619Y-29804819D01*
X77166667Y-30804819D02*
X77166667Y-29804819D01*
X77166667Y-29804819D02*
X77547619Y-29804819D01*
X77547619Y-29804819D02*
X77642857Y-29852438D01*
X77642857Y-29852438D02*
X77690476Y-29900057D01*
X77690476Y-29900057D02*
X77738095Y-29995295D01*
X77738095Y-29995295D02*
X77738095Y-30138152D01*
X77738095Y-30138152D02*
X77690476Y-30233390D01*
X77690476Y-30233390D02*
X77642857Y-30281009D01*
X77642857Y-30281009D02*
X77547619Y-30328628D01*
X77547619Y-30328628D02*
X77166667Y-30328628D01*
X78690476Y-30804819D02*
X78119048Y-30804819D01*
X78404762Y-30804819D02*
X78404762Y-29804819D01*
X78404762Y-29804819D02*
X78309524Y-29947676D01*
X78309524Y-29947676D02*
X78214286Y-30042914D01*
X78214286Y-30042914D02*
X78119048Y-30090533D01*
X79023810Y-29804819D02*
X79642857Y-29804819D01*
X79642857Y-29804819D02*
X79309524Y-30185771D01*
X79309524Y-30185771D02*
X79452381Y-30185771D01*
X79452381Y-30185771D02*
X79547619Y-30233390D01*
X79547619Y-30233390D02*
X79595238Y-30281009D01*
X79595238Y-30281009D02*
X79642857Y-30376247D01*
X79642857Y-30376247D02*
X79642857Y-30614342D01*
X79642857Y-30614342D02*
X79595238Y-30709580D01*
X79595238Y-30709580D02*
X79547619Y-30757200D01*
X79547619Y-30757200D02*
X79452381Y-30804819D01*
X79452381Y-30804819D02*
X79166667Y-30804819D01*
X79166667Y-30804819D02*
X79071429Y-30757200D01*
X79071429Y-30757200D02*
X79023810Y-30709580D01*
D15*
X59916666Y-36179530D02*
X59892857Y-36203340D01*
X59892857Y-36203340D02*
X59821428Y-36227149D01*
X59821428Y-36227149D02*
X59773809Y-36227149D01*
X59773809Y-36227149D02*
X59702381Y-36203340D01*
X59702381Y-36203340D02*
X59654762Y-36155720D01*
X59654762Y-36155720D02*
X59630952Y-36108101D01*
X59630952Y-36108101D02*
X59607143Y-36012863D01*
X59607143Y-36012863D02*
X59607143Y-35941435D01*
X59607143Y-35941435D02*
X59630952Y-35846197D01*
X59630952Y-35846197D02*
X59654762Y-35798578D01*
X59654762Y-35798578D02*
X59702381Y-35750959D01*
X59702381Y-35750959D02*
X59773809Y-35727149D01*
X59773809Y-35727149D02*
X59821428Y-35727149D01*
X59821428Y-35727149D02*
X59892857Y-35750959D01*
X59892857Y-35750959D02*
X59916666Y-35774768D01*
X60083333Y-35727149D02*
X60416666Y-35727149D01*
X60416666Y-35727149D02*
X60202381Y-36227149D01*
D10*
X91832857Y-18118200D02*
X91746190Y-17994391D01*
X91684285Y-18118200D02*
X91684285Y-17858200D01*
X91684285Y-17858200D02*
X91783333Y-17858200D01*
X91783333Y-17858200D02*
X91808095Y-17870581D01*
X91808095Y-17870581D02*
X91820476Y-17882962D01*
X91820476Y-17882962D02*
X91832857Y-17907724D01*
X91832857Y-17907724D02*
X91832857Y-17944867D01*
X91832857Y-17944867D02*
X91820476Y-17969629D01*
X91820476Y-17969629D02*
X91808095Y-17982010D01*
X91808095Y-17982010D02*
X91783333Y-17994391D01*
X91783333Y-17994391D02*
X91684285Y-17994391D01*
X92080476Y-18118200D02*
X91931904Y-18118200D01*
X92006190Y-18118200D02*
X92006190Y-17858200D01*
X92006190Y-17858200D02*
X91981428Y-17895343D01*
X91981428Y-17895343D02*
X91956666Y-17920105D01*
X91956666Y-17920105D02*
X91931904Y-17932486D01*
X92179523Y-17882962D02*
X92191904Y-17870581D01*
X92191904Y-17870581D02*
X92216666Y-17858200D01*
X92216666Y-17858200D02*
X92278571Y-17858200D01*
X92278571Y-17858200D02*
X92303333Y-17870581D01*
X92303333Y-17870581D02*
X92315714Y-17882962D01*
X92315714Y-17882962D02*
X92328095Y-17907724D01*
X92328095Y-17907724D02*
X92328095Y-17932486D01*
X92328095Y-17932486D02*
X92315714Y-17969629D01*
X92315714Y-17969629D02*
X92167142Y-18118200D01*
X92167142Y-18118200D02*
X92328095Y-18118200D01*
X71839285Y-47409765D02*
X71827381Y-47421670D01*
X71827381Y-47421670D02*
X71791666Y-47433574D01*
X71791666Y-47433574D02*
X71767857Y-47433574D01*
X71767857Y-47433574D02*
X71732143Y-47421670D01*
X71732143Y-47421670D02*
X71708333Y-47397860D01*
X71708333Y-47397860D02*
X71696428Y-47374050D01*
X71696428Y-47374050D02*
X71684524Y-47326431D01*
X71684524Y-47326431D02*
X71684524Y-47290717D01*
X71684524Y-47290717D02*
X71696428Y-47243098D01*
X71696428Y-47243098D02*
X71708333Y-47219289D01*
X71708333Y-47219289D02*
X71732143Y-47195479D01*
X71732143Y-47195479D02*
X71767857Y-47183574D01*
X71767857Y-47183574D02*
X71791666Y-47183574D01*
X71791666Y-47183574D02*
X71827381Y-47195479D01*
X71827381Y-47195479D02*
X71839285Y-47207384D01*
X71922619Y-47183574D02*
X72077381Y-47183574D01*
X72077381Y-47183574D02*
X71994047Y-47278812D01*
X71994047Y-47278812D02*
X72029762Y-47278812D01*
X72029762Y-47278812D02*
X72053571Y-47290717D01*
X72053571Y-47290717D02*
X72065476Y-47302622D01*
X72065476Y-47302622D02*
X72077381Y-47326431D01*
X72077381Y-47326431D02*
X72077381Y-47385955D01*
X72077381Y-47385955D02*
X72065476Y-47409765D01*
X72065476Y-47409765D02*
X72053571Y-47421670D01*
X72053571Y-47421670D02*
X72029762Y-47433574D01*
X72029762Y-47433574D02*
X71958333Y-47433574D01*
X71958333Y-47433574D02*
X71934524Y-47421670D01*
X71934524Y-47421670D02*
X71922619Y-47409765D01*
X72291666Y-47183574D02*
X72244047Y-47183574D01*
X72244047Y-47183574D02*
X72220238Y-47195479D01*
X72220238Y-47195479D02*
X72208333Y-47207384D01*
X72208333Y-47207384D02*
X72184523Y-47243098D01*
X72184523Y-47243098D02*
X72172619Y-47290717D01*
X72172619Y-47290717D02*
X72172619Y-47385955D01*
X72172619Y-47385955D02*
X72184523Y-47409765D01*
X72184523Y-47409765D02*
X72196428Y-47421670D01*
X72196428Y-47421670D02*
X72220238Y-47433574D01*
X72220238Y-47433574D02*
X72267857Y-47433574D01*
X72267857Y-47433574D02*
X72291666Y-47421670D01*
X72291666Y-47421670D02*
X72303571Y-47409765D01*
X72303571Y-47409765D02*
X72315476Y-47385955D01*
X72315476Y-47385955D02*
X72315476Y-47326431D01*
X72315476Y-47326431D02*
X72303571Y-47302622D01*
X72303571Y-47302622D02*
X72291666Y-47290717D01*
X72291666Y-47290717D02*
X72267857Y-47278812D01*
X72267857Y-47278812D02*
X72220238Y-47278812D01*
X72220238Y-47278812D02*
X72196428Y-47290717D01*
X72196428Y-47290717D02*
X72184523Y-47302622D01*
X72184523Y-47302622D02*
X72172619Y-47326431D01*
X49433574Y-22041666D02*
X49314527Y-22124999D01*
X49433574Y-22184523D02*
X49183574Y-22184523D01*
X49183574Y-22184523D02*
X49183574Y-22089285D01*
X49183574Y-22089285D02*
X49195479Y-22065475D01*
X49195479Y-22065475D02*
X49207384Y-22053570D01*
X49207384Y-22053570D02*
X49231193Y-22041666D01*
X49231193Y-22041666D02*
X49266908Y-22041666D01*
X49266908Y-22041666D02*
X49290717Y-22053570D01*
X49290717Y-22053570D02*
X49302622Y-22065475D01*
X49302622Y-22065475D02*
X49314527Y-22089285D01*
X49314527Y-22089285D02*
X49314527Y-22184523D01*
X49433574Y-21803570D02*
X49433574Y-21946427D01*
X49433574Y-21874999D02*
X49183574Y-21874999D01*
X49183574Y-21874999D02*
X49219289Y-21898808D01*
X49219289Y-21898808D02*
X49243098Y-21922618D01*
X49243098Y-21922618D02*
X49255003Y-21946427D01*
X11839285Y-40089765D02*
X11827381Y-40101670D01*
X11827381Y-40101670D02*
X11791666Y-40113574D01*
X11791666Y-40113574D02*
X11767857Y-40113574D01*
X11767857Y-40113574D02*
X11732143Y-40101670D01*
X11732143Y-40101670D02*
X11708333Y-40077860D01*
X11708333Y-40077860D02*
X11696428Y-40054050D01*
X11696428Y-40054050D02*
X11684524Y-40006431D01*
X11684524Y-40006431D02*
X11684524Y-39970717D01*
X11684524Y-39970717D02*
X11696428Y-39923098D01*
X11696428Y-39923098D02*
X11708333Y-39899289D01*
X11708333Y-39899289D02*
X11732143Y-39875479D01*
X11732143Y-39875479D02*
X11767857Y-39863574D01*
X11767857Y-39863574D02*
X11791666Y-39863574D01*
X11791666Y-39863574D02*
X11827381Y-39875479D01*
X11827381Y-39875479D02*
X11839285Y-39887384D01*
X11922619Y-39863574D02*
X12077381Y-39863574D01*
X12077381Y-39863574D02*
X11994047Y-39958812D01*
X11994047Y-39958812D02*
X12029762Y-39958812D01*
X12029762Y-39958812D02*
X12053571Y-39970717D01*
X12053571Y-39970717D02*
X12065476Y-39982622D01*
X12065476Y-39982622D02*
X12077381Y-40006431D01*
X12077381Y-40006431D02*
X12077381Y-40065955D01*
X12077381Y-40065955D02*
X12065476Y-40089765D01*
X12065476Y-40089765D02*
X12053571Y-40101670D01*
X12053571Y-40101670D02*
X12029762Y-40113574D01*
X12029762Y-40113574D02*
X11958333Y-40113574D01*
X11958333Y-40113574D02*
X11934524Y-40101670D01*
X11934524Y-40101670D02*
X11922619Y-40089765D01*
X12172619Y-39887384D02*
X12184523Y-39875479D01*
X12184523Y-39875479D02*
X12208333Y-39863574D01*
X12208333Y-39863574D02*
X12267857Y-39863574D01*
X12267857Y-39863574D02*
X12291666Y-39875479D01*
X12291666Y-39875479D02*
X12303571Y-39887384D01*
X12303571Y-39887384D02*
X12315476Y-39911193D01*
X12315476Y-39911193D02*
X12315476Y-39935003D01*
X12315476Y-39935003D02*
X12303571Y-39970717D01*
X12303571Y-39970717D02*
X12160714Y-40113574D01*
X12160714Y-40113574D02*
X12315476Y-40113574D01*
D16*
X73607365Y-40548571D02*
X74190222Y-40548571D01*
X74190222Y-40548571D02*
X74258794Y-40514285D01*
X74258794Y-40514285D02*
X74293080Y-40480000D01*
X74293080Y-40480000D02*
X74327365Y-40411428D01*
X74327365Y-40411428D02*
X74327365Y-40274285D01*
X74327365Y-40274285D02*
X74293080Y-40205714D01*
X74293080Y-40205714D02*
X74258794Y-40171428D01*
X74258794Y-40171428D02*
X74190222Y-40137142D01*
X74190222Y-40137142D02*
X73607365Y-40137142D01*
X73675937Y-39828571D02*
X73641651Y-39794285D01*
X73641651Y-39794285D02*
X73607365Y-39725714D01*
X73607365Y-39725714D02*
X73607365Y-39554285D01*
X73607365Y-39554285D02*
X73641651Y-39485714D01*
X73641651Y-39485714D02*
X73675937Y-39451428D01*
X73675937Y-39451428D02*
X73744508Y-39417142D01*
X73744508Y-39417142D02*
X73813080Y-39417142D01*
X73813080Y-39417142D02*
X73915937Y-39451428D01*
X73915937Y-39451428D02*
X74327365Y-39862856D01*
X74327365Y-39862856D02*
X74327365Y-39417142D01*
D11*
X36738095Y-3804819D02*
X37309523Y-3804819D01*
X37023809Y-4804819D02*
X37023809Y-3804819D01*
X37642857Y-4804819D02*
X37642857Y-3804819D01*
X37642857Y-3804819D02*
X38023809Y-3804819D01*
X38023809Y-3804819D02*
X38119047Y-3852438D01*
X38119047Y-3852438D02*
X38166666Y-3900057D01*
X38166666Y-3900057D02*
X38214285Y-3995295D01*
X38214285Y-3995295D02*
X38214285Y-4138152D01*
X38214285Y-4138152D02*
X38166666Y-4233390D01*
X38166666Y-4233390D02*
X38119047Y-4281009D01*
X38119047Y-4281009D02*
X38023809Y-4328628D01*
X38023809Y-4328628D02*
X37642857Y-4328628D01*
X38547619Y-3804819D02*
X39214285Y-3804819D01*
X39214285Y-3804819D02*
X38785714Y-4804819D01*
D17*
X7799999Y-52147891D02*
X7799999Y-52576462D01*
X7799999Y-52576462D02*
X7771428Y-52662177D01*
X7771428Y-52662177D02*
X7714285Y-52719320D01*
X7714285Y-52719320D02*
X7628571Y-52747891D01*
X7628571Y-52747891D02*
X7571428Y-52747891D01*
X8371428Y-52147891D02*
X8085714Y-52147891D01*
X8085714Y-52147891D02*
X8057142Y-52433605D01*
X8057142Y-52433605D02*
X8085714Y-52405034D01*
X8085714Y-52405034D02*
X8142857Y-52376462D01*
X8142857Y-52376462D02*
X8285714Y-52376462D01*
X8285714Y-52376462D02*
X8342857Y-52405034D01*
X8342857Y-52405034D02*
X8371428Y-52433605D01*
X8371428Y-52433605D02*
X8399999Y-52490748D01*
X8399999Y-52490748D02*
X8399999Y-52633605D01*
X8399999Y-52633605D02*
X8371428Y-52690748D01*
X8371428Y-52690748D02*
X8342857Y-52719320D01*
X8342857Y-52719320D02*
X8285714Y-52747891D01*
X8285714Y-52747891D02*
X8142857Y-52747891D01*
X8142857Y-52747891D02*
X8085714Y-52719320D01*
X8085714Y-52719320D02*
X8057142Y-52690748D01*
X7799999Y-32147891D02*
X7799999Y-32576462D01*
X7799999Y-32576462D02*
X7771428Y-32662177D01*
X7771428Y-32662177D02*
X7714285Y-32719320D01*
X7714285Y-32719320D02*
X7628571Y-32747891D01*
X7628571Y-32747891D02*
X7571428Y-32747891D01*
X8057142Y-32205034D02*
X8085714Y-32176462D01*
X8085714Y-32176462D02*
X8142857Y-32147891D01*
X8142857Y-32147891D02*
X8285714Y-32147891D01*
X8285714Y-32147891D02*
X8342857Y-32176462D01*
X8342857Y-32176462D02*
X8371428Y-32205034D01*
X8371428Y-32205034D02*
X8399999Y-32262177D01*
X8399999Y-32262177D02*
X8399999Y-32319320D01*
X8399999Y-32319320D02*
X8371428Y-32405034D01*
X8371428Y-32405034D02*
X8028571Y-32747891D01*
X8028571Y-32747891D02*
X8399999Y-32747891D01*
D11*
X100738095Y-33804819D02*
X101309523Y-33804819D01*
X101023809Y-34804819D02*
X101023809Y-33804819D01*
X101642857Y-34804819D02*
X101642857Y-33804819D01*
X101642857Y-33804819D02*
X102023809Y-33804819D01*
X102023809Y-33804819D02*
X102119047Y-33852438D01*
X102119047Y-33852438D02*
X102166666Y-33900057D01*
X102166666Y-33900057D02*
X102214285Y-33995295D01*
X102214285Y-33995295D02*
X102214285Y-34138152D01*
X102214285Y-34138152D02*
X102166666Y-34233390D01*
X102166666Y-34233390D02*
X102119047Y-34281009D01*
X102119047Y-34281009D02*
X102023809Y-34328628D01*
X102023809Y-34328628D02*
X101642857Y-34328628D01*
X102690476Y-34804819D02*
X102880952Y-34804819D01*
X102880952Y-34804819D02*
X102976190Y-34757200D01*
X102976190Y-34757200D02*
X103023809Y-34709580D01*
X103023809Y-34709580D02*
X103119047Y-34566723D01*
X103119047Y-34566723D02*
X103166666Y-34376247D01*
X103166666Y-34376247D02*
X103166666Y-33995295D01*
X103166666Y-33995295D02*
X103119047Y-33900057D01*
X103119047Y-33900057D02*
X103071428Y-33852438D01*
X103071428Y-33852438D02*
X102976190Y-33804819D01*
X102976190Y-33804819D02*
X102785714Y-33804819D01*
X102785714Y-33804819D02*
X102690476Y-33852438D01*
X102690476Y-33852438D02*
X102642857Y-33900057D01*
X102642857Y-33900057D02*
X102595238Y-33995295D01*
X102595238Y-33995295D02*
X102595238Y-34233390D01*
X102595238Y-34233390D02*
X102642857Y-34328628D01*
X102642857Y-34328628D02*
X102690476Y-34376247D01*
X102690476Y-34376247D02*
X102785714Y-34423866D01*
X102785714Y-34423866D02*
X102976190Y-34423866D01*
X102976190Y-34423866D02*
X103071428Y-34376247D01*
X103071428Y-34376247D02*
X103119047Y-34328628D01*
X103119047Y-34328628D02*
X103166666Y-34233390D01*
X107454819Y-30619523D02*
X108169104Y-30619523D01*
X108169104Y-30619523D02*
X108311961Y-30667142D01*
X108311961Y-30667142D02*
X108407200Y-30762380D01*
X108407200Y-30762380D02*
X108454819Y-30905237D01*
X108454819Y-30905237D02*
X108454819Y-31000475D01*
X108454819Y-29619523D02*
X108454819Y-30190951D01*
X108454819Y-29905237D02*
X107454819Y-29905237D01*
X107454819Y-29905237D02*
X107597676Y-30000475D01*
X107597676Y-30000475D02*
X107692914Y-30095713D01*
X107692914Y-30095713D02*
X107740533Y-30190951D01*
X107454819Y-29286189D02*
X107454819Y-28619523D01*
X107454819Y-28619523D02*
X108454819Y-29048094D01*
D12*
X57666667Y-17972403D02*
X57533334Y-17972403D01*
X57533334Y-18181927D02*
X57533334Y-17781927D01*
X57533334Y-17781927D02*
X57723810Y-17781927D01*
X58009524Y-17972403D02*
X58066667Y-17991451D01*
X58066667Y-17991451D02*
X58085714Y-18010499D01*
X58085714Y-18010499D02*
X58104762Y-18048594D01*
X58104762Y-18048594D02*
X58104762Y-18105737D01*
X58104762Y-18105737D02*
X58085714Y-18143832D01*
X58085714Y-18143832D02*
X58066667Y-18162880D01*
X58066667Y-18162880D02*
X58028572Y-18181927D01*
X58028572Y-18181927D02*
X57876191Y-18181927D01*
X57876191Y-18181927D02*
X57876191Y-17781927D01*
X57876191Y-17781927D02*
X58009524Y-17781927D01*
X58009524Y-17781927D02*
X58047619Y-17800975D01*
X58047619Y-17800975D02*
X58066667Y-17820022D01*
X58066667Y-17820022D02*
X58085714Y-17858118D01*
X58085714Y-17858118D02*
X58085714Y-17896213D01*
X58085714Y-17896213D02*
X58066667Y-17934308D01*
X58066667Y-17934308D02*
X58047619Y-17953356D01*
X58047619Y-17953356D02*
X58009524Y-17972403D01*
X58009524Y-17972403D02*
X57876191Y-17972403D01*
X58257143Y-17820022D02*
X58276191Y-17800975D01*
X58276191Y-17800975D02*
X58314286Y-17781927D01*
X58314286Y-17781927D02*
X58409524Y-17781927D01*
X58409524Y-17781927D02*
X58447619Y-17800975D01*
X58447619Y-17800975D02*
X58466667Y-17820022D01*
X58466667Y-17820022D02*
X58485714Y-17858118D01*
X58485714Y-17858118D02*
X58485714Y-17896213D01*
X58485714Y-17896213D02*
X58466667Y-17953356D01*
X58466667Y-17953356D02*
X58238095Y-18181927D01*
X58238095Y-18181927D02*
X58485714Y-18181927D01*
D11*
X103454819Y-65984523D02*
X104169104Y-65984523D01*
X104169104Y-65984523D02*
X104311961Y-66032142D01*
X104311961Y-66032142D02*
X104407200Y-66127380D01*
X104407200Y-66127380D02*
X104454819Y-66270237D01*
X104454819Y-66270237D02*
X104454819Y-66365475D01*
X104454819Y-64984523D02*
X104454819Y-65555951D01*
X104454819Y-65270237D02*
X103454819Y-65270237D01*
X103454819Y-65270237D02*
X103597676Y-65365475D01*
X103597676Y-65365475D02*
X103692914Y-65460713D01*
X103692914Y-65460713D02*
X103740533Y-65555951D01*
X103454819Y-64079761D02*
X103454819Y-64555951D01*
X103454819Y-64555951D02*
X103931009Y-64603570D01*
X103931009Y-64603570D02*
X103883390Y-64555951D01*
X103883390Y-64555951D02*
X103835771Y-64460713D01*
X103835771Y-64460713D02*
X103835771Y-64222618D01*
X103835771Y-64222618D02*
X103883390Y-64127380D01*
X103883390Y-64127380D02*
X103931009Y-64079761D01*
X103931009Y-64079761D02*
X104026247Y-64032142D01*
X104026247Y-64032142D02*
X104264342Y-64032142D01*
X104264342Y-64032142D02*
X104359580Y-64079761D01*
X104359580Y-64079761D02*
X104407200Y-64127380D01*
X104407200Y-64127380D02*
X104454819Y-64222618D01*
X104454819Y-64222618D02*
X104454819Y-64460713D01*
X104454819Y-64460713D02*
X104407200Y-64555951D01*
X104407200Y-64555951D02*
X104359580Y-64603570D01*
D10*
X19958333Y-33113574D02*
X19839285Y-33113574D01*
X19839285Y-33113574D02*
X19839285Y-32863574D01*
X20029762Y-32887384D02*
X20041666Y-32875479D01*
X20041666Y-32875479D02*
X20065476Y-32863574D01*
X20065476Y-32863574D02*
X20125000Y-32863574D01*
X20125000Y-32863574D02*
X20148809Y-32875479D01*
X20148809Y-32875479D02*
X20160714Y-32887384D01*
X20160714Y-32887384D02*
X20172619Y-32911193D01*
X20172619Y-32911193D02*
X20172619Y-32935003D01*
X20172619Y-32935003D02*
X20160714Y-32970717D01*
X20160714Y-32970717D02*
X20017857Y-33113574D01*
X20017857Y-33113574D02*
X20172619Y-33113574D01*
D12*
X13972403Y-46333332D02*
X13972403Y-46466665D01*
X14181927Y-46466665D02*
X13781927Y-46466665D01*
X13781927Y-46466665D02*
X13781927Y-46276189D01*
X13972403Y-45990475D02*
X13991451Y-45933332D01*
X13991451Y-45933332D02*
X14010499Y-45914285D01*
X14010499Y-45914285D02*
X14048594Y-45895237D01*
X14048594Y-45895237D02*
X14105737Y-45895237D01*
X14105737Y-45895237D02*
X14143832Y-45914285D01*
X14143832Y-45914285D02*
X14162880Y-45933332D01*
X14162880Y-45933332D02*
X14181927Y-45971427D01*
X14181927Y-45971427D02*
X14181927Y-46123808D01*
X14181927Y-46123808D02*
X13781927Y-46123808D01*
X13781927Y-46123808D02*
X13781927Y-45990475D01*
X13781927Y-45990475D02*
X13800975Y-45952380D01*
X13800975Y-45952380D02*
X13820022Y-45933332D01*
X13820022Y-45933332D02*
X13858118Y-45914285D01*
X13858118Y-45914285D02*
X13896213Y-45914285D01*
X13896213Y-45914285D02*
X13934308Y-45933332D01*
X13934308Y-45933332D02*
X13953356Y-45952380D01*
X13953356Y-45952380D02*
X13972403Y-45990475D01*
X13972403Y-45990475D02*
X13972403Y-46123808D01*
X13781927Y-45533332D02*
X13781927Y-45723808D01*
X13781927Y-45723808D02*
X13972403Y-45742856D01*
X13972403Y-45742856D02*
X13953356Y-45723808D01*
X13953356Y-45723808D02*
X13934308Y-45685713D01*
X13934308Y-45685713D02*
X13934308Y-45590475D01*
X13934308Y-45590475D02*
X13953356Y-45552380D01*
X13953356Y-45552380D02*
X13972403Y-45533332D01*
X13972403Y-45533332D02*
X14010499Y-45514285D01*
X14010499Y-45514285D02*
X14105737Y-45514285D01*
X14105737Y-45514285D02*
X14143832Y-45533332D01*
X14143832Y-45533332D02*
X14162880Y-45552380D01*
X14162880Y-45552380D02*
X14181927Y-45590475D01*
X14181927Y-45590475D02*
X14181927Y-45685713D01*
X14181927Y-45685713D02*
X14162880Y-45723808D01*
X14162880Y-45723808D02*
X14143832Y-45742856D01*
D11*
X63261905Y-19954819D02*
X63261905Y-18954819D01*
X63261905Y-18954819D02*
X63500000Y-18954819D01*
X63500000Y-18954819D02*
X63642857Y-19002438D01*
X63642857Y-19002438D02*
X63738095Y-19097676D01*
X63738095Y-19097676D02*
X63785714Y-19192914D01*
X63785714Y-19192914D02*
X63833333Y-19383390D01*
X63833333Y-19383390D02*
X63833333Y-19526247D01*
X63833333Y-19526247D02*
X63785714Y-19716723D01*
X63785714Y-19716723D02*
X63738095Y-19811961D01*
X63738095Y-19811961D02*
X63642857Y-19907200D01*
X63642857Y-19907200D02*
X63500000Y-19954819D01*
X63500000Y-19954819D02*
X63261905Y-19954819D01*
X64214286Y-19050057D02*
X64261905Y-19002438D01*
X64261905Y-19002438D02*
X64357143Y-18954819D01*
X64357143Y-18954819D02*
X64595238Y-18954819D01*
X64595238Y-18954819D02*
X64690476Y-19002438D01*
X64690476Y-19002438D02*
X64738095Y-19050057D01*
X64738095Y-19050057D02*
X64785714Y-19145295D01*
X64785714Y-19145295D02*
X64785714Y-19240533D01*
X64785714Y-19240533D02*
X64738095Y-19383390D01*
X64738095Y-19383390D02*
X64166667Y-19954819D01*
X64166667Y-19954819D02*
X64785714Y-19954819D01*
X81454819Y-7603333D02*
X82169104Y-7603333D01*
X82169104Y-7603333D02*
X82311961Y-7650952D01*
X82311961Y-7650952D02*
X82407200Y-7746190D01*
X82407200Y-7746190D02*
X82454819Y-7889047D01*
X82454819Y-7889047D02*
X82454819Y-7984285D01*
X82454819Y-6603333D02*
X82454819Y-7174761D01*
X82454819Y-6889047D02*
X81454819Y-6889047D01*
X81454819Y-6889047D02*
X81597676Y-6984285D01*
X81597676Y-6984285D02*
X81692914Y-7079523D01*
X81692914Y-7079523D02*
X81740533Y-7174761D01*
D10*
X19839285Y-28089765D02*
X19827381Y-28101670D01*
X19827381Y-28101670D02*
X19791666Y-28113574D01*
X19791666Y-28113574D02*
X19767857Y-28113574D01*
X19767857Y-28113574D02*
X19732143Y-28101670D01*
X19732143Y-28101670D02*
X19708333Y-28077860D01*
X19708333Y-28077860D02*
X19696428Y-28054050D01*
X19696428Y-28054050D02*
X19684524Y-28006431D01*
X19684524Y-28006431D02*
X19684524Y-27970717D01*
X19684524Y-27970717D02*
X19696428Y-27923098D01*
X19696428Y-27923098D02*
X19708333Y-27899289D01*
X19708333Y-27899289D02*
X19732143Y-27875479D01*
X19732143Y-27875479D02*
X19767857Y-27863574D01*
X19767857Y-27863574D02*
X19791666Y-27863574D01*
X19791666Y-27863574D02*
X19827381Y-27875479D01*
X19827381Y-27875479D02*
X19839285Y-27887384D01*
X19934524Y-27887384D02*
X19946428Y-27875479D01*
X19946428Y-27875479D02*
X19970238Y-27863574D01*
X19970238Y-27863574D02*
X20029762Y-27863574D01*
X20029762Y-27863574D02*
X20053571Y-27875479D01*
X20053571Y-27875479D02*
X20065476Y-27887384D01*
X20065476Y-27887384D02*
X20077381Y-27911193D01*
X20077381Y-27911193D02*
X20077381Y-27935003D01*
X20077381Y-27935003D02*
X20065476Y-27970717D01*
X20065476Y-27970717D02*
X19922619Y-28113574D01*
X19922619Y-28113574D02*
X20077381Y-28113574D01*
X20315476Y-28113574D02*
X20172619Y-28113574D01*
X20244047Y-28113574D02*
X20244047Y-27863574D01*
X20244047Y-27863574D02*
X20220238Y-27899289D01*
X20220238Y-27899289D02*
X20196428Y-27923098D01*
X20196428Y-27923098D02*
X20172619Y-27935003D01*
X17839285Y-56089765D02*
X17827381Y-56101670D01*
X17827381Y-56101670D02*
X17791666Y-56113574D01*
X17791666Y-56113574D02*
X17767857Y-56113574D01*
X17767857Y-56113574D02*
X17732143Y-56101670D01*
X17732143Y-56101670D02*
X17708333Y-56077860D01*
X17708333Y-56077860D02*
X17696428Y-56054050D01*
X17696428Y-56054050D02*
X17684524Y-56006431D01*
X17684524Y-56006431D02*
X17684524Y-55970717D01*
X17684524Y-55970717D02*
X17696428Y-55923098D01*
X17696428Y-55923098D02*
X17708333Y-55899289D01*
X17708333Y-55899289D02*
X17732143Y-55875479D01*
X17732143Y-55875479D02*
X17767857Y-55863574D01*
X17767857Y-55863574D02*
X17791666Y-55863574D01*
X17791666Y-55863574D02*
X17827381Y-55875479D01*
X17827381Y-55875479D02*
X17839285Y-55887384D01*
X17922619Y-55863574D02*
X18077381Y-55863574D01*
X18077381Y-55863574D02*
X17994047Y-55958812D01*
X17994047Y-55958812D02*
X18029762Y-55958812D01*
X18029762Y-55958812D02*
X18053571Y-55970717D01*
X18053571Y-55970717D02*
X18065476Y-55982622D01*
X18065476Y-55982622D02*
X18077381Y-56006431D01*
X18077381Y-56006431D02*
X18077381Y-56065955D01*
X18077381Y-56065955D02*
X18065476Y-56089765D01*
X18065476Y-56089765D02*
X18053571Y-56101670D01*
X18053571Y-56101670D02*
X18029762Y-56113574D01*
X18029762Y-56113574D02*
X17958333Y-56113574D01*
X17958333Y-56113574D02*
X17934524Y-56101670D01*
X17934524Y-56101670D02*
X17922619Y-56089765D01*
X18315476Y-56113574D02*
X18172619Y-56113574D01*
X18244047Y-56113574D02*
X18244047Y-55863574D01*
X18244047Y-55863574D02*
X18220238Y-55899289D01*
X18220238Y-55899289D02*
X18196428Y-55923098D01*
X18196428Y-55923098D02*
X18172619Y-55935003D01*
X44839285Y-17409765D02*
X44827381Y-17421670D01*
X44827381Y-17421670D02*
X44791666Y-17433574D01*
X44791666Y-17433574D02*
X44767857Y-17433574D01*
X44767857Y-17433574D02*
X44732143Y-17421670D01*
X44732143Y-17421670D02*
X44708333Y-17397860D01*
X44708333Y-17397860D02*
X44696428Y-17374050D01*
X44696428Y-17374050D02*
X44684524Y-17326431D01*
X44684524Y-17326431D02*
X44684524Y-17290717D01*
X44684524Y-17290717D02*
X44696428Y-17243098D01*
X44696428Y-17243098D02*
X44708333Y-17219289D01*
X44708333Y-17219289D02*
X44732143Y-17195479D01*
X44732143Y-17195479D02*
X44767857Y-17183574D01*
X44767857Y-17183574D02*
X44791666Y-17183574D01*
X44791666Y-17183574D02*
X44827381Y-17195479D01*
X44827381Y-17195479D02*
X44839285Y-17207384D01*
X45077381Y-17433574D02*
X44934524Y-17433574D01*
X45005952Y-17433574D02*
X45005952Y-17183574D01*
X45005952Y-17183574D02*
X44982143Y-17219289D01*
X44982143Y-17219289D02*
X44958333Y-17243098D01*
X44958333Y-17243098D02*
X44934524Y-17255003D01*
X45172619Y-17207384D02*
X45184523Y-17195479D01*
X45184523Y-17195479D02*
X45208333Y-17183574D01*
X45208333Y-17183574D02*
X45267857Y-17183574D01*
X45267857Y-17183574D02*
X45291666Y-17195479D01*
X45291666Y-17195479D02*
X45303571Y-17207384D01*
X45303571Y-17207384D02*
X45315476Y-17231193D01*
X45315476Y-17231193D02*
X45315476Y-17255003D01*
X45315476Y-17255003D02*
X45303571Y-17290717D01*
X45303571Y-17290717D02*
X45160714Y-17433574D01*
X45160714Y-17433574D02*
X45315476Y-17433574D01*
D15*
X74179530Y-28083333D02*
X74203340Y-28107142D01*
X74203340Y-28107142D02*
X74227149Y-28178571D01*
X74227149Y-28178571D02*
X74227149Y-28226190D01*
X74227149Y-28226190D02*
X74203340Y-28297618D01*
X74203340Y-28297618D02*
X74155720Y-28345237D01*
X74155720Y-28345237D02*
X74108101Y-28369047D01*
X74108101Y-28369047D02*
X74012863Y-28392856D01*
X74012863Y-28392856D02*
X73941435Y-28392856D01*
X73941435Y-28392856D02*
X73846197Y-28369047D01*
X73846197Y-28369047D02*
X73798578Y-28345237D01*
X73798578Y-28345237D02*
X73750959Y-28297618D01*
X73750959Y-28297618D02*
X73727149Y-28226190D01*
X73727149Y-28226190D02*
X73727149Y-28178571D01*
X73727149Y-28178571D02*
X73750959Y-28107142D01*
X73750959Y-28107142D02*
X73774768Y-28083333D01*
X74227149Y-27607142D02*
X74227149Y-27892856D01*
X74227149Y-27749999D02*
X73727149Y-27749999D01*
X73727149Y-27749999D02*
X73798578Y-27797618D01*
X73798578Y-27797618D02*
X73846197Y-27845237D01*
X73846197Y-27845237D02*
X73870006Y-27892856D01*
D10*
X97832857Y-18118200D02*
X97746190Y-17994391D01*
X97684285Y-18118200D02*
X97684285Y-17858200D01*
X97684285Y-17858200D02*
X97783333Y-17858200D01*
X97783333Y-17858200D02*
X97808095Y-17870581D01*
X97808095Y-17870581D02*
X97820476Y-17882962D01*
X97820476Y-17882962D02*
X97832857Y-17907724D01*
X97832857Y-17907724D02*
X97832857Y-17944867D01*
X97832857Y-17944867D02*
X97820476Y-17969629D01*
X97820476Y-17969629D02*
X97808095Y-17982010D01*
X97808095Y-17982010D02*
X97783333Y-17994391D01*
X97783333Y-17994391D02*
X97684285Y-17994391D01*
X98080476Y-18118200D02*
X97931904Y-18118200D01*
X98006190Y-18118200D02*
X98006190Y-17858200D01*
X98006190Y-17858200D02*
X97981428Y-17895343D01*
X97981428Y-17895343D02*
X97956666Y-17920105D01*
X97956666Y-17920105D02*
X97931904Y-17932486D01*
X98167142Y-17858200D02*
X98328095Y-17858200D01*
X98328095Y-17858200D02*
X98241428Y-17957248D01*
X98241428Y-17957248D02*
X98278571Y-17957248D01*
X98278571Y-17957248D02*
X98303333Y-17969629D01*
X98303333Y-17969629D02*
X98315714Y-17982010D01*
X98315714Y-17982010D02*
X98328095Y-18006772D01*
X98328095Y-18006772D02*
X98328095Y-18068677D01*
X98328095Y-18068677D02*
X98315714Y-18093439D01*
X98315714Y-18093439D02*
X98303333Y-18105820D01*
X98303333Y-18105820D02*
X98278571Y-18118200D01*
X98278571Y-18118200D02*
X98204285Y-18118200D01*
X98204285Y-18118200D02*
X98179523Y-18105820D01*
X98179523Y-18105820D02*
X98167142Y-18093439D01*
X73958333Y-32089765D02*
X73946429Y-32101670D01*
X73946429Y-32101670D02*
X73910714Y-32113574D01*
X73910714Y-32113574D02*
X73886905Y-32113574D01*
X73886905Y-32113574D02*
X73851191Y-32101670D01*
X73851191Y-32101670D02*
X73827381Y-32077860D01*
X73827381Y-32077860D02*
X73815476Y-32054050D01*
X73815476Y-32054050D02*
X73803572Y-32006431D01*
X73803572Y-32006431D02*
X73803572Y-31970717D01*
X73803572Y-31970717D02*
X73815476Y-31923098D01*
X73815476Y-31923098D02*
X73827381Y-31899289D01*
X73827381Y-31899289D02*
X73851191Y-31875479D01*
X73851191Y-31875479D02*
X73886905Y-31863574D01*
X73886905Y-31863574D02*
X73910714Y-31863574D01*
X73910714Y-31863574D02*
X73946429Y-31875479D01*
X73946429Y-31875479D02*
X73958333Y-31887384D01*
X74053572Y-31887384D02*
X74065476Y-31875479D01*
X74065476Y-31875479D02*
X74089286Y-31863574D01*
X74089286Y-31863574D02*
X74148810Y-31863574D01*
X74148810Y-31863574D02*
X74172619Y-31875479D01*
X74172619Y-31875479D02*
X74184524Y-31887384D01*
X74184524Y-31887384D02*
X74196429Y-31911193D01*
X74196429Y-31911193D02*
X74196429Y-31935003D01*
X74196429Y-31935003D02*
X74184524Y-31970717D01*
X74184524Y-31970717D02*
X74041667Y-32113574D01*
X74041667Y-32113574D02*
X74196429Y-32113574D01*
D13*
X99333334Y-24203600D02*
X99404762Y-24227409D01*
X99404762Y-24227409D02*
X99523810Y-24227409D01*
X99523810Y-24227409D02*
X99571429Y-24203600D01*
X99571429Y-24203600D02*
X99595238Y-24179790D01*
X99595238Y-24179790D02*
X99619048Y-24132171D01*
X99619048Y-24132171D02*
X99619048Y-24084552D01*
X99619048Y-24084552D02*
X99595238Y-24036933D01*
X99595238Y-24036933D02*
X99571429Y-24013123D01*
X99571429Y-24013123D02*
X99523810Y-23989314D01*
X99523810Y-23989314D02*
X99428572Y-23965504D01*
X99428572Y-23965504D02*
X99380953Y-23941695D01*
X99380953Y-23941695D02*
X99357143Y-23917885D01*
X99357143Y-23917885D02*
X99333334Y-23870266D01*
X99333334Y-23870266D02*
X99333334Y-23822647D01*
X99333334Y-23822647D02*
X99357143Y-23775028D01*
X99357143Y-23775028D02*
X99380953Y-23751219D01*
X99380953Y-23751219D02*
X99428572Y-23727409D01*
X99428572Y-23727409D02*
X99547619Y-23727409D01*
X99547619Y-23727409D02*
X99619048Y-23751219D01*
X99785714Y-23727409D02*
X99904762Y-24227409D01*
X99904762Y-24227409D02*
X100000000Y-23870266D01*
X100000000Y-23870266D02*
X100095238Y-24227409D01*
X100095238Y-24227409D02*
X100214286Y-23727409D01*
X100380953Y-23775028D02*
X100404762Y-23751219D01*
X100404762Y-23751219D02*
X100452381Y-23727409D01*
X100452381Y-23727409D02*
X100571429Y-23727409D01*
X100571429Y-23727409D02*
X100619048Y-23751219D01*
X100619048Y-23751219D02*
X100642857Y-23775028D01*
X100642857Y-23775028D02*
X100666667Y-23822647D01*
X100666667Y-23822647D02*
X100666667Y-23870266D01*
X100666667Y-23870266D02*
X100642857Y-23941695D01*
X100642857Y-23941695D02*
X100357143Y-24227409D01*
X100357143Y-24227409D02*
X100666667Y-24227409D01*
D11*
X107454819Y-15159523D02*
X108169104Y-15159523D01*
X108169104Y-15159523D02*
X108311961Y-15207142D01*
X108311961Y-15207142D02*
X108407200Y-15302380D01*
X108407200Y-15302380D02*
X108454819Y-15445237D01*
X108454819Y-15445237D02*
X108454819Y-15540475D01*
X108454819Y-14159523D02*
X108454819Y-14730951D01*
X108454819Y-14445237D02*
X107454819Y-14445237D01*
X107454819Y-14445237D02*
X107597676Y-14540475D01*
X107597676Y-14540475D02*
X107692914Y-14635713D01*
X107692914Y-14635713D02*
X107740533Y-14730951D01*
X107454819Y-13302380D02*
X107454819Y-13492856D01*
X107454819Y-13492856D02*
X107502438Y-13588094D01*
X107502438Y-13588094D02*
X107550057Y-13635713D01*
X107550057Y-13635713D02*
X107692914Y-13730951D01*
X107692914Y-13730951D02*
X107883390Y-13778570D01*
X107883390Y-13778570D02*
X108264342Y-13778570D01*
X108264342Y-13778570D02*
X108359580Y-13730951D01*
X108359580Y-13730951D02*
X108407200Y-13683332D01*
X108407200Y-13683332D02*
X108454819Y-13588094D01*
X108454819Y-13588094D02*
X108454819Y-13397618D01*
X108454819Y-13397618D02*
X108407200Y-13302380D01*
X108407200Y-13302380D02*
X108359580Y-13254761D01*
X108359580Y-13254761D02*
X108264342Y-13207142D01*
X108264342Y-13207142D02*
X108026247Y-13207142D01*
X108026247Y-13207142D02*
X107931009Y-13254761D01*
X107931009Y-13254761D02*
X107883390Y-13302380D01*
X107883390Y-13302380D02*
X107835771Y-13397618D01*
X107835771Y-13397618D02*
X107835771Y-13588094D01*
X107835771Y-13588094D02*
X107883390Y-13683332D01*
X107883390Y-13683332D02*
X107931009Y-13730951D01*
X107931009Y-13730951D02*
X108026247Y-13778570D01*
D10*
X19839285Y-36089765D02*
X19827381Y-36101670D01*
X19827381Y-36101670D02*
X19791666Y-36113574D01*
X19791666Y-36113574D02*
X19767857Y-36113574D01*
X19767857Y-36113574D02*
X19732143Y-36101670D01*
X19732143Y-36101670D02*
X19708333Y-36077860D01*
X19708333Y-36077860D02*
X19696428Y-36054050D01*
X19696428Y-36054050D02*
X19684524Y-36006431D01*
X19684524Y-36006431D02*
X19684524Y-35970717D01*
X19684524Y-35970717D02*
X19696428Y-35923098D01*
X19696428Y-35923098D02*
X19708333Y-35899289D01*
X19708333Y-35899289D02*
X19732143Y-35875479D01*
X19732143Y-35875479D02*
X19767857Y-35863574D01*
X19767857Y-35863574D02*
X19791666Y-35863574D01*
X19791666Y-35863574D02*
X19827381Y-35875479D01*
X19827381Y-35875479D02*
X19839285Y-35887384D01*
X19934524Y-35887384D02*
X19946428Y-35875479D01*
X19946428Y-35875479D02*
X19970238Y-35863574D01*
X19970238Y-35863574D02*
X20029762Y-35863574D01*
X20029762Y-35863574D02*
X20053571Y-35875479D01*
X20053571Y-35875479D02*
X20065476Y-35887384D01*
X20065476Y-35887384D02*
X20077381Y-35911193D01*
X20077381Y-35911193D02*
X20077381Y-35935003D01*
X20077381Y-35935003D02*
X20065476Y-35970717D01*
X20065476Y-35970717D02*
X19922619Y-36113574D01*
X19922619Y-36113574D02*
X20077381Y-36113574D01*
X20172619Y-35887384D02*
X20184523Y-35875479D01*
X20184523Y-35875479D02*
X20208333Y-35863574D01*
X20208333Y-35863574D02*
X20267857Y-35863574D01*
X20267857Y-35863574D02*
X20291666Y-35875479D01*
X20291666Y-35875479D02*
X20303571Y-35887384D01*
X20303571Y-35887384D02*
X20315476Y-35911193D01*
X20315476Y-35911193D02*
X20315476Y-35935003D01*
X20315476Y-35935003D02*
X20303571Y-35970717D01*
X20303571Y-35970717D02*
X20160714Y-36113574D01*
X20160714Y-36113574D02*
X20315476Y-36113574D01*
D11*
X63261905Y-7954819D02*
X63261905Y-6954819D01*
X63261905Y-6954819D02*
X63500000Y-6954819D01*
X63500000Y-6954819D02*
X63642857Y-7002438D01*
X63642857Y-7002438D02*
X63738095Y-7097676D01*
X63738095Y-7097676D02*
X63785714Y-7192914D01*
X63785714Y-7192914D02*
X63833333Y-7383390D01*
X63833333Y-7383390D02*
X63833333Y-7526247D01*
X63833333Y-7526247D02*
X63785714Y-7716723D01*
X63785714Y-7716723D02*
X63738095Y-7811961D01*
X63738095Y-7811961D02*
X63642857Y-7907200D01*
X63642857Y-7907200D02*
X63500000Y-7954819D01*
X63500000Y-7954819D02*
X63261905Y-7954819D01*
X64785714Y-7954819D02*
X64214286Y-7954819D01*
X64500000Y-7954819D02*
X64500000Y-6954819D01*
X64500000Y-6954819D02*
X64404762Y-7097676D01*
X64404762Y-7097676D02*
X64309524Y-7192914D01*
X64309524Y-7192914D02*
X64214286Y-7240533D01*
%TO.C,C38*%
D18*
X71700000Y-51850000D02*
X72300000Y-51850000D01*
X72300000Y-52150000D01*
X71700000Y-52150000D01*
X71700000Y-51850000D01*
%TO.C,J18*%
X36730000Y-60730000D02*
X62130000Y-60730000D01*
X36730000Y-62635000D02*
X36730000Y-60730000D01*
X37365000Y-63270000D02*
X36730000Y-62635000D01*
X62130000Y-60730000D02*
X62130000Y-63270000D01*
X62130000Y-63270000D02*
X37365000Y-63270000D01*
%TO.C,J6*%
X9000000Y-59000000D02*
X7000000Y-59000000D01*
X7000000Y-61000000D01*
X9000000Y-61000000D01*
X9000000Y-59000000D01*
%TO.C,C11*%
X39500000Y-17750000D02*
X40500000Y-17750000D01*
X40500000Y-18250000D01*
X39500000Y-18250000D01*
X39500000Y-17750000D01*
%TO.C,D3*%
X75200000Y-7900000D02*
X75200000Y-8400000D01*
X75200000Y-8400000D02*
X76800000Y-8400000D01*
X75500000Y-7600000D02*
X75200000Y-7900000D01*
X76800000Y-7600000D02*
X75500000Y-7600000D01*
X76800000Y-8400000D02*
X76800000Y-7600000D01*
%TO.C,D4*%
X79200000Y-13900000D02*
X79200000Y-14400000D01*
X79200000Y-14400000D02*
X80800000Y-14400000D01*
X79500000Y-13600000D02*
X79200000Y-13900000D01*
X80800000Y-13600000D02*
X79500000Y-13600000D01*
X80800000Y-14400000D02*
X80800000Y-13600000D01*
%TO.C,C24*%
X19500000Y-55750000D02*
X20500000Y-55750000D01*
X20500000Y-56250000D01*
X19500000Y-56250000D01*
X19500000Y-55750000D01*
%TO.C,C34*%
X76500000Y-48250000D02*
X75500000Y-48250000D01*
X75500000Y-47750000D01*
X76500000Y-47750000D01*
X76500000Y-48250000D01*
%TO.C,C13*%
X39500000Y-22750000D02*
X40500000Y-22750000D01*
X40500000Y-23250000D01*
X39500000Y-23250000D01*
X39500000Y-22750000D01*
%TO.C,J8*%
X47250000Y-3260000D02*
X47250000Y-3660000D01*
X47250000Y-3660000D02*
X48295000Y-3660000D01*
X47250000Y-4530000D02*
X47250000Y-4930000D01*
X47250000Y-4930000D02*
X48295000Y-4930000D01*
X47250000Y-5800000D02*
X47250000Y-6200000D01*
X47250000Y-6200000D02*
X48295000Y-6200000D01*
X47250000Y-7070000D02*
X47250000Y-7470000D01*
X47250000Y-7470000D02*
X48295000Y-7470000D01*
X47250000Y-8340000D02*
X47250000Y-8740000D01*
X47250000Y-8740000D02*
X48295000Y-8740000D01*
X48295000Y-3260000D02*
X47250000Y-3260000D01*
X48295000Y-3260000D02*
X48730000Y-2825000D01*
X48295000Y-4530000D02*
X47250000Y-4530000D01*
X48295000Y-5800000D02*
X47250000Y-5800000D01*
X48295000Y-7070000D02*
X47250000Y-7070000D01*
X48295000Y-8340000D02*
X47250000Y-8340000D01*
X48295000Y-9175000D02*
X48295000Y-3260000D01*
X48730000Y-2825000D02*
X51705000Y-2825000D01*
X51705000Y-2825000D02*
X51705000Y-9175000D01*
X51705000Y-3260000D02*
X52750000Y-3260000D01*
X51705000Y-4530000D02*
X52750000Y-4530000D01*
X51705000Y-5800000D02*
X52750000Y-5800000D01*
X51705000Y-7070000D02*
X52750000Y-7070000D01*
X51705000Y-8340000D02*
X52750000Y-8340000D01*
X51705000Y-9175000D02*
X48295000Y-9175000D01*
X52750000Y-3260000D02*
X52750000Y-3660000D01*
X52750000Y-3660000D02*
X51705000Y-3660000D01*
X52750000Y-4530000D02*
X52750000Y-4930000D01*
X52750000Y-4930000D02*
X51705000Y-4930000D01*
X52750000Y-5800000D02*
X52750000Y-6200000D01*
X52750000Y-6200000D02*
X51705000Y-6200000D01*
X52750000Y-7070000D02*
X52750000Y-7470000D01*
X52750000Y-7470000D02*
X51705000Y-7470000D01*
X52750000Y-8340000D02*
X52750000Y-8740000D01*
X52750000Y-8740000D02*
X51705000Y-8740000D01*
%TO.C,SW1*%
X90250000Y-23350000D02*
X90250000Y-23600000D01*
X90250000Y-23600000D02*
X90500000Y-23850000D01*
X90250000Y-24400000D02*
X90250000Y-24650000D01*
X90250000Y-24650000D02*
X90500000Y-24650000D01*
X90500000Y-23000000D02*
X93500000Y-23000000D01*
X90500000Y-23350000D02*
X90250000Y-23350000D01*
X90500000Y-24150000D02*
X90250000Y-24400000D01*
X90500000Y-25000000D02*
X90500000Y-23000000D01*
X93500000Y-23000000D02*
X93500000Y-25000000D01*
X93500000Y-23350000D02*
X93750000Y-23350000D01*
X93500000Y-24150000D02*
X93750000Y-24400000D01*
X93500000Y-25000000D02*
X90500000Y-25000000D01*
X93750000Y-23350000D02*
X93750000Y-23600000D01*
X93750000Y-23600000D02*
X93500000Y-23850000D01*
X93750000Y-24400000D02*
X93750000Y-24650000D01*
X93750000Y-24650000D02*
X93500000Y-24650000D01*
%TO.C,C39*%
X45700000Y-19850000D02*
X46300000Y-19850000D01*
X46300000Y-20150000D01*
X45700000Y-20150000D01*
X45700000Y-19850000D01*
%TO.C,J9*%
X114730000Y-7365000D02*
X115365000Y-6730000D01*
X114730000Y-21970000D02*
X114730000Y-7365000D01*
X115365000Y-6730000D02*
X117270000Y-6730000D01*
X117270000Y-6730000D02*
X117270000Y-21970000D01*
X117270000Y-21970000D02*
X114730000Y-21970000D01*
%TO.C,C23*%
X19500000Y-47750000D02*
X20500000Y-47750000D01*
X20500000Y-48250000D01*
X19500000Y-48250000D01*
X19500000Y-47750000D01*
%TO.C,F1*%
X47200000Y-15600000D02*
X48800000Y-15600000D01*
X48800000Y-12400000D01*
X47200000Y-12400000D01*
X47200000Y-15600000D01*
%TO.C,U4*%
X77275000Y-55275000D02*
X78725000Y-55275000D01*
X78725000Y-56725000D01*
X77275000Y-56725000D01*
X77275000Y-55275000D01*
%TO.C,C3*%
X53000000Y-25375000D02*
X55000000Y-25375000D01*
X55000000Y-26625000D01*
X53000000Y-26625000D01*
X53000000Y-25375000D01*
%TO.C,C29*%
X13500000Y-53750000D02*
X14500000Y-53750000D01*
X14500000Y-54250000D01*
X13500000Y-54250000D01*
X13500000Y-53750000D01*
%TO.C,C4*%
X46500000Y-34750000D02*
X47500000Y-34750000D01*
X47500000Y-35250000D01*
X46500000Y-35250000D01*
X46500000Y-34750000D01*
%TO.C,J12*%
X4730000Y-74730000D02*
X55530000Y-74730000D01*
X4730000Y-76635000D02*
X4730000Y-74730000D01*
X5365000Y-77270000D02*
X4730000Y-76635000D01*
X55530000Y-74730000D02*
X55530000Y-77270000D01*
X55530000Y-77270000D02*
X5365000Y-77270000D01*
%TO.C,C37*%
X75700000Y-51850000D02*
X76300000Y-51850000D01*
X76300000Y-52150000D01*
X75700000Y-52150000D01*
X75700000Y-51850000D01*
%TO.C,R5*%
X101700000Y-25850000D02*
X102300000Y-25850000D01*
X102300000Y-26150000D01*
X101700000Y-26150000D01*
X101700000Y-25850000D01*
%TO.C,C9*%
X53700000Y-37850000D02*
X54300000Y-37850000D01*
X54300000Y-38150000D01*
X53700000Y-38150000D01*
X53700000Y-37850000D01*
%TO.C,R4*%
X28525000Y-22270000D02*
X27475000Y-22270000D01*
X27475000Y-21730000D01*
X28525000Y-21730000D01*
X28525000Y-22270000D01*
%TO.C,C10*%
X46700000Y-38850000D02*
X47300000Y-38850000D01*
X47300000Y-39150000D01*
X46700000Y-39150000D01*
X46700000Y-38850000D01*
%TO.C,C8*%
X53500000Y-31750000D02*
X54500000Y-31750000D01*
X54500000Y-32250000D01*
X53500000Y-32250000D01*
X53500000Y-31750000D01*
%TO.C,C35*%
X71700000Y-43850000D02*
X72300000Y-43850000D01*
X72300000Y-44150000D01*
X71700000Y-44150000D01*
X71700000Y-43850000D01*
%TO.C,D5*%
X85200000Y-13900000D02*
X85200000Y-14400000D01*
X85200000Y-14400000D02*
X86800000Y-14400000D01*
X85500000Y-13600000D02*
X85200000Y-13900000D01*
X86800000Y-13600000D02*
X85500000Y-13600000D01*
X86800000Y-14400000D02*
X86800000Y-13600000D01*
%TO.C,C28*%
X13500000Y-49750000D02*
X14500000Y-49750000D01*
X14500000Y-50250000D01*
X13500000Y-50250000D01*
X13500000Y-49750000D01*
%TO.C,L4*%
X17500000Y-37750000D02*
X18500000Y-37750000D01*
X18500000Y-38250000D01*
X17500000Y-38250000D01*
X17500000Y-37750000D01*
%TO.C,FB1*%
X47200000Y-17600000D02*
X48800000Y-17600000D01*
X48800000Y-18400000D01*
X47200000Y-18400000D01*
X47200000Y-17600000D01*
%TO.C,R3*%
X75730000Y-22525000D02*
X76270000Y-22525000D01*
X76270000Y-21475000D01*
X75730000Y-21475000D01*
X75730000Y-22525000D01*
%TO.C,D7*%
X97200000Y-13900000D02*
X97200000Y-14400000D01*
X97200000Y-14400000D02*
X98800000Y-14400000D01*
X97500000Y-13600000D02*
X97200000Y-13900000D01*
X98800000Y-13600000D02*
X97500000Y-13600000D01*
X98800000Y-14400000D02*
X98800000Y-13600000D01*
%TO.C,C14*%
X47700000Y-21850000D02*
X48300000Y-21850000D01*
X48300000Y-22150000D01*
X47700000Y-22150000D01*
X47700000Y-21850000D01*
%TO.C,R11*%
X85475000Y-17730000D02*
X86525000Y-17730000D01*
X86525000Y-18270000D01*
X85475000Y-18270000D01*
X85475000Y-17730000D01*
%TO.C,SW3*%
X78250000Y-23350000D02*
X78250000Y-23600000D01*
X78250000Y-23600000D02*
X78500000Y-23850000D01*
X78250000Y-24400000D02*
X78250000Y-24650000D01*
X78250000Y-24650000D02*
X78500000Y-24650000D01*
X78500000Y-23000000D02*
X81500000Y-23000000D01*
X78500000Y-23350000D02*
X78250000Y-23350000D01*
X78500000Y-24150000D02*
X78250000Y-24400000D01*
X78500000Y-25000000D02*
X78500000Y-23000000D01*
X81500000Y-23000000D02*
X81500000Y-25000000D01*
X81500000Y-23350000D02*
X81750000Y-23350000D01*
X81500000Y-24150000D02*
X81750000Y-24400000D01*
X81500000Y-25000000D02*
X78500000Y-25000000D01*
X81750000Y-23350000D02*
X81750000Y-23600000D01*
X81750000Y-23600000D02*
X81500000Y-23850000D01*
X81750000Y-24400000D02*
X81750000Y-24650000D01*
X81750000Y-24650000D02*
X81500000Y-24650000D01*
%TO.C,J3*%
X9000000Y-39000000D02*
X7000000Y-39000000D01*
X7000000Y-41000000D01*
X9000000Y-41000000D01*
X9000000Y-39000000D01*
%TO.C,C33*%
X75500000Y-43750000D02*
X76500000Y-43750000D01*
X76500000Y-44250000D01*
X75500000Y-44250000D01*
X75500000Y-43750000D01*
%TO.C,R2*%
X58800000Y-24400000D02*
X57200000Y-24400000D01*
X57200000Y-27600000D01*
X58800000Y-27600000D01*
X58800000Y-24400000D01*
%TO.C,J14*%
X102950000Y-47890000D02*
X103475000Y-47365000D01*
X102950000Y-54985000D02*
X102950000Y-47890000D01*
X103475000Y-47365000D02*
X105050000Y-47365000D01*
X105050000Y-47365000D02*
X105050000Y-54985000D01*
X105050000Y-54985000D02*
X102950000Y-54985000D01*
%TO.C,J10*%
X114730000Y-27365000D02*
X115365000Y-26730000D01*
X114730000Y-41970000D02*
X114730000Y-27365000D01*
X115365000Y-26730000D02*
X117270000Y-26730000D01*
X117270000Y-26730000D02*
X117270000Y-41970000D01*
X117270000Y-41970000D02*
X114730000Y-41970000D01*
%TO.C,R10*%
X79475000Y-17730000D02*
X80525000Y-17730000D01*
X80525000Y-18270000D01*
X79475000Y-18270000D01*
X79475000Y-17730000D01*
%TO.C,C5*%
X46700000Y-30850000D02*
X47300000Y-30850000D01*
X47300000Y-31150000D01*
X46700000Y-31150000D01*
X46700000Y-30850000D01*
%TO.C,L1*%
X22500000Y-32250000D02*
X21500000Y-32250000D01*
X21500000Y-31750000D01*
X22500000Y-31750000D01*
X22500000Y-32250000D01*
%TO.C,C30*%
X18250000Y-49500000D02*
X17750000Y-49500000D01*
X17750000Y-50500000D01*
X18250000Y-50500000D01*
X18250000Y-49500000D01*
%TO.C,C6*%
X46700000Y-26850000D02*
X47300000Y-26850000D01*
X47300000Y-27150000D01*
X46700000Y-27150000D01*
X46700000Y-26850000D01*
%TO.C,J7*%
X89420000Y-57290000D02*
X89420000Y-42940000D01*
X91820000Y-56840000D02*
X91820000Y-57290000D01*
X91820000Y-57290000D02*
X89420000Y-57290000D01*
X100620000Y-42940000D02*
X89420000Y-42940000D01*
X100620000Y-42940000D02*
X100620000Y-56840000D01*
X100620000Y-56840000D02*
X91820000Y-56840000D01*
%TO.C,FB4*%
X73550000Y-19000000D02*
X74450000Y-19000000D01*
X74450000Y-17000000D01*
X73550000Y-17000000D01*
X73550000Y-19000000D01*
%TO.C,FB3*%
X67200000Y-17600000D02*
X68800000Y-17600000D01*
X68800000Y-18400000D01*
X67200000Y-18400000D01*
X67200000Y-17600000D01*
%TO.C,J13*%
X62730000Y-74730000D02*
X113530000Y-74730000D01*
X62730000Y-76635000D02*
X62730000Y-74730000D01*
X63365000Y-77270000D02*
X62730000Y-76635000D01*
X113530000Y-74730000D02*
X113530000Y-77270000D01*
X113530000Y-77270000D02*
X63365000Y-77270000D01*
%TO.C,C27*%
X22300000Y-35150000D02*
X21700000Y-35150000D01*
X21700000Y-34850000D01*
X22300000Y-34850000D01*
X22300000Y-35150000D01*
%TO.C,R14*%
X85475000Y-25730000D02*
X86525000Y-25730000D01*
X86525000Y-26270000D01*
X85475000Y-26270000D01*
X85475000Y-25730000D01*
%TO.C,D6*%
X91200000Y-13900000D02*
X91200000Y-14400000D01*
X91200000Y-14400000D02*
X92800000Y-14400000D01*
X91500000Y-13600000D02*
X91200000Y-13900000D01*
X92800000Y-13600000D02*
X91500000Y-13600000D01*
X92800000Y-14400000D02*
X92800000Y-13600000D01*
%TO.C,J11*%
X114730000Y-45365000D02*
X115365000Y-44730000D01*
X114730000Y-54890000D02*
X114730000Y-45365000D01*
X115365000Y-44730000D02*
X117270000Y-44730000D01*
X117270000Y-44730000D02*
X117270000Y-54890000D01*
X117270000Y-54890000D02*
X114730000Y-54890000D01*
%TO.C,C7*%
X59000000Y-35375000D02*
X61000000Y-35375000D01*
X61000000Y-36625000D01*
X59000000Y-36625000D01*
X59000000Y-35375000D01*
%TO.C,R12*%
X91475000Y-17730000D02*
X92525000Y-17730000D01*
X92525000Y-18270000D01*
X91475000Y-18270000D01*
X91475000Y-17730000D01*
%TO.C,C36*%
X71700000Y-47850000D02*
X72300000Y-47850000D01*
X72300000Y-48150000D01*
X71700000Y-48150000D01*
X71700000Y-47850000D01*
%TO.C,R1*%
X49850000Y-22300000D02*
X50150000Y-22300000D01*
X50150000Y-21700000D01*
X49850000Y-21700000D01*
X49850000Y-22300000D01*
%TO.C,C32*%
X11500000Y-39750000D02*
X12500000Y-39750000D01*
X12500000Y-40250000D01*
X11500000Y-40250000D01*
X11500000Y-39750000D01*
%TO.C,U2*%
X74800000Y-41450000D02*
X73200000Y-41450000D01*
X73200000Y-38950000D01*
X73600000Y-38550000D01*
X74800000Y-38550000D01*
X74800000Y-41450000D01*
%TO.C,J5*%
X6500000Y-51575000D02*
X6500000Y-53375000D01*
X6500000Y-51575000D02*
X6700000Y-51575000D01*
X6500000Y-53375000D02*
X6700000Y-53375000D01*
X6700000Y-51575000D02*
X6700000Y-51175000D01*
X6700000Y-53775000D02*
X6700000Y-53375000D01*
X7700000Y-50925000D02*
X7700000Y-51175000D01*
X7700000Y-50925000D02*
X8150000Y-50925000D01*
X7700000Y-51175000D02*
X6700000Y-51175000D01*
X8300000Y-51075000D02*
X8150000Y-50925000D01*
X8300000Y-51075000D02*
X8300000Y-51175000D01*
X8300000Y-51175000D02*
X9300000Y-51175000D01*
X9300000Y-51575000D02*
X9300000Y-51175000D01*
X9300000Y-53775000D02*
X6700000Y-53775000D01*
X9300000Y-53775000D02*
X9300000Y-53375000D01*
X9500000Y-51575000D02*
X9300000Y-51575000D01*
X9500000Y-51575000D02*
X9500000Y-53375000D01*
X9500000Y-53375000D02*
X9300000Y-53375000D01*
%TO.C,J2*%
X6500000Y-31575000D02*
X6500000Y-33375000D01*
X6500000Y-31575000D02*
X6700000Y-31575000D01*
X6500000Y-33375000D02*
X6700000Y-33375000D01*
X6700000Y-31575000D02*
X6700000Y-31175000D01*
X6700000Y-33775000D02*
X6700000Y-33375000D01*
X7700000Y-30925000D02*
X7700000Y-31175000D01*
X7700000Y-30925000D02*
X8150000Y-30925000D01*
X7700000Y-31175000D02*
X6700000Y-31175000D01*
X8300000Y-31075000D02*
X8150000Y-30925000D01*
X8300000Y-31075000D02*
X8300000Y-31175000D01*
X8300000Y-31175000D02*
X9300000Y-31175000D01*
X9300000Y-31575000D02*
X9300000Y-31175000D01*
X9300000Y-33775000D02*
X6700000Y-33775000D01*
X9300000Y-33775000D02*
X9300000Y-33375000D01*
X9500000Y-31575000D02*
X9300000Y-31575000D01*
X9500000Y-31575000D02*
X9500000Y-33375000D01*
X9500000Y-33375000D02*
X9300000Y-33375000D01*
%TO.C,J17*%
X106730000Y-25365000D02*
X107365000Y-24730000D01*
X106730000Y-34890000D02*
X106730000Y-25365000D01*
X107365000Y-24730000D02*
X109270000Y-24730000D01*
X109270000Y-24730000D02*
X109270000Y-34890000D01*
X109270000Y-34890000D02*
X106730000Y-34890000D01*
%TO.C,FB2*%
X57200000Y-17600000D02*
X58800000Y-17600000D01*
X58800000Y-18400000D01*
X57200000Y-18400000D01*
X57200000Y-17600000D01*
%TO.C,U1*%
X44000000Y-37250000D02*
X28000000Y-37250000D01*
X28000000Y-26750000D01*
X44000000Y-26750000D01*
X44000000Y-37250000D01*
%TO.C,J15*%
X102950000Y-61890000D02*
X103475000Y-61365000D01*
X102950000Y-68985000D02*
X102950000Y-61890000D01*
X103475000Y-61365000D02*
X105050000Y-61365000D01*
X105050000Y-61365000D02*
X105050000Y-68985000D01*
X105050000Y-68985000D02*
X102950000Y-68985000D01*
%TO.C,L2*%
X20500000Y-33250000D02*
X19500000Y-33250000D01*
X19500000Y-32750000D01*
X20500000Y-32750000D01*
X20500000Y-33250000D01*
%TO.C,FB5*%
X13600000Y-46800000D02*
X14400000Y-46800000D01*
X14400000Y-45200000D01*
X13600000Y-45200000D01*
X13600000Y-46800000D01*
%TO.C,D2*%
X61700000Y-23500000D02*
X61700000Y-20500000D01*
X63350560Y-21200920D02*
X63350560Y-22801120D01*
X63350560Y-22001020D02*
X62448860Y-22001020D01*
X63350560Y-22001020D02*
X64501180Y-21200920D01*
X63350560Y-22001020D02*
X64501180Y-22750320D01*
X64501180Y-22001020D02*
X65499400Y-22001020D01*
X64501180Y-22750320D02*
X64501180Y-21200920D01*
X66300000Y-20500000D02*
X61700000Y-20500000D01*
X66300000Y-20500000D02*
X66300000Y-23500000D01*
X66300000Y-23500000D02*
X61700000Y-23500000D01*
%TO.C,J1*%
X80730000Y-5365000D02*
X81365000Y-4730000D01*
X80730000Y-9810000D02*
X80730000Y-5365000D01*
X81365000Y-4730000D02*
X83270000Y-4730000D01*
X83270000Y-4730000D02*
X83270000Y-9810000D01*
X83270000Y-9810000D02*
X80730000Y-9810000D01*
%TO.C,C21*%
X19500000Y-27750000D02*
X20500000Y-27750000D01*
X20500000Y-28250000D01*
X19500000Y-28250000D01*
X19500000Y-27750000D01*
%TO.C,C31*%
X17500000Y-55750000D02*
X18500000Y-55750000D01*
X18500000Y-56250000D01*
X17500000Y-56250000D01*
X17500000Y-55750000D01*
%TO.C,C12*%
X44700000Y-17850000D02*
X45300000Y-17850000D01*
X45300000Y-18150000D01*
X44700000Y-18150000D01*
X44700000Y-17850000D01*
%TO.C,C1*%
X73375000Y-29000000D02*
X74625000Y-29000000D01*
X74625000Y-27000000D01*
X73375000Y-27000000D01*
X73375000Y-29000000D01*
%TO.C,R13*%
X97475000Y-17730000D02*
X98525000Y-17730000D01*
X98525000Y-18270000D01*
X97475000Y-18270000D01*
X97475000Y-17730000D01*
%TO.C,C2*%
X74500000Y-32250000D02*
X73500000Y-32250000D01*
X73500000Y-31750000D01*
X74500000Y-31750000D01*
X74500000Y-32250000D01*
%TO.C,SW2*%
X98250000Y-23350000D02*
X98250000Y-23600000D01*
X98250000Y-23600000D02*
X98500000Y-23850000D01*
X98250000Y-24400000D02*
X98250000Y-24650000D01*
X98250000Y-24650000D02*
X98500000Y-24650000D01*
X98500000Y-23000000D02*
X101500000Y-23000000D01*
X98500000Y-23350000D02*
X98250000Y-23350000D01*
X98500000Y-24150000D02*
X98250000Y-24400000D01*
X98500000Y-25000000D02*
X98500000Y-23000000D01*
X101500000Y-23000000D02*
X101500000Y-25000000D01*
X101500000Y-23350000D02*
X101750000Y-23350000D01*
X101500000Y-24150000D02*
X101750000Y-24400000D01*
X101500000Y-25000000D02*
X98500000Y-25000000D01*
X101750000Y-23350000D02*
X101750000Y-23600000D01*
X101750000Y-23600000D02*
X101500000Y-23850000D01*
X101750000Y-24400000D02*
X101750000Y-24650000D01*
X101750000Y-24650000D02*
X101500000Y-24650000D01*
%TO.C,J16*%
X106730000Y-7365000D02*
X107365000Y-6730000D01*
X106730000Y-21970000D02*
X106730000Y-7365000D01*
X107365000Y-6730000D02*
X109270000Y-6730000D01*
X109270000Y-6730000D02*
X109270000Y-21970000D01*
X109270000Y-21970000D02*
X106730000Y-21970000D01*
%TO.C,C22*%
X19500000Y-35750000D02*
X20500000Y-35750000D01*
X20500000Y-36250000D01*
X19500000Y-36250000D01*
X19500000Y-35750000D01*
%TO.C,D1*%
X61700000Y-11500000D02*
X61700000Y-8500000D01*
X63350560Y-9200920D02*
X63350560Y-10801120D01*
X63350560Y-10001020D02*
X62448860Y-10001020D01*
X63350560Y-10001020D02*
X64501180Y-9200920D01*
X63350560Y-10001020D02*
X64501180Y-10750320D01*
X64501180Y-10001020D02*
X65499400Y-10001020D01*
X64501180Y-10750320D02*
X64501180Y-9200920D01*
X66300000Y-8500000D02*
X61700000Y-8500000D01*
X66300000Y-8500000D02*
X66300000Y-11500000D01*
X66300000Y-11500000D02*
X61700000Y-11500000D01*
%TD*%
M02*
